<svg width="29" height="33" viewBox="0 0 29 33" fill="none" xmlns="http://www.w3.org/2000/svg">
<path fill-rule="evenodd" clip-rule="evenodd" d="M21.102 19.2651C24.3957 19.2651 27.2284 21.6085 27.8429 24.8415L28.2537 27.0134C28.8431 30.1141 26.4676 32.9826 23.3133 32.9826H5.03058C1.87628 32.9826 -0.499315 30.1106 0.0901717 27.0134L0.500986 24.8415C1.11899 21.6085 3.94463 19.2651 7.23829 19.2651H21.102ZM7.23816 22.0086C5.26266 22.0086 3.5659 23.4161 3.1979 25.3559L2.78352 27.5243C2.5156 28.9353 3.59799 30.2392 5.03045 30.2392H23.3131C24.7456 30.2392 25.828 28.9353 25.5601 27.5243L25.1457 25.3559C24.7778 23.4126 23.0809 22.0086 21.1019 22.0086H7.23816Z" fill="white"/>
<path fill-rule="evenodd" clip-rule="evenodd" d="M14.172 0C18.9695 0 22.8597 3.89019 22.8597 8.68775C22.8597 13.4853 18.9695 17.3755 14.172 17.3755C9.37442 17.3755 5.48422 13.4853 5.48422 8.68775C5.48422 3.89019 9.37442 0 14.172 0ZM14.172 2.7435C10.8891 2.7435 8.22772 5.40488 8.22772 8.68775C8.22772 11.9706 10.8891 14.632 14.172 14.632C17.4549 14.632 20.1162 11.9706 20.1162 8.68775C20.1162 5.40488 17.4549 2.7435 14.172 2.7435Z" fill="white"/>
</svg>
