<svg width="17" height="20" viewBox="0 0 17 20" fill="none" xmlns="http://www.w3.org/2000/svg">
<path fill-rule="evenodd" clip-rule="evenodd" d="M12.6565 11.5547C14.632 11.5547 16.331 12.9602 16.6995 14.8993L16.9459 16.2019C17.2994 18.0617 15.8747 19.7821 13.9828 19.7821H3.01723C1.12535 19.7821 -0.299478 18.0595 0.054083 16.2019L0.30048 14.8993C0.671143 12.9602 2.3659 11.5547 4.34137 11.5547H12.6565ZM4.34129 13.2002C3.15643 13.2002 2.13875 14.0444 1.91803 15.2078L1.66949 16.5083C1.5088 17.3547 2.158 18.1367 3.01715 18.1367H13.9827C14.8419 18.1367 15.4911 17.3547 15.3304 16.5083L15.0818 15.2078C14.8611 14.0422 13.8434 13.2002 12.6564 13.2002H4.34129Z" fill="#215DB7"/>
<path fill-rule="evenodd" clip-rule="evenodd" d="M8.49978 0C11.3773 0 13.7105 2.33325 13.7105 5.21072C13.7105 8.08819 11.3773 10.4214 8.49978 10.4214C5.62231 10.4214 3.28906 8.08819 3.28906 5.21072C3.28906 2.33325 5.62231 0 8.49978 0ZM8.49978 1.64549C6.53079 1.64549 4.93455 3.24173 4.93455 5.21072C4.93455 7.17972 6.53079 8.77595 8.49978 8.77595C10.4688 8.77595 12.065 7.17972 12.065 5.21072C12.065 3.24173 10.4688 1.64549 8.49978 1.64549Z" fill="#215DB7"/>
</svg>
