<svg width="15" height="18" viewBox="0 0 15 18" fill="none" xmlns="http://www.w3.org/2000/svg">
<path fill-rule="evenodd" clip-rule="evenodd" d="M11.1675 10.1953C12.9106 10.1953 14.4097 11.4355 14.7349 13.1464L14.9523 14.2958C15.2642 15.9368 14.007 17.4548 12.3377 17.4548H2.66226C0.992959 17.4548 -0.264245 15.9349 0.0477203 14.2958L0.26513 13.1464C0.592185 11.4355 2.08756 10.1953 3.83062 10.1953H11.1675ZM3.83055 11.6472C2.78508 11.6472 1.88713 12.3921 1.69238 13.4186L1.47308 14.5662C1.3313 15.3129 1.90412 16.003 2.66219 16.003H12.3377C13.0958 16.003 13.6686 15.3129 13.5268 14.5662L13.3075 13.4186C13.1128 12.3902 12.2148 11.6472 11.1674 11.6472H3.83055Z" fill="black"/>
<path fill-rule="evenodd" clip-rule="evenodd" d="M7.49992 0C10.0389 0 12.0976 2.05875 12.0976 4.59769C12.0976 7.13664 10.0389 9.19539 7.49992 9.19539C4.96097 9.19539 2.90222 7.13664 2.90222 4.59769C2.90222 2.05875 4.96097 0 7.49992 0ZM7.49992 1.4519C5.76257 1.4519 4.35413 2.86035 4.35413 4.59769C4.35413 6.33504 5.76257 7.74349 7.49992 7.74349C9.23726 7.74349 10.6457 6.33504 10.6457 4.59769C10.6457 2.86035 9.23726 1.4519 7.49992 1.4519Z" fill="black"/>
</svg>
