<svg width="24" height="23" viewBox="0 0 24 23" fill="none" xmlns="http://www.w3.org/2000/svg">
<path fill-rule="evenodd" clip-rule="evenodd" d="M22.3303 10.7626L22.3387 10.771L12.353 21.0747L12.3513 21.073C12.194 21.2387 11.9747 21.3325 11.747 21.3325C11.5176 21.3325 11.3 21.2387 11.141 21.073C10.8078 20.7248 10.8078 20.174 11.141 19.8242L21.1301 9.52046L21.1217 9.51209V9.51376C22.7355 7.66563 22.6736 4.89353 20.9778 3.12061C19.2234 1.30928 16.2268 1.46665 14.474 3.27629L2.37256 15.7665C1.43009 16.9182 1.49536 18.5939 2.52323 19.6687C3.53603 20.7283 5.20503 20.7936 6.29818 19.8176L6.30655 19.826L17.1961 8.58507C17.4706 8.13642 17.4087 7.5589 17.0454 7.18058C16.6889 6.80559 16.1146 6.74032 15.6844 7.02489L7.21193 15.7665C7.05457 15.9322 6.83694 16.0243 6.60758 16.0243C6.37824 16.0243 6.1606 15.9322 6.00324 15.7665C5.66843 15.4166 5.66843 14.8675 6.00324 14.5177L14.474 5.77605L14.4824 5.78442L14.4807 5.78274C15.5739 4.8068 17.2429 4.87207 18.2557 5.93173C19.2818 7.00646 19.3438 8.67884 18.398 9.8272L18.4063 9.83556L7.51508 21.0735L7.50671 21.0651L7.50838 21.0668C5.75397 22.7325 2.98501 22.6655 1.31279 20.9178C-0.381321 19.145 -0.44329 16.373 1.1705 14.5264L1.16213 14.518L13.5649 1.71671L13.5733 1.72508V1.7234C14.7317 0.593437 16.2936 -0.0259507 17.9106 0.000833899C19.5294 0.0292924 21.0679 0.702246 22.1878 1.87241C23.3261 3.0643 23.9724 4.64125 23.9991 6.29036C24.0259 7.93764 23.43 9.53631 22.3301 10.7636L22.3303 10.7626Z" fill="black"/>
</svg>
