<svg width="23" height="19" viewBox="0 0 23 19" fill="none" xmlns="http://www.w3.org/2000/svg">
<path d="M18.0892 4.63428C19.8365 4.63438 21.265 5.99803 21.265 7.68896C21.2647 9.37967 19.8364 10.7426 18.0892 10.7427C16.3418 10.7427 14.9127 9.37972 14.9124 7.68896C14.9124 5.99798 16.3417 4.63428 18.0892 4.63428ZM18.0892 5.57178C16.8632 5.57178 15.8773 6.52642 15.8773 7.68896C15.8775 8.85152 16.8634 9.80518 18.0892 9.80518C19.3151 9.80507 20.2998 8.85145 20.3001 7.68896C20.3001 6.5265 19.3152 5.57188 18.0892 5.57178Z" fill="#215DB7" stroke="#215DB7" stroke-width="0.284326"/>
<path d="M18.0892 11.0769C20.2304 11.0769 21.9768 12.7444 21.9769 14.8132V17.4451C21.9769 17.7442 21.8527 18.0302 21.6342 18.24C21.4157 18.4496 21.1202 18.5661 20.8138 18.5662H15.641C15.3806 18.5659 15.1588 18.3623 15.1586 18.0984C15.1586 17.8343 15.3804 17.6299 15.641 17.6296H20.8138C20.868 17.6296 20.9186 17.6083 20.9554 17.573C20.9918 17.5381 21.012 17.4918 21.0121 17.4451V14.8132C21.012 13.2731 19.7087 12.0144 18.0892 12.0144C17.6618 12.0144 17.2563 12.1021 16.891 12.2595C16.6524 12.3626 16.3675 12.2627 16.2562 12.0261V12.0251C16.1439 11.7848 16.2582 11.5071 16.4994 11.4031C16.9848 11.1937 17.5233 11.0769 18.0892 11.0769Z" fill="#215DB7" stroke="#215DB7" stroke-width="0.284326"/>
<path d="M4.02966 4.63428C5.77713 4.63428 7.20544 5.99798 7.20544 7.68896C7.20518 9.37972 5.77699 10.7427 4.02966 10.7427C2.28236 10.7427 0.853165 9.37973 0.852905 7.68896C0.852905 5.99797 2.28222 4.63429 4.02966 4.63428ZM4.02966 5.57178C2.8035 5.57179 1.81775 6.52644 1.81775 7.68896C1.81801 8.85151 2.80367 9.80516 4.02966 9.80518C5.25543 9.80518 6.24034 8.85152 6.2406 7.68896C6.2406 6.52642 5.2556 5.57178 4.02966 5.57178Z" fill="#215DB7" stroke="#215DB7" stroke-width="0.284326"/>
<path d="M4.02942 11.0769C4.65359 11.0769 5.24359 11.2187 5.76672 11.4705C6.00405 11.5845 6.10609 11.8671 5.98352 12.1023C5.86244 12.3341 5.57317 12.423 5.33899 12.3103C4.94549 12.121 4.50061 12.0144 4.02942 12.0144C2.40997 12.0144 1.10665 13.2731 1.10657 14.8132V17.4451C1.10662 17.4918 1.12681 17.5381 1.16321 17.573C1.20009 17.6083 1.25066 17.6296 1.30481 17.6296H6.47766C6.73824 17.6299 6.96008 17.8343 6.96008 18.0984C6.95983 18.3623 6.7381 18.5659 6.47766 18.5662H1.30481C0.998439 18.5661 0.702961 18.4496 0.484497 18.24C0.265975 18.0302 0.141781 17.7442 0.141724 17.4451V14.8132C0.141807 12.7444 1.88822 11.0769 4.02942 11.0769Z" fill="#215DB7" stroke="#215DB7" stroke-width="0.284326"/>
<path d="M11.0597 0.141846C13.321 0.142077 15.1671 1.90595 15.1671 4.09009C15.167 6.27414 13.3209 8.03712 11.0597 8.03735C8.79826 8.03735 6.95139 6.27429 6.95129 4.09009C6.95129 1.90581 8.7982 0.141846 11.0597 0.141846ZM11.0597 1.07935C9.31974 1.07935 7.91614 2.43425 7.91614 4.09009C7.91623 5.74585 9.3198 7.09985 11.0597 7.09985C12.7994 7.09962 14.2022 5.7457 14.2023 4.09009C14.2023 2.4344 12.7994 1.07958 11.0597 1.07935Z" fill="#215DB7" stroke="#215DB7" stroke-width="0.284326"/>
<path d="M11.0589 8.81177C13.85 8.81177 16.1234 10.9854 16.1234 13.678V18.0979C16.1234 18.3621 15.9017 18.5667 15.6409 18.5667H6.47687C6.21657 18.5664 5.99445 18.362 5.99445 18.0979C5.99445 17.8338 6.21657 17.6294 6.47687 17.6292H15.1585V13.678C15.1585 11.5142 13.3291 9.7495 11.0599 9.74927C8.79047 9.74927 6.95929 11.5141 6.95929 13.678V16.8372C6.95909 17.1012 6.73752 17.3059 6.47687 17.3059C6.21669 17.3057 5.99464 17.1011 5.99445 16.8372V13.678C5.99445 10.9854 8.26779 8.81181 11.0589 8.81177Z" fill="#215DB7" stroke="#215DB7" stroke-width="0.284326"/>
</svg>
