<svg width="34" height="29" viewBox="0 0 34 29" fill="none" xmlns="http://www.w3.org/2000/svg">
<path d="M27.776 7.07764C30.4346 7.07764 32.6032 9.15097 32.6032 11.7163C32.603 14.2815 30.4345 16.354 27.776 16.354C25.1176 16.3539 22.949 14.2815 22.9489 11.7163C22.9489 9.15102 25.1175 7.0777 27.776 7.07764ZM27.776 8.37061C25.8435 8.37067 24.2848 9.87561 24.2848 11.7163C24.285 13.5572 25.8436 15.0619 27.776 15.062C29.7089 15.062 31.2681 13.5573 31.2682 11.7163C31.2682 9.87558 29.709 8.37061 27.776 8.37061Z" fill="white" stroke="white" stroke-width="0.284326"/>
<path d="M27.7772 17.0259C31.0435 17.026 33.7008 19.5687 33.701 22.7173V26.7808C33.701 27.2213 33.5189 27.6428 33.1961 27.9526C32.8735 28.2623 32.4369 28.436 31.9832 28.436H23.9969C23.634 28.436 23.3291 28.1517 23.3289 27.7896C23.3289 27.4273 23.634 27.1431 23.9969 27.1431H31.9832C32.0867 27.143 32.1849 27.1035 32.2567 27.0347C32.3277 26.9664 32.3661 26.8745 32.3661 26.7808V22.7173C32.3658 20.2936 30.3164 18.3188 27.7762 18.3188C27.1055 18.3189 26.4689 18.4564 25.8954 18.7036C25.5635 18.8469 25.1695 18.7065 25.0164 18.3804H25.0155C24.8612 18.0505 25.0179 17.6671 25.3524 17.5229L25.6336 17.4097C26.2984 17.1619 27.0217 17.0259 27.7772 17.0259Z" fill="white" stroke="white" stroke-width="0.284326"/>
<path d="M6.06706 7.07764C8.72561 7.07764 10.8942 9.15098 10.8942 11.7163C10.8941 14.2815 8.72553 16.354 6.06706 16.354C3.40883 16.3538 1.24007 14.2814 1.23991 11.7163C1.23991 9.15112 3.40875 7.07788 6.06706 7.07764ZM6.06706 8.37061C4.13429 8.37085 2.57585 9.87573 2.57585 11.7163C2.57601 13.5571 4.1344 15.0618 6.06706 15.062C7.99959 15.062 9.55909 13.5573 9.55925 11.7163C9.55925 9.87557 7.99969 8.37061 6.06706 8.37061Z" fill="white" stroke="white" stroke-width="0.284326"/>
<path d="M6.06754 17.0259C7.01962 17.0259 7.91948 17.2416 8.71695 17.6255C9.04583 17.7835 9.18446 18.1736 9.01578 18.4966C8.84897 18.8159 8.44864 18.94 8.1232 18.7837C7.50509 18.4863 6.80609 18.3188 6.06656 18.3188C3.52646 18.3189 1.47794 20.2936 1.47769 22.7173V26.7808C1.47769 26.8746 1.51601 26.9664 1.58707 27.0347C1.65883 27.1035 1.75704 27.1431 1.8605 27.1431H9.84683C10.2097 27.1431 10.5138 27.4273 10.5138 27.7896C10.5137 28.1517 10.2097 28.436 9.84683 28.436H1.8605C1.4068 28.436 0.970307 28.2623 0.647614 27.9526C0.324835 27.6428 0.141754 27.2213 0.141754 26.7808V22.7173C0.141999 19.5686 2.8011 17.0259 6.06754 17.0259Z" fill="white" stroke="white" stroke-width="0.284326"/>
<path d="M16.9219 0.141602C20.374 0.141702 23.1865 2.83321 23.1865 6.16016C23.1865 9.4871 20.374 12.1786 16.9219 12.1787C13.4697 12.1787 10.6563 9.48717 10.6563 6.16016C10.6563 2.83315 13.4697 0.141602 16.9219 0.141602ZM16.9219 1.43457C14.1956 1.43457 11.9922 3.55774 11.9922 6.16016C11.9922 8.76258 14.1956 10.8857 16.9219 10.8857C19.6481 10.8856 21.8516 8.76252 21.8516 6.16016C21.8516 3.5578 19.6481 1.43467 16.9219 1.43457Z" fill="white" stroke="white" stroke-width="0.284326"/>
<path d="M16.922 13.5283C21.192 13.5283 24.6641 16.8521 24.6642 20.9639V27.7891C24.6642 28.1514 24.3592 28.4355 23.9962 28.4355H9.8468C9.48426 28.4355 9.17883 28.1514 9.17883 27.7891C9.17895 27.4268 9.48433 27.1426 9.8468 27.1426H23.3292V20.9639C23.3291 17.577 20.4658 14.8213 16.922 14.8213H16.921C13.3774 14.8214 10.5149 17.5771 10.5148 20.9639V25.8418C10.5148 26.2041 10.2098 26.4883 9.8468 26.4883C9.48426 26.4883 9.17883 26.2041 9.17883 25.8418V20.9639C9.17893 16.8521 12.6511 13.5285 16.921 13.5283H16.922Z" fill="white" stroke="white" stroke-width="0.284326"/>
</svg>
