<svg width="17" height="17" viewBox="0 0 17 17" fill="none" xmlns="http://www.w3.org/2000/svg">
<path d="M15.8343 14.4787C16.2019 14.8463 16.2019 15.4424 15.8343 15.8112C15.654 15.9832 15.4172 16.0822 15.1675 16.0869C14.9177 16.0869 14.6785 15.9879 14.5018 15.8112L8.055 9.36437L1.60817 15.8112C1.43144 15.9879 1.19228 16.0869 0.94252 16.0869C0.692754 16.0822 0.455938 15.9832 0.275698 15.8112C-0.0918995 15.4424 -0.0918995 14.8463 0.275698 14.4787L6.72253 8.03188L0.275698 1.58504C-0.0694901 1.21392 -0.06008 0.635465 0.299261 0.276131C0.658603 -0.083203 1.23708 -0.0926433 1.60817 0.252568L8.05501 6.6994L14.5018 0.252568C14.873 -0.0926207 15.4514 -0.0832106 15.8108 0.276131C16.1701 0.635472 16.1795 1.21395 15.8343 1.58504L9.38748 8.03188L15.8343 14.4787Z" fill="white"/>
</svg>
