<svg width="18" height="19" viewBox="0 0 18 19" fill="none" xmlns="http://www.w3.org/2000/svg">
<path d="M13.1332 0.050293C13.4754 0.050293 13.7502 0.344517 13.7504 0.699707V3.02393L14.1927 3.09326C15.8812 3.3492 17.1496 4.90084 17.1498 6.69971V14.5005C17.1496 16.5115 15.6057 18.1499 13.6996 18.1499H3.50037C1.59424 18.1499 0.0503832 16.5115 0.0501709 14.5005V6.69971C0.0503192 4.90212 1.32095 3.34947 3.0072 3.09326L3.44958 3.02393V0.699707C3.44979 0.34453 3.72452 0.050293 4.06677 0.050293C4.40896 0.050369 4.68278 0.344564 4.68298 0.699707V3.05029H7.98376V0.699707C7.98397 0.34454 8.25774 0.0503088 8.59998 0.050293C8.94223 0.050293 9.21598 0.344518 9.21619 0.699707V3.05029H12.517V0.699707C12.5172 0.344596 12.791 0.0504013 13.1332 0.050293ZM1.28357 14.5005C1.28378 15.7985 2.2812 16.8501 3.50037 16.8501H13.6996C14.9188 16.8501 15.9162 15.7985 15.9164 14.5005V9.75049H1.28357V14.5005ZM3.50037 4.3501C2.28117 4.3501 1.28373 5.40167 1.28357 6.69971V8.44971H15.9164V6.69971C15.9162 5.40167 14.9188 4.3501 13.6996 4.3501H3.50037Z" fill="black" stroke="black" stroke-width="0.1"/>
</svg>
