<svg width="40" height="40" viewBox="0 0 40 40" fill="none" xmlns="http://www.w3.org/2000/svg">
<path d="M21 5.5C21 7.5 19 7.5 19 5.5C19 3.5 21 3.5 21 5.5Z" fill="white"/>
<path d="M21 33.5C21 35.5 19 35.5 19 33.5C19 31.5 21 31.5 21 33.5Z" fill="white"/>
<path d="M20 0C8.97514 0 0 8.97514 0 20C0 31.0249 8.97514 40 20 40C31.0249 40 40 31.0249 40 20C40 8.97514 31.0249 0 20 0ZM20 37.9611C10.088 37.9611 2.03712 29.8981 2.03712 19.9982C2.03712 10.1001 10.088 2.03712 20 2.03712C29.912 2.03712 37.9629 10.1001 37.9629 20C37.9629 29.8999 29.8999 37.9629 20 37.9629V37.9611Z" fill="white"/>
<path d="M20 15C17.2478 15 15 17.2356 15 20C15 22.7644 17.2356 25 20 25C22.7644 25 25 22.7644 25 20C25 17.2356 22.7644 15 20 15ZM20 22.9973C18.3535 22.9973 17.0025 21.6584 17.0025 19.9999C17.0025 18.3413 18.3414 17.0024 20 17.0024C21.6586 17.0024 22.9975 18.3413 22.9975 19.9999C22.9975 21.6584 21.6586 22.9973 20 22.9973Z" fill="white"/>
<path d="M33.8922 19C33.284 19 32.7974 19.4356 32.7974 19.9801C32.7974 24.8076 29.608 29.1754 24.6603 31.1122C24.1053 31.33 23.8487 31.9102 24.0919 32.4071C24.3352 32.9159 24.9967 33.1337 25.5384 32.9159C31.2825 30.6647 35 25.5955 35 19.9804C35 19.4359 34.5134 19.0003 33.9052 19.0003L33.8922 19Z" fill="white"/>
<path d="M15.9213 7.59169C15.6775 7.09434 15.0278 6.86437 14.4714 7.08239C8.72699 9.33586 5 14.4101 5 20.0189C5 20.564 5.48776 21 6.09747 21C6.70717 21 7.19493 20.564 7.19493 20.0189C7.19493 15.1985 10.3921 10.8263 15.3381 8.88804C15.8945 8.67002 16.1517 8.08921 15.9078 7.59182L15.9213 7.59169Z" fill="white"/>
</svg>
