<svg width="15" height="15" viewBox="0 0 15 15" fill="none" xmlns="http://www.w3.org/2000/svg">
<path d="M7.875 2.06274C7.875 2.81274 7.125 2.81274 7.125 2.06274C7.125 1.31274 7.875 1.31274 7.875 2.06274Z" fill="black"/>
<path d="M7.875 12.5625C7.875 13.3125 7.125 13.3125 7.125 12.5625C7.125 11.8125 7.875 11.8125 7.875 12.5625Z" fill="black"/>
<path d="M7.5 0C3.36568 0 0 3.36568 0 7.5C0 11.6343 3.36568 15 7.5 15C11.6343 15 15 11.6343 15 7.5C15 3.36568 11.6343 0 7.5 0ZM7.5 14.2354C3.78299 14.2354 0.763922 11.2118 0.763922 7.49933C0.763922 3.78755 3.78299 0.763922 7.5 0.763922C11.217 0.763922 14.2361 3.78755 14.2361 7.5C14.2361 11.2125 11.2125 14.2361 7.5 14.2361V14.2354Z" fill="black"/>
<path d="M7.5 5.625C6.46793 5.625 5.625 6.46335 5.625 7.5C5.625 8.53665 6.46335 9.375 7.5 9.375C8.53665 9.375 9.375 8.53665 9.375 7.5C9.375 6.46335 8.53665 5.625 7.5 5.625ZM7.5 8.624C6.88257 8.624 6.37595 8.12191 6.37595 7.49995C6.37595 6.87799 6.87804 6.3759 7.5 6.3759C8.12196 6.3759 8.62405 6.87799 8.62405 7.49995C8.62405 8.12191 8.12196 8.624 7.5 8.624Z" fill="black"/>
<path d="M12.7096 7.12524C12.4815 7.12524 12.299 7.2886 12.299 7.49279C12.299 9.30308 11.103 10.941 9.2476 11.6673C9.03948 11.749 8.94324 11.9666 9.03448 12.1529C9.12571 12.3437 9.37376 12.4254 9.5769 12.3437C11.7309 11.4995 13.125 9.59854 13.125 7.49291C13.125 7.28871 12.9425 7.12536 12.7144 7.12536L12.7096 7.12524Z" fill="black"/>
<path d="M5.9705 2.84688C5.87905 2.66038 5.63541 2.57414 5.42677 2.6559C3.27262 3.50095 1.875 5.40378 1.875 7.50709C1.875 7.71148 2.05791 7.875 2.28655 7.875C2.51519 7.875 2.6981 7.71148 2.6981 7.50709C2.6981 5.69942 3.89703 4.05985 5.7518 3.33302C5.96043 3.25126 6.05689 3.03346 5.96544 2.84693L5.9705 2.84688Z" fill="black"/>
</svg>
