<svg width="19" height="17" viewBox="0 0 19 17" fill="none" xmlns="http://www.w3.org/2000/svg">
<path d="M0.729397 3.47952H3.10278C3.42272 4.64465 4.488 5.50689 5.75411 5.50689C7.02022 5.50689 8.08663 4.64694 8.40543 3.47952H17.2898C17.6902 3.47952 18.0158 3.15392 18.0158 2.75344C18.0158 2.35297 17.6902 2.02736 17.2898 2.02736H8.40543C8.08549 0.85997 7.02022 0 5.75411 0C4.488 0 3.42159 0.859941 3.10278 2.02736H0.732795C0.332317 2.02736 0.00671387 2.35297 0.00671387 2.75344C0.00671387 3.15392 0.332317 3.47952 0.732795 3.47952H0.729397ZM5.75417 1.4499C6.47118 1.4499 7.05545 2.03416 7.05545 2.75118C7.05545 3.4682 6.47118 4.05246 5.75417 4.05246C5.03715 4.05246 4.45288 3.4682 4.45288 2.75118C4.45288 2.03416 5.03715 1.4499 5.75417 1.4499Z" fill="#0935C6"/>
<path d="M0.729397 14.0315H3.10278C3.42272 15.1967 4.488 16.0589 5.75411 16.0589C7.02022 16.0589 8.08663 15.1989 8.40543 14.0315H17.2898C17.6902 14.0315 18.0158 13.7059 18.0158 13.3054C18.0158 12.905 17.6902 12.5794 17.2898 12.5794H8.40543C8.08549 11.412 7.02022 10.552 5.75411 10.552C4.488 10.552 3.42159 11.4119 3.10278 12.5794H0.732795C0.332317 12.5794 0.00671387 12.905 0.00671387 13.3054C0.00671387 13.7059 0.332317 14.0315 0.732795 14.0315H0.729397ZM5.75417 12.0042C6.47118 12.0042 7.05545 12.5884 7.05545 13.3054C7.05545 14.0225 6.47118 14.6067 5.75417 14.6067C5.03715 14.6067 4.45288 14.0225 4.45288 13.3054C4.45288 12.5884 5.03715 12.0042 5.75417 12.0042Z" fill="#0935C6"/>
<path d="M0.729479 8.75369H9.6138C9.93374 9.92109 10.999 10.7811 12.2651 10.7811C13.5312 10.7811 14.5976 9.92111 14.9165 8.75369H17.2864C17.6869 8.75369 18.0125 8.42809 18.0125 8.02761C18.0125 7.62714 17.6869 7.30153 17.2864 7.30153H14.9131C14.5931 6.1364 13.5278 5.27417 12.2617 5.27417C10.9956 5.27417 9.92921 6.13411 9.6104 7.30153H0.726081C0.325604 7.30153 0 7.62714 0 8.02761C0 8.42809 0.325604 8.75369 0.726081 8.75369H0.729479ZM12.2663 6.72633C12.9833 6.72633 13.5676 7.31059 13.5676 8.02761C13.5676 8.74463 12.9833 9.32889 12.2663 9.32889C11.5493 9.32889 10.965 8.74463 10.965 8.02761C10.965 7.31059 11.5493 6.72633 12.2663 6.72633Z" fill="#0935C6"/>
</svg>
