<svg width="29" height="29" viewBox="0 0 29 29" fill="none" xmlns="http://www.w3.org/2000/svg">
<path d="M3.11356 29H25.8861C26.7116 28.9992 27.5031 28.6709 28.0868 28.0871C28.6705 27.5034 28.9988 26.712 28.9997 25.8864V3.11388C28.9989 2.28834 28.6706 1.49683 28.0869 0.91305C27.5031 0.329269 26.7117 0.000900915 25.8861 0H3.11356C2.28801 0.000900915 1.49654 0.329269 0.912821 0.91305C0.329101 1.49683 0.000815069 2.28834 0 3.11388V25.8864C0.000827437 26.712 0.329128 27.5034 0.912854 28.0871C1.49658 28.6709 2.28805 28.9992 3.11356 29ZM1.32157 3.11388C1.32209 2.63875 1.51105 2.18322 1.84699 1.84722C2.18293 1.51122 2.63842 1.32218 3.11356 1.32157H25.8861C26.3612 1.32218 26.8167 1.51122 27.1527 1.84722C27.4886 2.18322 27.6776 2.63875 27.6781 3.11388V25.8864C27.6775 26.3615 27.4885 26.817 27.1526 27.1529C26.8167 27.4889 26.3612 27.6778 25.8861 27.6784H3.11356C2.63847 27.6778 2.18302 27.4889 1.84708 27.1529C1.51115 26.817 1.32216 26.3615 1.32157 25.8864V3.11388Z" fill="white"/>
<path d="M6.37537 22.3851C6.43175 22.4908 6.5158 22.5793 6.61854 22.641C6.72129 22.7027 6.83887 22.7354 6.95872 22.7355H23.6648C23.7809 22.7354 23.8948 22.7048 23.9953 22.6467C24.0958 22.5887 24.1791 22.5052 24.2371 22.4046C24.295 22.3041 24.3255 22.1901 24.3254 22.0741C24.3253 21.958 24.2947 21.8441 24.2366 21.7436L18.6676 12.1303C18.6118 12.0341 18.5327 11.9536 18.4375 11.8961C18.3423 11.8387 18.2341 11.8061 18.123 11.8015C18.0118 11.7962 17.901 11.8193 17.8013 11.8689C17.7016 11.9184 17.6162 11.9926 17.5532 12.0845L14.3467 16.6955L11.8611 14.848C11.7893 14.7946 11.7076 14.7564 11.6207 14.7356C11.5338 14.7148 11.4435 14.7118 11.3554 14.7269C11.2674 14.742 11.1833 14.7748 11.1082 14.8233C11.0332 14.8719 10.9688 14.9351 10.9189 15.0093L6.41087 21.7056C6.34376 21.8049 6.305 21.9207 6.29875 22.0404C6.2925 22.1601 6.31899 22.2793 6.37537 22.3851ZM11.6281 16.3219L14.1054 18.1629C14.1764 18.2157 14.2574 18.2538 14.3434 18.2747C14.4295 18.2957 14.5189 18.2991 14.6063 18.2848C14.6937 18.2706 14.7773 18.2389 14.8522 18.1917C14.9271 18.1444 14.9918 18.0826 15.0424 18.0099L18.0449 13.6919L22.5181 21.4139H8.20028L11.6281 16.3219Z" fill="white"/>
<path d="M7.55556 11.9959C7.9485 11.996 8.33266 11.8795 8.65943 11.6613C8.9862 11.4431 9.24092 11.1328 9.39137 10.7698C9.54182 10.4068 9.58124 10.0074 9.50465 9.62194C9.42806 9.23653 9.2389 8.88249 8.96109 8.60458C8.68328 8.32668 8.3293 8.13741 7.94391 8.06069C7.55852 7.98398 7.15904 8.02327 6.79599 8.1736C6.43293 8.32393 6.12261 8.57855 5.90427 8.90525C5.68593 9.23195 5.56937 9.61606 5.56934 10.009C5.56988 10.5357 5.7793 11.0406 6.15165 11.4131C6.524 11.7856 7.02889 11.9952 7.55556 11.9959ZM7.55556 9.34403C7.68714 9.34393 7.81579 9.38287 7.92524 9.4559C8.03469 9.52893 8.12002 9.63279 8.17043 9.75433C8.22084 9.87587 8.23407 10.0096 8.20845 10.1387C8.18283 10.2678 8.1195 10.3863 8.02649 10.4794C7.93347 10.5724 7.81494 10.6358 7.68589 10.6615C7.55684 10.6872 7.42307 10.674 7.30151 10.6237C7.17995 10.5733 7.07605 10.4881 7.00296 10.3786C6.92987 10.2692 6.89087 10.1406 6.89091 10.009C6.89122 9.8328 6.96134 9.6639 7.08591 9.53927C7.21048 9.41464 7.37935 9.34444 7.55556 9.34403Z" fill="white"/>
</svg>
