<svg width="22" height="22" viewBox="0 0 22 22" fill="none" xmlns="http://www.w3.org/2000/svg">
<path d="M2.36201 22H19.6377C20.264 21.9994 20.8644 21.7503 21.3072 21.3075C21.7501 20.8647 21.9991 20.2642 21.9998 19.638V2.36226C21.9991 1.73598 21.7501 1.13553 21.3073 0.692658C20.8644 0.249791 20.264 0.000683453 19.6377 0H2.36201C1.73573 0.000683453 1.13531 0.249791 0.692485 0.692658C0.249663 1.13553 0.000618328 1.73598 0 2.36226V19.638C0.000627711 20.2642 0.249683 20.8647 0.69251 21.3075C1.13534 21.7503 1.73576 21.9994 2.36201 22ZM1.00257 2.36226C1.00297 2.00181 1.14631 1.65624 1.40117 1.40134C1.65602 1.14644 2.00156 1.00303 2.36201 1.00257H19.6377C19.9982 1.00303 20.3437 1.14644 20.5986 1.40134C20.8534 1.65624 20.9968 2.00181 20.9972 2.36226V19.638C20.9967 19.9984 20.8534 20.3439 20.5985 20.5988C20.3437 20.8536 19.9981 20.997 19.6377 20.9974H2.36201C2.0016 20.997 1.65608 20.8536 1.40124 20.5988C1.14639 20.3439 1.00302 19.9984 1.00257 19.638V2.36226Z" fill="#141414"/>
<path d="M4.83664 16.9816C4.87941 17.0618 4.94317 17.129 5.02111 17.1758C5.09906 17.2226 5.18826 17.2474 5.27918 17.2474H17.9528C18.0408 17.2474 18.1273 17.2242 18.2035 17.1801C18.2797 17.1361 18.343 17.0727 18.3869 16.9965C18.4309 16.9202 18.454 16.8337 18.4539 16.7457C18.4538 16.6576 18.4306 16.5712 18.3865 16.495L14.1618 9.20214C14.1195 9.12918 14.0594 9.06808 13.9872 9.02449C13.915 8.98089 13.8329 8.95621 13.7486 8.95273C13.6643 8.94865 13.5802 8.96623 13.5046 9.0038C13.4289 9.04138 13.3641 9.09769 13.3164 9.16739L10.8839 12.6654L8.99819 11.2638C8.9438 11.2233 8.88175 11.1943 8.81582 11.1786C8.74989 11.1628 8.68144 11.1605 8.61462 11.172C8.5478 11.1834 8.484 11.2083 8.42708 11.2451C8.37015 11.2819 8.3213 11.3299 8.28346 11.3862L4.86357 16.4661C4.81266 16.5415 4.78326 16.6293 4.77851 16.7201C4.77377 16.811 4.79387 16.9014 4.83664 16.9816ZM8.82147 12.3819L10.7008 13.7786C10.7547 13.8187 10.8161 13.8475 10.8814 13.8634C10.9467 13.8793 11.0145 13.8819 11.0808 13.8711C11.1471 13.8603 11.2105 13.8362 11.2674 13.8004C11.3242 13.7646 11.3732 13.7177 11.4116 13.6625L13.6894 10.3868L17.0829 16.2448H6.22105L8.82147 12.3819Z" fill="#141414"/>
<path d="M5.73189 9.10026C6.02998 9.10033 6.32141 9.012 6.56931 8.84644C6.8172 8.68088 7.01044 8.44553 7.12457 8.17015C7.2387 7.89476 7.26861 7.59172 7.21051 7.29934C7.15241 7.00695 7.0089 6.73837 6.79815 6.52755C6.5874 6.31673 6.31886 6.17314 6.0265 6.11494C5.73414 6.05674 5.43108 6.08655 5.15566 6.20059C4.88024 6.31464 4.64482 6.5078 4.47918 6.75564C4.31354 7.00348 4.22512 7.29488 4.2251 7.59298C4.22551 7.99252 4.38438 8.37559 4.66685 8.65815C4.94933 8.94072 5.33234 9.09971 5.73189 9.10026ZM5.73189 7.08851C5.8317 7.08843 5.9293 7.11797 6.01233 7.17337C6.09536 7.22878 6.1601 7.30757 6.19834 7.39977C6.23658 7.49197 6.24662 7.59344 6.22719 7.69135C6.20775 7.78926 6.15971 7.8792 6.08914 7.94981C6.01858 8.02041 5.92866 8.06849 5.83076 8.08798C5.73286 8.10746 5.63138 8.09747 5.53916 8.05928C5.44694 8.02108 5.36812 7.95639 5.31267 7.87338C5.25723 7.79038 5.22764 7.6928 5.22767 7.59298C5.22791 7.4593 5.2811 7.33117 5.3756 7.23662C5.4701 7.14207 5.59821 7.08882 5.73189 7.08851Z" fill="#141414"/>
</svg>
