<svg width="30" height="30" viewBox="0 0 30 30" fill="none" xmlns="http://www.w3.org/2000/svg">
<path d="M28.3002 0.806C27.7914 0.287767 27.1087 0 26.3826 0H2.70897C1.99944 0 1.30016 0.296873 0.791345 0.806C0.282534 1.32423 0 2.02867 0 2.75913V26.8608C0 27.6017 0.281248 28.2957 0.791345 28.8139C1.30016 29.3322 1.99178 29.6199 2.70897 29.6199H26.3724C27.0998 29.6199 27.7812 29.3335 28.29 28.8139C28.7989 28.2957 29.0814 27.6004 29.0814 26.8608L29.0827 2.75913C29.0827 2.03647 28.7912 1.32423 28.2913 0.806H28.3002ZM22.0002 1.5V14.056H18.1727V1.509H22.0002V1.5ZM11.6643 15.565C12.0734 15.565 12.4006 15.2317 12.4006 14.815V1.509H16.682V14.815C16.682 15.2317 17.0093 15.565 17.4184 15.565H19.336V28.121H9.74527V15.565H11.6643ZM10.9279 1.5V14.056H7.10044V1.509H10.9279V1.5ZM1.83724 27.759C1.60969 27.5272 1.47417 27.203 1.47417 26.8697L1.47289 2.759C1.47289 2.42567 1.60073 2.10143 1.83597 1.86967C2.07247 1.6379 2.38186 1.49987 2.70913 1.49987H5.60857V14.8059C5.60857 15.2225 5.93584 15.5559 6.34493 15.5559H8.26255V28.1119H2.70775C2.38048 28.1119 2.06214 27.9725 1.83459 27.7421L1.83724 27.759ZM27.61 26.8697C27.61 27.203 27.4732 27.5272 27.2469 27.759C27.0193 27.9908 26.701 28.1288 26.3737 28.1288H20.8189V15.5728H22.7366C23.1456 15.5728 23.4729 15.2395 23.4729 14.8228V1.50913H26.3724C26.6996 1.50913 27.018 1.63934 27.2455 1.87893C27.4731 2.11982 27.6086 2.43493 27.6086 2.76827V26.8699L27.61 26.8697Z" fill="white"/>
</svg>
