<svg width="21" height="22" viewBox="0 0 21 22" fill="none" xmlns="http://www.w3.org/2000/svg">
<path d="M17.9406 21.7382H2.70212C1.21196 21.7382 0 20.5261 0 19.0361V16.7714C0 13.7757 2.43682 11.3389 5.43253 11.3389H15.2104C18.2061 11.3389 20.643 13.7757 20.643 16.7714V19.0361C20.643 20.5262 19.4307 21.7382 17.9406 21.7382ZM5.4323 12.7882C3.23556 12.7882 1.44915 14.5745 1.44915 16.7713V19.036C1.44915 19.7271 2.0108 20.2888 2.70196 20.2888H17.9405C18.6316 20.2888 19.1933 19.7271 19.1933 19.036V16.7713C19.1933 14.5746 17.406 12.7882 15.2101 12.7882H5.4323Z" fill="black"/>
<path d="M10.3211 9.7866C7.62522 9.7866 5.43213 7.5935 5.43213 4.89672C5.43213 2.20086 7.62522 0.00683594 10.3211 0.00683594C13.0169 0.00683594 15.21 2.19993 15.21 4.89672C15.21 7.59258 13.0169 9.7866 10.3211 9.7866ZM10.3211 1.45808C8.4242 1.45808 6.88152 3.00166 6.88152 4.89857C6.88152 6.79546 8.4251 8.33907 10.3211 8.33907C12.218 8.33907 13.7607 6.79548 13.7607 4.89857C13.7607 3.00169 12.2171 1.45808 10.3211 1.45808Z" fill="black"/>
<path d="M16.7679 7.79362C16.6909 7.79362 16.613 7.78094 16.536 7.75557C16.1564 7.62784 15.9526 7.21658 16.0803 6.83703C16.5976 5.30159 16.4834 3.65302 15.7597 2.19436C15.5821 1.83563 15.7279 1.40081 16.0867 1.22327C16.4454 1.04481 16.8802 1.19247 17.0578 1.5503C17.9537 3.3557 18.0941 5.39847 17.4536 7.29984C17.3522 7.6024 17.0696 7.79353 16.767 7.79353L16.7679 7.79362Z" fill="black"/>
<path d="M19.2169 8.61855C19.1399 8.61855 19.0611 8.60587 18.9841 8.5805C18.6054 8.45187 18.4016 8.04061 18.5302 7.66196C19.2721 5.47248 19.1127 3.12364 18.0827 1.0465C17.9052 0.687771 18.0519 0.252955 18.4098 0.0754109C18.7685 -0.102138 19.2033 0.044612 19.3809 0.402439C20.5838 2.82651 20.7686 5.57037 19.9026 8.12686C19.8003 8.42851 19.5186 8.61965 19.216 8.61965L19.2169 8.61855Z" fill="black"/>
</svg>
