<svg width="31" height="33" viewBox="0 0 31 33" fill="none" xmlns="http://www.w3.org/2000/svg">
<path d="M26.9418 32.6442H4.05783C1.82003 32.6442 0 30.824 0 28.5864V25.1855C0 20.6868 3.65943 17.0273 8.15815 17.0273H22.8418C27.3406 17.0273 31 20.6868 31 25.1855V28.5864C31 30.8242 29.1795 32.6442 26.9418 32.6442ZM8.1578 19.2038C4.85892 19.2038 2.17623 21.8864 2.17623 25.1854V28.5862C2.17623 29.6242 3.01966 30.4676 4.05759 30.4676H26.9416C27.9795 30.4676 28.8229 29.6242 28.8229 28.5862V25.1854C28.8229 21.8865 26.139 19.2038 22.8414 19.2038H8.1578Z" fill="white"/>
<path d="M15.5001 14.6962C11.4516 14.6962 8.1582 11.4028 8.1582 7.35301C8.1582 3.30458 11.4516 0.00976562 15.5001 0.00976562C19.5485 0.00976562 22.8419 3.30318 22.8419 7.35301C22.8419 11.4014 19.5485 14.6962 15.5001 14.6962ZM15.5001 2.18913C12.6515 2.18913 10.3348 4.50716 10.3348 7.35579C10.3348 10.2044 12.6528 12.5225 15.5001 12.5225C18.3486 12.5225 20.6653 10.2044 20.6653 7.35579C20.6653 4.5072 18.3473 2.18913 15.5001 2.18913Z" fill="white"/>
<path d="M25.1793 11.7043C25.0637 11.7043 24.9467 11.6853 24.8311 11.6472C24.2611 11.4554 23.955 10.8378 24.1468 10.2678C24.9236 7.96197 24.7522 5.48629 23.6652 3.29578C23.3986 2.75707 23.6176 2.1041 24.1563 1.83748C24.6951 1.56949 25.348 1.79122 25.6147 2.32858C26.9601 5.03979 27.1709 8.10747 26.2091 10.9628C26.0568 11.4172 25.6323 11.7042 25.178 11.7042L25.1793 11.7043Z" fill="white"/>
<path d="M28.8574 12.9427C28.7418 12.9427 28.6234 12.9236 28.5078 12.8855C27.9392 12.6924 27.6331 12.0748 27.8263 11.5061C28.9404 8.21815 28.701 4.69084 27.1543 1.57155C26.8876 1.03284 27.108 0.379868 27.6454 0.113246C28.1841 -0.153383 28.8371 0.0669948 29.1037 0.604351C30.9102 4.24463 31.1878 8.36515 29.8872 12.2043C29.7335 12.6573 29.3105 12.9443 28.8561 12.9443L28.8574 12.9427Z" fill="white"/>
</svg>
