<svg width="19" height="49" viewBox="0 0 19 49" fill="none" xmlns="http://www.w3.org/2000/svg">
<path d="M12.1045 39.5942V40.8765H6.29295V39.5942H12.1045Z" fill="white" stroke="white" stroke-width="0.2"/>
<path d="M9.76054 0.100586C10.8101 0.100586 11.6615 0.953132 11.6873 2.01172H12.3377V3.29395H11.6893V3.71387H12.3377V4.99609H11.6893V5.41602H12.3377V6.69922H11.6893V7.12988L11.6756 7.15332L11.0711 8.15723V23.5225C13.8831 23.8309 16.0941 26.1106 16.2195 28.9668C16.2554 29.7816 16.1262 30.5754 15.8367 31.3242C15.1892 33.0049 15.4494 34.8229 16.5027 36.0889L16.5379 36.1309C17.7355 37.5329 18.3587 39.3293 18.2957 41.1934C18.1631 45.0969 14.8419 48.2683 10.8904 48.2686H7.5125C3.56096 48.2686 0.239311 45.0975 0.104294 41.1943V41.1934C0.0412816 39.3313 0.666416 37.5329 1.86406 36.1309L2.05742 35.8867C2.9764 34.6356 3.1768 32.9169 2.56328 31.3242C2.2738 30.5753 2.14457 29.7808 2.18047 28.9658C2.30608 26.1098 4.51702 23.831 7.3289 23.5225V8.25684L6.72246 7.13672L6.71074 7.11426V6.69922H6.0125V5.41602H6.71074V4.99609H6.0125V3.71387H6.71074V3.29395H6.0125V2.01172H6.71269C6.73845 0.95534 7.5878 0.100586 8.6375 0.100586H9.76054ZM11.0691 28.9912C11.5985 29.4998 11.9363 30.2142 11.9363 31.0117C11.9361 32.5472 10.7102 33.7988 9.19804 33.7988C7.68592 33.7988 6.45898 32.5473 6.45879 31.0117C6.45879 30.2121 6.79749 29.4997 7.32695 28.9912V24.8232C5.21811 25.1316 3.53291 26.8994 3.43925 29.0264C3.41085 29.6617 3.51273 30.2781 3.73613 30.8594C4.55974 32.9963 4.21128 35.3406 2.81523 36.9736C1.82689 38.1301 1.31191 39.6134 1.36504 41.1514C1.47535 44.3692 4.23079 46.9883 7.51054 46.9883H10.8836C14.1633 46.9883 16.9178 44.3671 17.0281 41.1514C17.0813 39.6134 16.5671 38.13 15.5789 36.9736C14.185 35.3408 13.8344 32.9966 14.658 30.8594C14.8833 30.2763 14.9833 29.6597 14.9549 29.0264C14.8632 26.8997 13.176 25.1317 11.0691 24.8232V28.9912ZM9.19804 29.502C8.38714 29.502 7.7225 30.1745 7.72246 31.0068C7.72246 31.8393 8.38512 32.5117 9.19804 32.5117C10.0109 32.5117 10.6736 31.8393 10.6736 31.0068C10.6736 30.1744 10.0109 29.502 9.19804 29.502ZM8.58965 28.2998C8.78294 28.2523 8.98539 28.2197 9.19804 28.2197H9.2C9.41217 28.2197 9.61451 28.2506 9.8084 28.2988V8.67383H8.58965V28.2998ZM8.63554 1.38477C8.27105 1.38477 7.97148 1.68771 7.97148 2.06348V6.78418L8.29863 7.39062H10.0506L10.4246 6.76953V2.06348C10.4246 1.6881 10.1234 1.38481 9.75859 1.38477H8.63554Z" fill="white" stroke="white" stroke-width="0.2"/>
</svg>
