<svg width="27" height="33" viewBox="0 0 27 33" fill="none" xmlns="http://www.w3.org/2000/svg">
<path d="M8.0884 22.7163C7.24586 22.0366 6.20111 21.6431 5.05525 21.6431C2.25801 21.6431 0 24.0399 0 27.0091C0 29.9783 2.25801 32.3752 5.05525 32.3752C7.85249 32.3752 10.1105 29.9783 10.1105 27.0091C10.1105 26.9018 10.1105 26.7587 10.0768 26.6514H10.1105V12.4135L24.9392 8.51413V15.5258C24.0967 14.8461 23.0519 14.4526 21.9061 14.4526C19.1088 14.4526 16.8508 16.8494 16.8508 19.8186C16.8508 22.7878 19.1088 25.1846 21.9061 25.1846C24.7033 25.1846 26.9613 22.7878 26.9613 19.8186V6.72545V6.26039V1.64559C26.9613 0.715473 26.2536 0 25.3773 0H25.2762L9.50387 4.11397C8.69503 4.18552 8.0884 4.90099 8.0884 5.75956V10.8394C8.0884 10.8752 8.0884 10.8752 8.0884 10.8752V22.7163ZM5.05525 30.193C3.37017 30.193 2.0221 28.762 2.0221 26.9733C2.0221 25.1846 3.37017 23.7537 5.05525 23.7537C6.74033 23.7537 8.0884 25.1846 8.0884 26.9733C8.0884 28.762 6.74033 30.193 5.05525 30.193ZM21.9061 23.0382C20.221 23.0382 18.8729 21.6073 18.8729 19.8186C18.8729 18.0299 20.221 16.599 21.9061 16.599C23.5912 16.599 24.9392 18.0299 24.9392 19.8186C24.9392 21.6073 23.5912 23.0382 21.9061 23.0382ZM10.1105 6.18884L24.9392 2.28951V6.26039V6.33194L10.1105 10.1955V6.18884Z" fill="white"/>
</svg>
