<svg width="12" height="30" viewBox="0 0 12 30" fill="none" xmlns="http://www.w3.org/2000/svg">
<path d="M6.08667 0.100342C6.74198 0.100342 7.27516 0.622449 7.3103 1.2771H7.71265V2.14331H7.31323V2.32495H7.71265V3.19214H7.31323V3.37378H7.71265V4.23999H7.31323V4.47729L7.29858 4.50171L6.93237 5.11011V14.5291C8.66589 14.7357 10.0247 16.1452 10.1023 17.9119C10.1246 18.4189 10.0452 18.9134 9.86499 19.3796C9.469 20.4077 9.63075 21.5177 10.2771 22.2859L10.2898 22.3005C11.0336 23.1713 11.4208 24.2868 11.3816 25.4441C11.2992 27.8689 9.23644 29.8374 6.78296 29.8376H4.70288C2.24922 29.8376 0.186009 27.8688 0.102295 25.4441C0.0631224 24.288 0.451387 23.1713 1.19507 22.3005C1.8514 21.5332 2.01749 20.4132 1.6189 19.3787C1.43886 18.9127 1.3593 18.4187 1.38159 17.9119C1.45921 16.1452 2.81804 14.7357 4.55151 14.5291V5.17163L4.18237 4.48999L4.17065 4.46753V4.23999H3.74097V3.37378H4.17065V3.19214H3.74097V2.32495H4.17065V2.14331H3.74097V1.2771H4.17358C4.2087 0.62387 4.73989 0.100462 5.39526 0.100342H6.08667ZM6.9314 17.9138C7.25724 18.233 7.46554 18.6768 7.46558 19.1726C7.46558 20.1387 6.69394 20.9273 5.74097 20.9275C4.78788 20.9275 4.01538 20.1389 4.01538 19.1726C4.01542 18.6751 4.22426 18.232 4.55054 17.9128V15.4089C3.37085 15.6009 2.41911 16.5431 2.25562 17.7087L2.23315 17.9519C2.21587 18.3378 2.27718 18.7122 2.41284 19.0652L2.50073 19.3152C2.89574 20.5734 2.65486 21.9151 1.8396 22.8689C1.23742 23.5735 0.92355 24.4774 0.955811 25.4148V25.4158C1.02321 27.3756 2.70174 28.9722 4.70093 28.9724H6.77905C8.77823 28.9722 10.4568 27.3744 10.5242 25.4158V25.4148C10.5564 24.4774 10.2426 23.5735 9.64038 22.8689C8.77217 21.8518 8.55526 20.3933 9.06714 19.0652C9.16982 18.7995 9.22976 18.5224 9.24585 18.238L9.24683 17.9519C9.19187 16.6768 8.19075 15.6144 6.9314 15.4089V17.9138ZM5.74097 18.282C5.26357 18.282 4.87102 18.6778 4.87085 19.1697C4.87085 19.6618 5.26227 20.0583 5.74097 20.0583C6.21954 20.0582 6.61108 19.6617 6.61108 19.1697C6.61091 18.6778 6.21943 18.2821 5.74097 18.282ZM5.40503 17.4568C5.51188 17.4331 5.62365 17.4148 5.74097 17.4148H5.74194C5.85907 17.4148 5.97051 17.4329 6.07788 17.4568V5.45581H5.40503V17.4568ZM5.39429 0.967529C5.19172 0.967529 5.02417 1.13658 5.02417 1.34741V4.24585L5.20972 4.5896H6.2439L6.45776 4.23315V1.34741C6.45776 1.13694 6.28861 0.967529 6.08569 0.967529H5.39429Z" fill="#215DB7" stroke="#215DB7" stroke-width="0.2"/>
</svg>
