<svg width="20" height="23" viewBox="0 0 20 23" fill="none" xmlns="http://www.w3.org/2000/svg">
<path d="M5.96685 15.7873C5.3453 15.3149 4.57459 15.0414 3.72928 15.0414C1.66575 15.0414 0 16.7072 0 18.7707C0 20.8343 1.66575 22.5 3.72928 22.5C5.79282 22.5 7.45856 20.8343 7.45856 18.7707C7.45856 18.6961 7.45856 18.5967 7.4337 18.5221H7.45856V8.62707L18.3978 5.91713V10.7901C17.7762 10.3177 17.0055 10.0442 16.1602 10.0442C14.0967 10.0442 12.4309 11.7099 12.4309 13.7735C12.4309 15.837 14.0967 17.5028 16.1602 17.5028C18.2238 17.5028 19.8895 15.837 19.8895 13.7735V4.67403V4.35083V1.14365C19.8895 0.497238 19.3674 0 18.721 0H18.6464L7.01105 2.85912C6.41437 2.90884 5.96685 3.40608 5.96685 4.00276V7.53315C5.96685 7.55801 5.96685 7.55801 5.96685 7.55801V15.7873ZM3.72928 20.9834C2.48619 20.9834 1.49171 19.9889 1.49171 18.7459C1.49171 17.5028 2.48619 16.5083 3.72928 16.5083C4.97238 16.5083 5.96685 17.5028 5.96685 18.7459C5.96685 19.9889 4.97238 20.9834 3.72928 20.9834ZM16.1602 16.011C14.9171 16.011 13.9227 15.0166 13.9227 13.7735C13.9227 12.5304 14.9171 11.5359 16.1602 11.5359C17.4033 11.5359 18.3978 12.5304 18.3978 13.7735C18.3978 15.0166 17.4033 16.011 16.1602 16.011ZM7.45856 4.30111L18.3978 1.59116V4.35083V4.40055L7.45856 7.08564V4.30111Z" fill="black"/>
</svg>
