<svg width="35" height="35" viewBox="0 0 35 35" fill="none" xmlns="http://www.w3.org/2000/svg">
<path d="M30.0867 0.100342C30.543 0.10041 30.9128 0.471155 30.9128 0.92749V6.98804C33.0406 9.83853 34.2996 13.3736 34.2996 17.2C34.2996 26.6374 26.6374 34.2996 17.2 34.2996C7.7625 34.2996 0.100342 26.6374 0.100342 17.2C0.100342 7.7625 7.7625 0.100342 17.2 0.100342C21.9038 0.100342 26.1658 2.00459 29.2595 5.08179V0.92749C29.2595 0.471112 29.6303 0.100342 30.0867 0.100342ZM17.199 1.75366C8.67317 1.75366 1.75087 8.67516 1.75073 17.2009C1.75073 25.7268 8.67309 32.6492 17.199 32.6492C25.7247 32.6489 32.6462 25.7267 32.6462 17.2009C32.6462 14.6364 32.0195 12.2176 30.9119 10.0876V14.8757C30.9118 15.0211 30.8733 15.1631 30.8005 15.2888L29.3083 17.8718L29.8875 18.2058C30.2827 18.434 30.4184 18.9405 30.1902 19.3357L28.0251 23.0867C27.797 23.4819 27.2905 23.6176 26.8953 23.3894L26.3162 23.0544L26.1033 23.4255C25.8751 23.8206 25.3695 23.9562 24.9744 23.7283C24.5792 23.5001 24.4434 22.9936 24.6716 22.5984L24.8835 22.2283L24.3054 21.8953C23.9103 21.6671 23.7748 21.1615 24.0027 20.7664L26.1687 17.0144C26.3969 16.6195 26.9025 16.4837 27.2976 16.7117L27.8767 17.0447L29.2585 14.6541V7.55151C26.426 4.01692 22.075 1.7538 17.199 1.75366ZM17.2 10.5613C20.8641 10.5613 23.8396 13.5358 23.8396 17.2C23.8396 20.8641 20.8641 23.8386 17.2 23.8386C13.5359 23.8385 10.5613 20.864 10.5613 17.2C10.5613 13.5359 13.5359 10.5614 17.2 10.5613ZM17.2 12.2146C14.4486 12.2147 12.2146 14.4486 12.2146 17.2C12.2146 19.9513 14.4486 22.1852 17.2 22.1853C19.9514 22.1853 22.1863 19.9514 22.1863 17.2C22.1862 14.4485 19.9514 12.2146 17.2 12.2146ZM25.8484 20.8767L26.4275 21.2107L27.0056 21.5447L28.3464 19.2234L27.1882 18.5564L25.8484 20.8767ZM17.2 13.6726C19.1461 13.6726 20.7273 15.2538 20.7273 17.2C20.7273 19.1461 19.1461 20.7273 17.2 20.7273C15.2539 20.7272 13.6726 19.1461 13.6726 17.2C13.6726 15.2538 15.2539 13.6727 17.2 13.6726ZM17.2 15.3259C16.1652 15.326 15.3259 16.1666 15.3259 17.2C15.3259 18.2347 16.1666 19.0739 17.2 19.074C18.2348 19.074 19.074 18.2334 19.074 17.2C19.074 16.1651 18.2334 15.3259 17.2 15.3259Z" fill="white" stroke="white" stroke-width="0.2"/>
</svg>
