<svg width="22" height="23" viewBox="0 0 22 23" fill="none" xmlns="http://www.w3.org/2000/svg">
<path d="M19.1853 0.100342C19.4954 0.10054 19.7467 0.352582 19.7468 0.662842V4.5144C21.0979 6.33439 21.8982 8.58949 21.8982 11.03C21.898 17.0617 17.0141 21.9597 10.9988 21.9597C4.98355 21.9596 0.10052 17.0617 0.100342 11.03C0.100342 4.99823 4.98344 0.100425 10.9988 0.100342C13.9666 0.100342 16.6571 1.29449 18.6238 3.22632V0.662842C18.6239 0.352461 18.8751 0.100342 19.1853 0.100342ZM10.9978 1.22632C5.60254 1.22644 1.22168 5.61873 1.22144 11.03C1.22144 16.4415 5.60239 20.8346 10.9978 20.8347C16.3933 20.8347 20.7742 16.4416 20.7742 11.03C20.7741 9.45719 20.4032 7.97119 19.7458 6.65308V9.54858C19.7458 9.64751 19.7201 9.74515 19.6707 9.83081L18.74 11.4451L19.0769 11.6394C19.3453 11.7948 19.4376 12.139 19.283 12.408L17.907 14.7976C17.752 15.0667 17.4081 15.1592 17.1394 15.0037L16.8035 14.8093L16.6863 15.0134C16.5313 15.2825 16.1874 15.3751 15.9187 15.2195C15.6504 15.0639 15.5588 14.7198 15.7136 14.4509L15.8298 14.2468L15.4939 14.0525C15.2255 13.897 15.134 13.5519 15.2888 13.283L16.6648 10.8933C16.8198 10.6246 17.1629 10.5321 17.4314 10.6873L17.7673 10.8816L18.6228 9.39624V4.89624C16.8298 2.65818 14.0793 1.22632 10.9978 1.22632ZM10.9988 6.7644C13.3468 6.7644 15.2527 8.67605 15.2527 11.03C15.2525 13.3839 13.3467 15.2957 10.9988 15.2957C8.65103 15.2955 6.74505 13.3838 6.74487 11.03C6.74487 8.67614 8.65092 6.76455 10.9988 6.7644ZM10.9988 7.89038C9.27151 7.89053 7.8689 9.29711 7.8689 11.03C7.86905 12.7628 9.2716 14.1695 10.9988 14.1697C12.7261 14.1697 14.1295 12.7629 14.1296 11.03C14.1296 9.29702 12.7262 7.89038 10.9988 7.89038ZM16.5417 13.3591L16.8787 13.5535L17.2146 13.7468L18.03 12.3308L17.3572 11.9431L16.5417 13.3591ZM10.9988 8.74683C12.2555 8.74683 13.2761 9.77045 13.2761 11.03C13.276 12.2895 12.2554 13.3132 10.9988 13.3132C9.74231 13.3131 8.72258 12.2894 8.72241 11.03C8.72241 9.77054 9.74221 8.74697 10.9988 8.74683ZM10.9988 9.87183C10.362 9.87197 9.84546 10.3915 9.84546 11.03C9.84562 11.6692 10.3629 12.1871 10.9988 12.1873C11.6356 12.1873 12.1529 11.6685 12.1531 11.03C12.1531 10.3906 11.6349 9.87183 10.9988 9.87183Z" fill="#215DB7" stroke="#215DB7" stroke-width="0.2"/>
</svg>
