<svg width="15" height="16" viewBox="0 0 15 16" fill="none" xmlns="http://www.w3.org/2000/svg">
<path d="M14.1501 0.411956C13.8957 0.147081 13.5544 0 13.1913 0H1.35448C0.99972 0 0.650078 0.151735 0.395673 0.411956C0.141267 0.67683 0 1.03687 0 1.41022V13.7289C0 14.1075 0.140624 14.4622 0.395673 14.7271C0.650078 14.992 0.995891 15.1391 1.35448 15.1391H13.1862C13.5499 15.1391 13.8906 14.9927 14.145 14.7271C14.3994 14.4622 14.5407 14.1069 14.5407 13.7289L14.5413 1.41022C14.5413 1.04086 14.3956 0.67683 14.1457 0.411956H14.1501ZM11.0001 0.766667V7.18418H9.08637V0.771267H11.0001V0.766667ZM5.83213 7.95544C6.03668 7.95544 6.20031 7.78507 6.20031 7.57211V0.771267H8.341V7.57211C8.341 7.78507 8.50464 7.95544 8.70919 7.95544H9.668V14.373H4.87263V7.95544H5.83213ZM5.46395 0.766667V7.18418H3.55022V0.771267H5.46395V0.766667ZM0.918622 14.1879C0.804844 14.0695 0.737084 13.9038 0.737084 13.7334L0.736444 1.41016C0.736444 1.23979 0.800364 1.07407 0.917983 0.955607C1.03624 0.837147 1.19093 0.766599 1.35456 0.766599H2.80428V7.56744C2.80428 7.78041 2.96792 7.95078 3.17247 7.95078H4.13128V14.3683H1.35388C1.19024 14.3683 1.03107 14.2971 0.917295 14.1793L0.918622 14.1879ZM13.805 13.7334C13.805 13.9038 13.7366 14.0695 13.6234 14.1879C13.5097 14.3064 13.3505 14.3769 13.1869 14.3769H10.4095V7.95943H11.3683C11.5728 7.95943 11.7365 7.78906 11.7365 7.5761V0.771335H13.1862C13.3498 0.771335 13.509 0.837885 13.6228 0.960344C13.7365 1.08346 13.8043 1.24452 13.8043 1.41489V13.7335L13.805 13.7334Z" fill="black"/>
</svg>
