<svg width="21" height="21" viewBox="0 0 21 21" fill="none" xmlns="http://www.w3.org/2000/svg">
<path d="M10.435 0C4.68173 0 0 4.68046 0 10.435C0 16.1895 4.68046 20.87 10.435 20.87C16.1895 20.87 20.87 16.1895 20.87 10.435C20.87 4.68046 16.1895 0 10.435 0ZM10.435 19.801C5.27068 19.801 1.07026 15.6006 1.07026 10.4363C1.07026 5.27068 5.27068 1.07026 10.435 1.07026C15.5993 1.07026 19.7997 5.27068 19.7997 10.435C19.7997 15.5993 15.5993 19.7997 10.435 19.7997V19.801Z" fill="black"/>
<path d="M8.625 10.435V14.9599L15.306 10.435L8.625 5.91016V10.435Z" fill="black"/>
</svg>
