<svg width="25" height="28" viewBox="0 0 25 28" fill="none" xmlns="http://www.w3.org/2000/svg">
<path d="M22.8548 6.03383H19.3669V5.26167C19.3669 5.13659 19.3173 5.01624 19.2286 4.92798L14.4389 0.138291C14.3502 0.0495582 14.2308 0 14.1052 0H7.52247C6.48741 0 5.64539 0.847682 5.64539 1.89029V6.03383H2.14422C0.961902 6.03383 0 6.99573 0 8.17805V17.7711C0 18.9534 0.961902 19.9153 2.14422 19.9153H5.64586V25.4909C5.64586 26.533 6.48788 27.3812 7.52294 27.3812H17.4771C18.5192 27.3812 19.3674 26.5335 19.3674 25.4909V19.9153H22.8558C24.0381 19.9153 25 18.9534 25 17.7711V8.17805C24.9991 6.99573 24.0372 6.03383 22.8548 6.03383ZM14.5772 1.61135L17.7551 4.78968H15.5231C14.9925 4.78968 14.5772 4.37434 14.5772 3.84383V1.61135ZM7.52247 0.943966H13.6332V3.84383C13.6332 4.88597 14.4809 5.73365 15.5231 5.73365H18.4229V10.3157H6.58983V1.89029C6.58983 1.36828 7.008 0.943966 7.52247 0.943966ZM17.4766 26.4367H7.52247C7.008 26.4367 6.58936 26.0124 6.58936 25.4904V17.0523H18.4229V25.4904C18.4229 26.0034 17.9896 26.4367 17.4766 26.4367ZM24.0551 17.7711C24.0551 18.4328 23.5166 18.9714 22.8548 18.9714H19.3669V17.0523H20.5544V16.1083H4.44561V17.0523H5.64586V18.9714H2.14422C1.4825 18.9714 0.943966 18.4328 0.943966 17.7711V8.17805C0.943966 7.51633 1.4825 6.9778 2.14422 6.9778H5.64586V10.3152H4.44561V11.2592H20.5544V10.3152H19.3669V6.9778H22.8553C23.517 6.9778 24.0556 7.51633 24.0556 8.17805L24.0551 17.7711Z" fill="black"/>
<path d="M15.8707 18.6357H9.12744V19.5797H15.8707V18.6357Z" fill="black"/>
<path d="M15.8707 21.2725H9.12744V22.2164H15.8707V21.2725Z" fill="black"/>
<path d="M12.4993 23.9082H9.12744V24.8522H12.4993V23.9082Z" fill="black"/>
</svg>
