<svg width="31" height="34" viewBox="0 0 31 34" fill="none" xmlns="http://www.w3.org/2000/svg">
<path d="M27.5557 7.27489H23.3503V6.3439C23.3503 6.1931 23.2906 6.04799 23.1836 5.94158L17.4087 0.166735C17.3018 0.0597515 17.1578 0 17.0064 0H9.06971C7.82176 0 6.80655 1.02204 6.80655 2.27909V7.27489H2.58525C1.15975 7.27489 0 8.43464 0 9.86014V21.4263C0 22.8518 1.15975 24.0116 2.58525 24.0116H6.80712V30.7339C6.80712 31.9904 7.82233 33.013 9.07028 33.013H21.0718C22.3283 33.013 23.3509 31.991 23.3509 30.7339V24.0116H27.5568C28.9823 24.0116 30.1421 22.8518 30.1421 21.4263V9.86014C30.1409 8.43464 28.9812 7.27489 27.5557 7.27489ZM17.5755 1.94278L21.407 5.77484H18.7159C18.0763 5.77484 17.5755 5.27407 17.5755 4.63444V1.94278ZM9.06971 1.13812H16.4374V4.63444C16.4374 5.89093 17.4594 6.91297 18.7159 6.91297H22.2122V12.4374H7.94525V2.27909C7.94525 1.64971 8.44943 1.13812 9.06971 1.13812ZM21.0712 31.8743H9.06971C8.44943 31.8743 7.94468 31.3627 7.94468 30.7333V20.5596H22.2122V30.7333C22.2122 31.3519 21.6898 31.8743 21.0712 31.8743ZM29.0028 21.4263C29.0028 22.2242 28.3535 22.8735 27.5557 22.8735H23.3503V20.5596H24.7821V19.4215H5.36V20.5596H6.80712V22.8735H2.58525C1.78742 22.8735 1.13812 22.2242 1.13812 21.4263V9.86014C1.13812 9.06231 1.78742 8.41301 2.58525 8.41301H6.80712V12.4369H5.36V13.575H24.7821V12.4369H23.3503V8.41301H27.5563C28.3541 8.41301 29.0034 9.06231 29.0034 9.86014L29.0028 21.4263Z" fill="white"/>
<path d="M19.1351 22.4697H11.0049V23.6079H19.1351V22.4697Z" fill="white"/>
<path d="M19.1351 25.6484H11.0049V26.7866H19.1351V25.6484Z" fill="white"/>
<path d="M15.0703 28.8262H11.0049V29.9643H15.0703V28.8262Z" fill="white"/>
</svg>
