<svg width="21" height="21" viewBox="0 0 21 21" fill="none" xmlns="http://www.w3.org/2000/svg">
<path d="M9.13301 0.149658C11.4343 0.149682 13.7352 1.02625 15.4875 2.77856C18.7987 6.09082 18.9779 11.3621 16.0295 14.8889L20.2121 19.0715C20.3633 19.2227 20.4484 19.4281 20.4484 19.6418C20.4484 19.8563 20.3634 20.0619 20.2121 20.2131C20.0612 20.3648 19.8554 20.4485 19.6418 20.4485C19.4277 20.4484 19.2229 20.3646 19.0715 20.2131L19.0275 20.1692V20.1672L14.8908 16.0286C11.3639 18.9786 6.09074 18.7986 2.77852 15.4866C-0.72598 11.9827 -0.725956 6.28206 2.77852 2.77759C4.53086 1.02632 6.83183 0.149658 9.13301 0.149658ZM9.13203 1.75317C7.24649 1.75319 5.36145 2.4759 3.91817 3.91919C1.03325 6.80435 1.03331 11.4607 3.91817 14.3459C6.80338 17.2311 11.4626 17.2312 14.3479 14.3469L14.3488 14.3479V14.3459C17.234 11.4607 17.2341 6.80443 14.3488 3.91919C12.9056 2.47588 11.0194 1.7532 9.13301 1.75317H9.13203Z" fill="black" stroke="black" stroke-width="0.3"/>
</svg>
