<svg width="27" height="14" viewBox="0 0 27 14" fill="none" xmlns="http://www.w3.org/2000/svg">
<mask id="path-1-outside-1_206_2324" maskUnits="userSpaceOnUse" x="-0.899902" y="-0.899902" width="28" height="15" fill="black">
<rect fill="white" x="-0.899902" y="-0.899902" width="28" height="15"/>
<path d="M0.100098 4.64466C0.100098 4.32772 0.344225 4.07127 0.645921 4.07127C0.947625 4.07127 1.19174 4.32773 1.19174 4.64466V8.55548C1.19174 8.87242 0.947617 9.12887 0.645921 9.12887C0.344217 9.12887 0.100098 8.87241 0.100098 8.55548V4.64466ZM7.05716 0.785455C7.05716 0.468513 7.30129 0.212064 7.60299 0.212064C7.90468 0.212064 8.14881 0.468521 8.14881 0.785455V2.7341C8.14881 3.05104 7.90468 3.30749 7.60299 3.30749C7.30129 3.30749 7.05716 3.05103 7.05716 2.7341V0.785455ZM7.05716 4.4285C7.05716 4.11155 7.30129 3.8551 7.60299 3.8551C7.90468 3.8551 8.14881 4.11156 8.14881 4.4285V4.54161C8.14881 4.85855 7.90468 5.115 7.60299 5.115C7.30129 5.115 7.05716 4.85854 7.05716 4.54161V4.4285ZM7.05716 6.23603C7.05716 5.91908 7.30129 5.66263 7.60299 5.66263C7.90468 5.66263 8.14881 5.91909 8.14881 6.23603V12.4146C8.14881 12.7315 7.90468 12.988 7.60299 12.988C7.30129 12.988 7.05716 12.7315 7.05716 12.4146V6.23603ZM4.73848 2.0712C4.73848 1.75426 4.98261 1.49781 5.2843 1.49781C5.586 1.49781 5.83012 1.75427 5.83012 2.0712V11.1279C5.83012 11.4449 5.586 11.7013 5.2843 11.7013C4.98261 11.7013 4.73848 11.4448 4.73848 11.1279V2.0712ZM2.41873 3.35797C2.41873 3.04103 2.66286 2.78458 2.96455 2.78458C3.26625 2.78458 3.51038 3.04104 3.51038 3.35797V9.84217C3.51038 10.1591 3.26625 10.4156 2.96455 10.4156C2.66286 10.4156 2.41873 10.1591 2.41873 9.84217V3.35797ZM25.0084 4.64475C25.0084 4.32781 25.2526 4.07136 25.5543 4.07136C25.856 4.07136 26.1001 4.32782 26.1001 4.64475V8.55556C26.1001 8.87251 25.856 9.12896 25.5543 9.12896C25.2526 9.12896 25.0084 8.8725 25.0084 8.55556V4.64475ZM18.0514 0.785541C18.0514 0.468599 18.2955 0.212149 18.5972 0.212149C18.8989 0.212149 19.143 0.468607 19.143 0.785541V6.96412C19.143 7.28106 18.8989 7.53751 18.5972 7.53751C18.2955 7.53751 18.0514 7.28105 18.0514 6.96412V0.785541ZM18.0514 8.65849C18.0514 8.34155 18.2955 8.0851 18.5972 8.0851C18.8989 8.0851 19.143 8.34156 19.143 8.65849V8.7716C19.143 9.08854 18.8989 9.34499 18.5972 9.34499C18.2955 9.34499 18.0514 9.08853 18.0514 8.7716V8.65849ZM18.0514 10.466C18.0514 10.1491 18.2955 9.89263 18.5972 9.89263C18.8989 9.89263 19.143 10.1491 19.143 10.466V12.4147C19.143 12.7316 18.8989 12.9881 18.5972 12.9881C18.2955 12.9881 18.0514 12.7316 18.0514 12.4147V10.466ZM20.3701 2.07243C20.3701 1.75549 20.6142 1.49904 20.9159 1.49904C21.2176 1.49904 21.4617 1.7555 21.4617 2.07243V11.1291C21.4617 11.4461 21.2176 11.7025 20.9159 11.7025C20.6142 11.7025 20.3701 11.4461 20.3701 11.1291V2.07243ZM22.6898 3.35921C22.6898 3.04227 22.9339 2.78582 23.2356 2.78582C23.5373 2.78582 23.7815 3.04227 23.7815 3.35921V9.8434C23.7815 10.1603 23.5373 10.4168 23.2356 10.4168C22.9339 10.4168 22.6898 10.1603 22.6898 9.8434V3.35921ZM11.186 9.30355C11.5975 9.30355 11.9835 9.39875 12.3139 9.56449V0.673489C12.3139 0.356547 12.5581 0.100098 12.8598 0.100098C13.0634 0.100098 13.2425 0.217689 13.3352 0.391266C13.9685 1.36557 14.7979 1.91434 15.4929 2.37351C17.0515 3.40383 18.0824 4.08809 16.4929 6.9506C16.3426 7.22386 16.0089 7.3168 15.7488 7.1589C15.6294 7.08611 15.5452 6.97188 15.5046 6.84308C15.0409 5.6291 14.6081 5.43311 14.1582 5.23042C13.913 5.11955 13.6625 5.00644 13.4066 4.81717V11.2007C13.4066 11.7562 13.1359 12.249 12.6988 12.595C12.3054 12.9075 11.7692 13.1001 11.1871 13.1001C10.6039 13.1001 10.0698 12.9075 9.67539 12.595C9.23829 12.2479 8.96751 11.7551 8.96751 11.2007C8.96751 10.6453 9.23829 10.1525 9.67539 9.80645C10.0688 9.49401 10.605 9.30138 11.1871 9.30138L11.186 9.30355ZM12.041 10.7214C11.8299 10.5534 11.5272 10.4492 11.186 10.4492C10.8449 10.4492 10.5421 10.5534 10.3311 10.7214C10.1637 10.8546 10.0582 11.026 10.0582 11.2018C10.0582 11.3776 10.1626 11.549 10.3311 11.6822C10.5421 11.8502 10.8449 11.9544 11.186 11.9544C11.5272 11.9544 11.83 11.8502 12.041 11.6822C12.2095 11.549 12.3139 11.3776 12.3139 11.2018C12.3139 11.026 12.2095 10.8546 12.041 10.7214ZM13.4056 2.1999V3.11374C13.8235 3.83719 14.2105 4.0119 14.5836 4.1799C15.0676 4.39828 15.5377 4.60994 16.0004 5.35358C16.3117 4.26952 15.72 3.87643 14.9119 3.34223C14.4407 3.03091 13.9152 2.68261 13.4045 2.19881L13.4056 2.1999Z"/>
</mask>
<path d="M0.100098 4.64466C0.100098 4.32772 0.344225 4.07127 0.645921 4.07127C0.947625 4.07127 1.19174 4.32773 1.19174 4.64466V8.55548C1.19174 8.87242 0.947617 9.12887 0.645921 9.12887C0.344217 9.12887 0.100098 8.87241 0.100098 8.55548V4.64466ZM7.05716 0.785455C7.05716 0.468513 7.30129 0.212064 7.60299 0.212064C7.90468 0.212064 8.14881 0.468521 8.14881 0.785455V2.7341C8.14881 3.05104 7.90468 3.30749 7.60299 3.30749C7.30129 3.30749 7.05716 3.05103 7.05716 2.7341V0.785455ZM7.05716 4.4285C7.05716 4.11155 7.30129 3.8551 7.60299 3.8551C7.90468 3.8551 8.14881 4.11156 8.14881 4.4285V4.54161C8.14881 4.85855 7.90468 5.115 7.60299 5.115C7.30129 5.115 7.05716 4.85854 7.05716 4.54161V4.4285ZM7.05716 6.23603C7.05716 5.91908 7.30129 5.66263 7.60299 5.66263C7.90468 5.66263 8.14881 5.91909 8.14881 6.23603V12.4146C8.14881 12.7315 7.90468 12.988 7.60299 12.988C7.30129 12.988 7.05716 12.7315 7.05716 12.4146V6.23603ZM4.73848 2.0712C4.73848 1.75426 4.98261 1.49781 5.2843 1.49781C5.586 1.49781 5.83012 1.75427 5.83012 2.0712V11.1279C5.83012 11.4449 5.586 11.7013 5.2843 11.7013C4.98261 11.7013 4.73848 11.4448 4.73848 11.1279V2.0712ZM2.41873 3.35797C2.41873 3.04103 2.66286 2.78458 2.96455 2.78458C3.26625 2.78458 3.51038 3.04104 3.51038 3.35797V9.84217C3.51038 10.1591 3.26625 10.4156 2.96455 10.4156C2.66286 10.4156 2.41873 10.1591 2.41873 9.84217V3.35797ZM25.0084 4.64475C25.0084 4.32781 25.2526 4.07136 25.5543 4.07136C25.856 4.07136 26.1001 4.32782 26.1001 4.64475V8.55556C26.1001 8.87251 25.856 9.12896 25.5543 9.12896C25.2526 9.12896 25.0084 8.8725 25.0084 8.55556V4.64475ZM18.0514 0.785541C18.0514 0.468599 18.2955 0.212149 18.5972 0.212149C18.8989 0.212149 19.143 0.468607 19.143 0.785541V6.96412C19.143 7.28106 18.8989 7.53751 18.5972 7.53751C18.2955 7.53751 18.0514 7.28105 18.0514 6.96412V0.785541ZM18.0514 8.65849C18.0514 8.34155 18.2955 8.0851 18.5972 8.0851C18.8989 8.0851 19.143 8.34156 19.143 8.65849V8.7716C19.143 9.08854 18.8989 9.34499 18.5972 9.34499C18.2955 9.34499 18.0514 9.08853 18.0514 8.7716V8.65849ZM18.0514 10.466C18.0514 10.1491 18.2955 9.89263 18.5972 9.89263C18.8989 9.89263 19.143 10.1491 19.143 10.466V12.4147C19.143 12.7316 18.8989 12.9881 18.5972 12.9881C18.2955 12.9881 18.0514 12.7316 18.0514 12.4147V10.466ZM20.3701 2.07243C20.3701 1.75549 20.6142 1.49904 20.9159 1.49904C21.2176 1.49904 21.4617 1.7555 21.4617 2.07243V11.1291C21.4617 11.4461 21.2176 11.7025 20.9159 11.7025C20.6142 11.7025 20.3701 11.4461 20.3701 11.1291V2.07243ZM22.6898 3.35921C22.6898 3.04227 22.9339 2.78582 23.2356 2.78582C23.5373 2.78582 23.7815 3.04227 23.7815 3.35921V9.8434C23.7815 10.1603 23.5373 10.4168 23.2356 10.4168C22.9339 10.4168 22.6898 10.1603 22.6898 9.8434V3.35921ZM11.186 9.30355C11.5975 9.30355 11.9835 9.39875 12.3139 9.56449V0.673489C12.3139 0.356547 12.5581 0.100098 12.8598 0.100098C13.0634 0.100098 13.2425 0.217689 13.3352 0.391266C13.9685 1.36557 14.7979 1.91434 15.4929 2.37351C17.0515 3.40383 18.0824 4.08809 16.4929 6.9506C16.3426 7.22386 16.0089 7.3168 15.7488 7.1589C15.6294 7.08611 15.5452 6.97188 15.5046 6.84308C15.0409 5.6291 14.6081 5.43311 14.1582 5.23042C13.913 5.11955 13.6625 5.00644 13.4066 4.81717V11.2007C13.4066 11.7562 13.1359 12.249 12.6988 12.595C12.3054 12.9075 11.7692 13.1001 11.1871 13.1001C10.6039 13.1001 10.0698 12.9075 9.67539 12.595C9.23829 12.2479 8.96751 11.7551 8.96751 11.2007C8.96751 10.6453 9.23829 10.1525 9.67539 9.80645C10.0688 9.49401 10.605 9.30138 11.1871 9.30138L11.186 9.30355ZM12.041 10.7214C11.8299 10.5534 11.5272 10.4492 11.186 10.4492C10.8449 10.4492 10.5421 10.5534 10.3311 10.7214C10.1637 10.8546 10.0582 11.026 10.0582 11.2018C10.0582 11.3776 10.1626 11.549 10.3311 11.6822C10.5421 11.8502 10.8449 11.9544 11.186 11.9544C11.5272 11.9544 11.83 11.8502 12.041 11.6822C12.2095 11.549 12.3139 11.3776 12.3139 11.2018C12.3139 11.026 12.2095 10.8546 12.041 10.7214ZM13.4056 2.1999V3.11374C13.8235 3.83719 14.2105 4.0119 14.5836 4.1799C15.0676 4.39828 15.5377 4.60994 16.0004 5.35358C16.3117 4.26952 15.72 3.87643 14.9119 3.34223C14.4407 3.03091 13.9152 2.68261 13.4045 2.19881L13.4056 2.1999Z" fill="#215DB7"/>
<path d="M0.100098 4.64466C0.100098 4.32772 0.344225 4.07127 0.645921 4.07127C0.947625 4.07127 1.19174 4.32773 1.19174 4.64466V8.55548C1.19174 8.87242 0.947617 9.12887 0.645921 9.12887C0.344217 9.12887 0.100098 8.87241 0.100098 8.55548V4.64466ZM7.05716 0.785455C7.05716 0.468513 7.30129 0.212064 7.60299 0.212064C7.90468 0.212064 8.14881 0.468521 8.14881 0.785455V2.7341C8.14881 3.05104 7.90468 3.30749 7.60299 3.30749C7.30129 3.30749 7.05716 3.05103 7.05716 2.7341V0.785455ZM7.05716 4.4285C7.05716 4.11155 7.30129 3.8551 7.60299 3.8551C7.90468 3.8551 8.14881 4.11156 8.14881 4.4285V4.54161C8.14881 4.85855 7.90468 5.115 7.60299 5.115C7.30129 5.115 7.05716 4.85854 7.05716 4.54161V4.4285ZM7.05716 6.23603C7.05716 5.91908 7.30129 5.66263 7.60299 5.66263C7.90468 5.66263 8.14881 5.91909 8.14881 6.23603V12.4146C8.14881 12.7315 7.90468 12.988 7.60299 12.988C7.30129 12.988 7.05716 12.7315 7.05716 12.4146V6.23603ZM4.73848 2.0712C4.73848 1.75426 4.98261 1.49781 5.2843 1.49781C5.586 1.49781 5.83012 1.75427 5.83012 2.0712V11.1279C5.83012 11.4449 5.586 11.7013 5.2843 11.7013C4.98261 11.7013 4.73848 11.4448 4.73848 11.1279V2.0712ZM2.41873 3.35797C2.41873 3.04103 2.66286 2.78458 2.96455 2.78458C3.26625 2.78458 3.51038 3.04104 3.51038 3.35797V9.84217C3.51038 10.1591 3.26625 10.4156 2.96455 10.4156C2.66286 10.4156 2.41873 10.1591 2.41873 9.84217V3.35797ZM25.0084 4.64475C25.0084 4.32781 25.2526 4.07136 25.5543 4.07136C25.856 4.07136 26.1001 4.32782 26.1001 4.64475V8.55556C26.1001 8.87251 25.856 9.12896 25.5543 9.12896C25.2526 9.12896 25.0084 8.8725 25.0084 8.55556V4.64475ZM18.0514 0.785541C18.0514 0.468599 18.2955 0.212149 18.5972 0.212149C18.8989 0.212149 19.143 0.468607 19.143 0.785541V6.96412C19.143 7.28106 18.8989 7.53751 18.5972 7.53751C18.2955 7.53751 18.0514 7.28105 18.0514 6.96412V0.785541ZM18.0514 8.65849C18.0514 8.34155 18.2955 8.0851 18.5972 8.0851C18.8989 8.0851 19.143 8.34156 19.143 8.65849V8.7716C19.143 9.08854 18.8989 9.34499 18.5972 9.34499C18.2955 9.34499 18.0514 9.08853 18.0514 8.7716V8.65849ZM18.0514 10.466C18.0514 10.1491 18.2955 9.89263 18.5972 9.89263C18.8989 9.89263 19.143 10.1491 19.143 10.466V12.4147C19.143 12.7316 18.8989 12.9881 18.5972 12.9881C18.2955 12.9881 18.0514 12.7316 18.0514 12.4147V10.466ZM20.3701 2.07243C20.3701 1.75549 20.6142 1.49904 20.9159 1.49904C21.2176 1.49904 21.4617 1.7555 21.4617 2.07243V11.1291C21.4617 11.4461 21.2176 11.7025 20.9159 11.7025C20.6142 11.7025 20.3701 11.4461 20.3701 11.1291V2.07243ZM22.6898 3.35921C22.6898 3.04227 22.9339 2.78582 23.2356 2.78582C23.5373 2.78582 23.7815 3.04227 23.7815 3.35921V9.8434C23.7815 10.1603 23.5373 10.4168 23.2356 10.4168C22.9339 10.4168 22.6898 10.1603 22.6898 9.8434V3.35921ZM11.186 9.30355C11.5975 9.30355 11.9835 9.39875 12.3139 9.56449V0.673489C12.3139 0.356547 12.5581 0.100098 12.8598 0.100098C13.0634 0.100098 13.2425 0.217689 13.3352 0.391266C13.9685 1.36557 14.7979 1.91434 15.4929 2.37351C17.0515 3.40383 18.0824 4.08809 16.4929 6.9506C16.3426 7.22386 16.0089 7.3168 15.7488 7.1589C15.6294 7.08611 15.5452 6.97188 15.5046 6.84308C15.0409 5.6291 14.6081 5.43311 14.1582 5.23042C13.913 5.11955 13.6625 5.00644 13.4066 4.81717V11.2007C13.4066 11.7562 13.1359 12.249 12.6988 12.595C12.3054 12.9075 11.7692 13.1001 11.1871 13.1001C10.6039 13.1001 10.0698 12.9075 9.67539 12.595C9.23829 12.2479 8.96751 11.7551 8.96751 11.2007C8.96751 10.6453 9.23829 10.1525 9.67539 9.80645C10.0688 9.49401 10.605 9.30138 11.1871 9.30138L11.186 9.30355ZM12.041 10.7214C11.8299 10.5534 11.5272 10.4492 11.186 10.4492C10.8449 10.4492 10.5421 10.5534 10.3311 10.7214C10.1637 10.8546 10.0582 11.026 10.0582 11.2018C10.0582 11.3776 10.1626 11.549 10.3311 11.6822C10.5421 11.8502 10.8449 11.9544 11.186 11.9544C11.5272 11.9544 11.83 11.8502 12.041 11.6822C12.2095 11.549 12.3139 11.3776 12.3139 11.2018C12.3139 11.026 12.2095 10.8546 12.041 10.7214ZM13.4056 2.1999V3.11374C13.8235 3.83719 14.2105 4.0119 14.5836 4.1799C15.0676 4.39828 15.5377 4.60994 16.0004 5.35358C16.3117 4.26952 15.72 3.87643 14.9119 3.34223C14.4407 3.03091 13.9152 2.68261 13.4045 2.19881L13.4056 2.1999Z" stroke="#215DB7" stroke-width="0.2" mask="url(#path-1-outside-1_206_2324)"/>
</svg>
