<svg width="35" height="18" viewBox="0 0 35 18" fill="none" xmlns="http://www.w3.org/2000/svg">
<mask id="path-1-outside-1_206_2401" maskUnits="userSpaceOnUse" x="-0.899994" y="-0.899902" width="36" height="19" fill="black">
<rect fill="white" x="-0.899994" y="-0.899902" width="36" height="19"/>
<path d="M0.100006 6.28071C0.100006 5.84967 0.41925 5.5009 0.813775 5.5009C1.20831 5.5009 1.52754 5.84968 1.52754 6.28071V11.5994C1.52754 12.0305 1.2083 12.3792 0.813775 12.3792C0.419239 12.3792 0.100006 12.0304 0.100006 11.5994V6.28071ZM9.19771 1.03218C9.19771 0.601142 9.51695 0.252371 9.91148 0.252371C10.306 0.252371 10.6252 0.601154 10.6252 1.03218V3.68234C10.6252 4.11338 10.306 4.46215 9.91148 4.46215C9.51695 4.46215 9.19771 4.11336 9.19771 3.68234V1.03218ZM9.19771 5.98672C9.19771 5.55568 9.51695 5.20691 9.91148 5.20691C10.306 5.20691 10.6252 5.55569 10.6252 5.98672V6.14055C10.6252 6.57159 10.306 6.92036 9.91148 6.92036C9.51695 6.92036 9.19771 6.57158 9.19771 6.14055V5.98672ZM9.19771 8.44496C9.19771 8.01392 9.51695 7.66515 9.91148 7.66515C10.306 7.66515 10.6252 8.01393 10.6252 8.44496V16.8478C10.6252 17.2789 10.306 17.6276 9.91148 17.6276C9.51695 17.6276 9.19771 17.2789 9.19771 16.8478V8.44496ZM6.16558 2.7808C6.16558 2.34975 6.48482 2.00098 6.87935 2.00098C7.27387 2.00098 7.59312 2.34977 7.59312 2.7808V15.0979C7.59312 15.529 7.27387 15.8777 6.87935 15.8777C6.48482 15.8777 6.16558 15.529 6.16558 15.0979V2.7808ZM3.13206 4.53081C3.13206 4.09977 3.45131 3.751 3.84583 3.751C4.24036 3.751 4.5596 4.09978 4.5596 4.53081V13.3493C4.5596 13.7804 4.24036 14.1291 3.84583 14.1291C3.45131 14.1291 3.13206 13.7803 3.13206 13.3493V4.53081ZM32.6725 6.28083C32.6725 5.84978 32.9917 5.50101 33.3862 5.50101C33.7808 5.50101 34.1 5.8498 34.1 6.28083V11.5995C34.1 12.0306 33.7808 12.3793 33.3862 12.3793C32.9917 12.3793 32.6725 12.0306 32.6725 11.5995V6.28083ZM23.5748 1.0323C23.5748 0.601259 23.894 0.252488 24.2885 0.252488C24.6831 0.252488 25.0023 0.601271 25.0023 1.0323V9.43517C25.0023 9.86621 24.6831 10.215 24.2885 10.215C23.894 10.215 23.5748 9.86619 23.5748 9.43517V1.0323ZM23.5748 11.7395C23.5748 11.3085 23.894 10.9597 24.2885 10.9597C24.6831 10.9597 25.0023 11.3085 25.0023 11.7395V11.8933C25.0023 12.3244 24.6831 12.6732 24.2885 12.6732C23.894 12.6732 23.5748 12.3244 23.5748 11.8933V11.7395ZM23.5748 14.1978C23.5748 13.7667 23.894 13.4179 24.2885 13.4179C24.6831 13.4179 25.0023 13.7667 25.0023 14.1978V16.8479C25.0023 17.2789 24.6831 17.6277 24.2885 17.6277C23.894 17.6277 23.5748 17.2789 23.5748 16.8479V14.1978ZM26.6069 2.78247C26.6069 2.35143 26.9261 2.00266 27.3207 2.00266C27.7152 2.00266 28.0344 2.35144 28.0344 2.78247V15.0996C28.0344 15.5306 27.7152 15.8794 27.3207 15.8794C26.9261 15.8794 26.6069 15.5306 26.6069 15.0996V2.78247ZM29.6404 4.53249C29.6404 4.10145 29.9597 3.75267 30.3542 3.75267C30.7487 3.75267 31.0679 4.10146 31.0679 4.53249V13.351C31.0679 13.782 30.7487 14.1308 30.3542 14.1308C29.9597 14.1308 29.6404 13.782 29.6404 13.351V4.53249ZM14.597 12.6168C15.1351 12.6168 15.6398 12.7463 16.0719 12.9717V0.87991C16.0719 0.448869 16.3912 0.100098 16.7857 0.100098C17.052 0.100098 17.2862 0.260022 17.4075 0.496086C18.2356 1.82114 19.3202 2.56746 20.2291 3.19194C22.2672 4.59318 23.6153 5.52377 21.5367 9.41678C21.3402 9.78841 20.9038 9.91481 20.5637 9.70007C20.4075 9.60107 20.2974 9.44572 20.2444 9.27056C19.638 7.61954 19.072 7.353 18.4837 7.07733C18.1631 6.92655 17.8354 6.77272 17.5009 6.51532V15.197C17.5009 15.9524 17.1468 16.6225 16.5752 17.0932C16.0608 17.5181 15.3596 17.7801 14.5984 17.7801C13.8358 17.7801 13.1373 17.5181 12.6215 17.0932C12.05 16.6211 11.6959 15.9509 11.6959 15.197C11.6959 14.4415 12.05 13.7714 12.6215 13.3007C13.136 12.8758 13.8372 12.6138 14.5984 12.6138L14.597 12.6168ZM15.7151 14.545C15.439 14.3165 15.0431 14.1749 14.597 14.1749C14.1509 14.1749 13.755 14.3165 13.479 14.545C13.2601 14.7262 13.1221 14.9593 13.1221 15.1984C13.1221 15.4375 13.2587 15.6705 13.479 15.8518C13.755 16.0803 14.1509 16.2219 14.597 16.2219C15.0431 16.2219 15.439 16.0803 15.7151 15.8518C15.9353 15.6706 16.0719 15.4375 16.0719 15.1984C16.0719 14.9593 15.9353 14.7263 15.7151 14.545ZM17.4995 2.95582V4.19865C18.0459 5.18254 18.552 5.42015 19.0399 5.64863C19.6728 5.94563 20.2876 6.23349 20.8927 7.24483C21.2997 5.77052 20.526 5.23592 19.4693 4.5094C18.8531 4.08601 18.1659 3.61231 17.4981 2.95434L17.4995 2.95582Z"/>
</mask>
<path d="M0.100006 6.28071C0.100006 5.84967 0.41925 5.5009 0.813775 5.5009C1.20831 5.5009 1.52754 5.84968 1.52754 6.28071V11.5994C1.52754 12.0305 1.2083 12.3792 0.813775 12.3792C0.419239 12.3792 0.100006 12.0304 0.100006 11.5994V6.28071ZM9.19771 1.03218C9.19771 0.601142 9.51695 0.252371 9.91148 0.252371C10.306 0.252371 10.6252 0.601154 10.6252 1.03218V3.68234C10.6252 4.11338 10.306 4.46215 9.91148 4.46215C9.51695 4.46215 9.19771 4.11336 9.19771 3.68234V1.03218ZM9.19771 5.98672C9.19771 5.55568 9.51695 5.20691 9.91148 5.20691C10.306 5.20691 10.6252 5.55569 10.6252 5.98672V6.14055C10.6252 6.57159 10.306 6.92036 9.91148 6.92036C9.51695 6.92036 9.19771 6.57158 9.19771 6.14055V5.98672ZM9.19771 8.44496C9.19771 8.01392 9.51695 7.66515 9.91148 7.66515C10.306 7.66515 10.6252 8.01393 10.6252 8.44496V16.8478C10.6252 17.2789 10.306 17.6276 9.91148 17.6276C9.51695 17.6276 9.19771 17.2789 9.19771 16.8478V8.44496ZM6.16558 2.7808C6.16558 2.34975 6.48482 2.00098 6.87935 2.00098C7.27387 2.00098 7.59312 2.34977 7.59312 2.7808V15.0979C7.59312 15.529 7.27387 15.8777 6.87935 15.8777C6.48482 15.8777 6.16558 15.529 6.16558 15.0979V2.7808ZM3.13206 4.53081C3.13206 4.09977 3.45131 3.751 3.84583 3.751C4.24036 3.751 4.5596 4.09978 4.5596 4.53081V13.3493C4.5596 13.7804 4.24036 14.1291 3.84583 14.1291C3.45131 14.1291 3.13206 13.7803 3.13206 13.3493V4.53081ZM32.6725 6.28083C32.6725 5.84978 32.9917 5.50101 33.3862 5.50101C33.7808 5.50101 34.1 5.8498 34.1 6.28083V11.5995C34.1 12.0306 33.7808 12.3793 33.3862 12.3793C32.9917 12.3793 32.6725 12.0306 32.6725 11.5995V6.28083ZM23.5748 1.0323C23.5748 0.601259 23.894 0.252488 24.2885 0.252488C24.6831 0.252488 25.0023 0.601271 25.0023 1.0323V9.43517C25.0023 9.86621 24.6831 10.215 24.2885 10.215C23.894 10.215 23.5748 9.86619 23.5748 9.43517V1.0323ZM23.5748 11.7395C23.5748 11.3085 23.894 10.9597 24.2885 10.9597C24.6831 10.9597 25.0023 11.3085 25.0023 11.7395V11.8933C25.0023 12.3244 24.6831 12.6732 24.2885 12.6732C23.894 12.6732 23.5748 12.3244 23.5748 11.8933V11.7395ZM23.5748 14.1978C23.5748 13.7667 23.894 13.4179 24.2885 13.4179C24.6831 13.4179 25.0023 13.7667 25.0023 14.1978V16.8479C25.0023 17.2789 24.6831 17.6277 24.2885 17.6277C23.894 17.6277 23.5748 17.2789 23.5748 16.8479V14.1978ZM26.6069 2.78247C26.6069 2.35143 26.9261 2.00266 27.3207 2.00266C27.7152 2.00266 28.0344 2.35144 28.0344 2.78247V15.0996C28.0344 15.5306 27.7152 15.8794 27.3207 15.8794C26.9261 15.8794 26.6069 15.5306 26.6069 15.0996V2.78247ZM29.6404 4.53249C29.6404 4.10145 29.9597 3.75267 30.3542 3.75267C30.7487 3.75267 31.0679 4.10146 31.0679 4.53249V13.351C31.0679 13.782 30.7487 14.1308 30.3542 14.1308C29.9597 14.1308 29.6404 13.782 29.6404 13.351V4.53249ZM14.597 12.6168C15.1351 12.6168 15.6398 12.7463 16.0719 12.9717V0.87991C16.0719 0.448869 16.3912 0.100098 16.7857 0.100098C17.052 0.100098 17.2862 0.260022 17.4075 0.496086C18.2356 1.82114 19.3202 2.56746 20.2291 3.19194C22.2672 4.59318 23.6153 5.52377 21.5367 9.41678C21.3402 9.78841 20.9038 9.91481 20.5637 9.70007C20.4075 9.60107 20.2974 9.44572 20.2444 9.27056C19.638 7.61954 19.072 7.353 18.4837 7.07733C18.1631 6.92655 17.8354 6.77272 17.5009 6.51532V15.197C17.5009 15.9524 17.1468 16.6225 16.5752 17.0932C16.0608 17.5181 15.3596 17.7801 14.5984 17.7801C13.8358 17.7801 13.1373 17.5181 12.6215 17.0932C12.05 16.6211 11.6959 15.9509 11.6959 15.197C11.6959 14.4415 12.05 13.7714 12.6215 13.3007C13.136 12.8758 13.8372 12.6138 14.5984 12.6138L14.597 12.6168ZM15.7151 14.545C15.439 14.3165 15.0431 14.1749 14.597 14.1749C14.1509 14.1749 13.755 14.3165 13.479 14.545C13.2601 14.7262 13.1221 14.9593 13.1221 15.1984C13.1221 15.4375 13.2587 15.6705 13.479 15.8518C13.755 16.0803 14.1509 16.2219 14.597 16.2219C15.0431 16.2219 15.439 16.0803 15.7151 15.8518C15.9353 15.6706 16.0719 15.4375 16.0719 15.1984C16.0719 14.9593 15.9353 14.7263 15.7151 14.545ZM17.4995 2.95582V4.19865C18.0459 5.18254 18.552 5.42015 19.0399 5.64863C19.6728 5.94563 20.2876 6.23349 20.8927 7.24483C21.2997 5.77052 20.526 5.23592 19.4693 4.5094C18.8531 4.08601 18.1659 3.61231 17.4981 2.95434L17.4995 2.95582Z" fill="white"/>
<path d="M0.100006 6.28071C0.100006 5.84967 0.41925 5.5009 0.813775 5.5009C1.20831 5.5009 1.52754 5.84968 1.52754 6.28071V11.5994C1.52754 12.0305 1.2083 12.3792 0.813775 12.3792C0.419239 12.3792 0.100006 12.0304 0.100006 11.5994V6.28071ZM9.19771 1.03218C9.19771 0.601142 9.51695 0.252371 9.91148 0.252371C10.306 0.252371 10.6252 0.601154 10.6252 1.03218V3.68234C10.6252 4.11338 10.306 4.46215 9.91148 4.46215C9.51695 4.46215 9.19771 4.11336 9.19771 3.68234V1.03218ZM9.19771 5.98672C9.19771 5.55568 9.51695 5.20691 9.91148 5.20691C10.306 5.20691 10.6252 5.55569 10.6252 5.98672V6.14055C10.6252 6.57159 10.306 6.92036 9.91148 6.92036C9.51695 6.92036 9.19771 6.57158 9.19771 6.14055V5.98672ZM9.19771 8.44496C9.19771 8.01392 9.51695 7.66515 9.91148 7.66515C10.306 7.66515 10.6252 8.01393 10.6252 8.44496V16.8478C10.6252 17.2789 10.306 17.6276 9.91148 17.6276C9.51695 17.6276 9.19771 17.2789 9.19771 16.8478V8.44496ZM6.16558 2.7808C6.16558 2.34975 6.48482 2.00098 6.87935 2.00098C7.27387 2.00098 7.59312 2.34977 7.59312 2.7808V15.0979C7.59312 15.529 7.27387 15.8777 6.87935 15.8777C6.48482 15.8777 6.16558 15.529 6.16558 15.0979V2.7808ZM3.13206 4.53081C3.13206 4.09977 3.45131 3.751 3.84583 3.751C4.24036 3.751 4.5596 4.09978 4.5596 4.53081V13.3493C4.5596 13.7804 4.24036 14.1291 3.84583 14.1291C3.45131 14.1291 3.13206 13.7803 3.13206 13.3493V4.53081ZM32.6725 6.28083C32.6725 5.84978 32.9917 5.50101 33.3862 5.50101C33.7808 5.50101 34.1 5.8498 34.1 6.28083V11.5995C34.1 12.0306 33.7808 12.3793 33.3862 12.3793C32.9917 12.3793 32.6725 12.0306 32.6725 11.5995V6.28083ZM23.5748 1.0323C23.5748 0.601259 23.894 0.252488 24.2885 0.252488C24.6831 0.252488 25.0023 0.601271 25.0023 1.0323V9.43517C25.0023 9.86621 24.6831 10.215 24.2885 10.215C23.894 10.215 23.5748 9.86619 23.5748 9.43517V1.0323ZM23.5748 11.7395C23.5748 11.3085 23.894 10.9597 24.2885 10.9597C24.6831 10.9597 25.0023 11.3085 25.0023 11.7395V11.8933C25.0023 12.3244 24.6831 12.6732 24.2885 12.6732C23.894 12.6732 23.5748 12.3244 23.5748 11.8933V11.7395ZM23.5748 14.1978C23.5748 13.7667 23.894 13.4179 24.2885 13.4179C24.6831 13.4179 25.0023 13.7667 25.0023 14.1978V16.8479C25.0023 17.2789 24.6831 17.6277 24.2885 17.6277C23.894 17.6277 23.5748 17.2789 23.5748 16.8479V14.1978ZM26.6069 2.78247C26.6069 2.35143 26.9261 2.00266 27.3207 2.00266C27.7152 2.00266 28.0344 2.35144 28.0344 2.78247V15.0996C28.0344 15.5306 27.7152 15.8794 27.3207 15.8794C26.9261 15.8794 26.6069 15.5306 26.6069 15.0996V2.78247ZM29.6404 4.53249C29.6404 4.10145 29.9597 3.75267 30.3542 3.75267C30.7487 3.75267 31.0679 4.10146 31.0679 4.53249V13.351C31.0679 13.782 30.7487 14.1308 30.3542 14.1308C29.9597 14.1308 29.6404 13.782 29.6404 13.351V4.53249ZM14.597 12.6168C15.1351 12.6168 15.6398 12.7463 16.0719 12.9717V0.87991C16.0719 0.448869 16.3912 0.100098 16.7857 0.100098C17.052 0.100098 17.2862 0.260022 17.4075 0.496086C18.2356 1.82114 19.3202 2.56746 20.2291 3.19194C22.2672 4.59318 23.6153 5.52377 21.5367 9.41678C21.3402 9.78841 20.9038 9.91481 20.5637 9.70007C20.4075 9.60107 20.2974 9.44572 20.2444 9.27056C19.638 7.61954 19.072 7.353 18.4837 7.07733C18.1631 6.92655 17.8354 6.77272 17.5009 6.51532V15.197C17.5009 15.9524 17.1468 16.6225 16.5752 17.0932C16.0608 17.5181 15.3596 17.7801 14.5984 17.7801C13.8358 17.7801 13.1373 17.5181 12.6215 17.0932C12.05 16.6211 11.6959 15.9509 11.6959 15.197C11.6959 14.4415 12.05 13.7714 12.6215 13.3007C13.136 12.8758 13.8372 12.6138 14.5984 12.6138L14.597 12.6168ZM15.7151 14.545C15.439 14.3165 15.0431 14.1749 14.597 14.1749C14.1509 14.1749 13.755 14.3165 13.479 14.545C13.2601 14.7262 13.1221 14.9593 13.1221 15.1984C13.1221 15.4375 13.2587 15.6705 13.479 15.8518C13.755 16.0803 14.1509 16.2219 14.597 16.2219C15.0431 16.2219 15.439 16.0803 15.7151 15.8518C15.9353 15.6706 16.0719 15.4375 16.0719 15.1984C16.0719 14.9593 15.9353 14.7263 15.7151 14.545ZM17.4995 2.95582V4.19865C18.0459 5.18254 18.552 5.42015 19.0399 5.64863C19.6728 5.94563 20.2876 6.23349 20.8927 7.24483C21.2997 5.77052 20.526 5.23592 19.4693 4.5094C18.8531 4.08601 18.1659 3.61231 17.4981 2.95434L17.4995 2.95582Z" stroke="white" stroke-width="0.2" mask="url(#path-1-outside-1_206_2401)"/>
</svg>
