<svg width="26" height="14" viewBox="0 0 26 14" fill="none" xmlns="http://www.w3.org/2000/svg">
<mask id="path-1-outside-1_107_3949" maskUnits="userSpaceOnUse" x="-0.900024" y="-0.900391" width="27" height="15" fill="black">
<rect fill="white" x="-0.900024" y="-0.900391" width="27" height="15"/>
<path d="M0.0999756 4.64418C0.0999756 4.32723 0.334714 4.07078 0.624806 4.07078C0.914906 4.07078 1.14964 4.32724 1.14964 4.64418V8.55499C1.14964 8.87193 0.914898 9.12838 0.624806 9.12838C0.334706 9.12838 0.0999756 8.87192 0.0999756 8.55499V4.64418ZM6.78946 0.784966C6.78946 0.468024 7.0242 0.211575 7.31429 0.211575C7.60438 0.211575 7.83912 0.468033 7.83912 0.784966V2.73361C7.83912 3.05055 7.60438 3.307 7.31429 3.307C7.0242 3.307 6.78946 3.05054 6.78946 2.73361V0.784966ZM6.78946 4.42801C6.78946 4.11106 7.0242 3.85462 7.31429 3.85462C7.60438 3.85462 7.83912 4.11107 7.83912 4.42801V4.54112C7.83912 4.85806 7.60438 5.11451 7.31429 5.11451C7.0242 5.11451 6.78946 4.85805 6.78946 4.54112V4.42801ZM6.78946 6.23554C6.78946 5.9186 7.0242 5.66215 7.31429 5.66215C7.60438 5.66215 7.83912 5.9186 7.83912 6.23554V12.4141C7.83912 12.7311 7.60438 12.9875 7.31429 12.9875C7.0242 12.9875 6.78946 12.731 6.78946 12.4141V6.23554ZM4.55996 2.07071C4.55996 1.75377 4.79469 1.49732 5.08479 1.49732C5.37488 1.49732 5.60962 1.75378 5.60962 2.07071V11.1274C5.60962 11.4444 5.37488 11.7008 5.08479 11.7008C4.79469 11.7008 4.55996 11.4444 4.55996 11.1274V2.07071ZM2.32943 3.35749C2.32943 3.04054 2.56417 2.7841 2.85426 2.7841C3.14435 2.7841 3.37909 3.04055 3.37909 3.35749V9.84168C3.37909 10.1586 3.14435 10.4151 2.85426 10.4151C2.56417 10.4151 2.32943 10.1586 2.32943 9.84168V3.35749ZM24.0503 4.64426C24.0503 4.32732 24.2851 4.07087 24.5751 4.07087C24.8652 4.07087 25.1 4.32733 25.1 4.64426V8.55508C25.1 8.87202 24.8652 9.12847 24.5751 9.12847C24.2851 9.12847 24.0503 8.87201 24.0503 8.55508V4.64426ZM17.3608 0.785052C17.3608 0.46811 17.5956 0.211661 17.8857 0.211661C18.1758 0.211661 18.4105 0.468119 18.4105 0.785052V6.96363C18.4105 7.28057 18.1758 7.53702 17.8857 7.53702C17.5956 7.53702 17.3608 7.28056 17.3608 6.96363V0.785052ZM17.3608 8.658C17.3608 8.34106 17.5956 8.08461 17.8857 8.08461C18.1758 8.08461 18.4105 8.34107 18.4105 8.658V8.77111C18.4105 9.08805 18.1758 9.3445 17.8857 9.3445C17.5956 9.3445 17.3608 9.08804 17.3608 8.77111V8.658ZM17.3608 10.4655C17.3608 10.1486 17.5956 9.89214 17.8857 9.89214C18.1758 9.89214 18.4105 10.1486 18.4105 10.4655V12.4142C18.4105 12.7311 18.1758 12.9876 17.8857 12.9876C17.5956 12.9876 17.3608 12.7311 17.3608 12.4142V10.4655ZM19.5903 2.07194C19.5903 1.755 19.8251 1.49855 20.1152 1.49855C20.4053 1.49855 20.64 1.75501 20.64 2.07194V11.1287C20.64 11.4456 20.4053 11.702 20.1152 11.702C19.8251 11.702 19.5903 11.4456 19.5903 11.1287V2.07194ZM21.8209 3.35872C21.8209 3.04178 22.0556 2.78533 22.3457 2.78533C22.6358 2.78533 22.8705 3.04179 22.8705 3.35872V9.84291C22.8705 10.1599 22.6358 10.4163 22.3457 10.4163C22.0556 10.4163 21.8209 10.1598 21.8209 9.84291V3.35872ZM10.7595 9.30307C11.1552 9.30307 11.5263 9.39826 11.8441 9.564V0.673001C11.8441 0.356059 12.0788 0.0996094 12.3689 0.0996094C12.5647 0.0996094 12.7369 0.2172 12.8261 0.390777C13.4349 1.36508 14.2324 1.91385 14.9008 2.37302C16.3994 3.40335 17.3906 4.0876 15.8623 6.95011C15.7177 7.22337 15.3969 7.31631 15.1468 7.15842C15.032 7.08562 14.951 6.97139 14.912 6.84259C14.4661 5.62861 14.05 5.43262 13.6174 5.22993C13.3816 5.11906 13.1407 5.00595 12.8947 4.81669V11.2003C12.8947 11.7557 12.6344 12.2485 12.2141 12.5945C11.8358 12.907 11.3202 13.0996 10.7605 13.0996C10.1998 13.0996 9.68626 12.907 9.30699 12.5945C8.8867 12.2474 8.62633 11.7546 8.62633 11.2003C8.62633 10.6448 8.8867 10.152 9.30699 9.80596C9.68523 9.49352 10.2008 9.30089 10.7605 9.30089L10.7595 9.30307ZM11.5816 10.7209C11.3787 10.5529 11.0876 10.4487 10.7595 10.4487C10.4315 10.4487 10.1404 10.5529 9.93745 10.7209C9.77651 10.8541 9.67503 11.0255 9.67503 11.2013C9.67503 11.3771 9.77549 11.5485 9.93745 11.6818C10.1404 11.8497 10.4315 11.9539 10.7595 11.9539C11.0876 11.9539 11.3787 11.8497 11.5816 11.6818C11.7436 11.5485 11.8441 11.3771 11.8441 11.2013C11.8441 11.0255 11.7436 10.8541 11.5816 10.7209ZM12.8937 2.19941V3.11325C13.2955 3.8367 13.6676 4.01141 14.0264 4.17941C14.4918 4.3978 14.9438 4.60946 15.3887 5.35309C15.688 4.26903 15.1191 3.87595 14.3421 3.34175C13.889 3.03042 13.3837 2.68212 12.8927 2.19832L12.8937 2.19941Z"/>
</mask>
<path d="M0.0999756 4.64418C0.0999756 4.32723 0.334714 4.07078 0.624806 4.07078C0.914906 4.07078 1.14964 4.32724 1.14964 4.64418V8.55499C1.14964 8.87193 0.914898 9.12838 0.624806 9.12838C0.334706 9.12838 0.0999756 8.87192 0.0999756 8.55499V4.64418ZM6.78946 0.784966C6.78946 0.468024 7.0242 0.211575 7.31429 0.211575C7.60438 0.211575 7.83912 0.468033 7.83912 0.784966V2.73361C7.83912 3.05055 7.60438 3.307 7.31429 3.307C7.0242 3.307 6.78946 3.05054 6.78946 2.73361V0.784966ZM6.78946 4.42801C6.78946 4.11106 7.0242 3.85462 7.31429 3.85462C7.60438 3.85462 7.83912 4.11107 7.83912 4.42801V4.54112C7.83912 4.85806 7.60438 5.11451 7.31429 5.11451C7.0242 5.11451 6.78946 4.85805 6.78946 4.54112V4.42801ZM6.78946 6.23554C6.78946 5.9186 7.0242 5.66215 7.31429 5.66215C7.60438 5.66215 7.83912 5.9186 7.83912 6.23554V12.4141C7.83912 12.7311 7.60438 12.9875 7.31429 12.9875C7.0242 12.9875 6.78946 12.731 6.78946 12.4141V6.23554ZM4.55996 2.07071C4.55996 1.75377 4.79469 1.49732 5.08479 1.49732C5.37488 1.49732 5.60962 1.75378 5.60962 2.07071V11.1274C5.60962 11.4444 5.37488 11.7008 5.08479 11.7008C4.79469 11.7008 4.55996 11.4444 4.55996 11.1274V2.07071ZM2.32943 3.35749C2.32943 3.04054 2.56417 2.7841 2.85426 2.7841C3.14435 2.7841 3.37909 3.04055 3.37909 3.35749V9.84168C3.37909 10.1586 3.14435 10.4151 2.85426 10.4151C2.56417 10.4151 2.32943 10.1586 2.32943 9.84168V3.35749ZM24.0503 4.64426C24.0503 4.32732 24.2851 4.07087 24.5751 4.07087C24.8652 4.07087 25.1 4.32733 25.1 4.64426V8.55508C25.1 8.87202 24.8652 9.12847 24.5751 9.12847C24.2851 9.12847 24.0503 8.87201 24.0503 8.55508V4.64426ZM17.3608 0.785052C17.3608 0.46811 17.5956 0.211661 17.8857 0.211661C18.1758 0.211661 18.4105 0.468119 18.4105 0.785052V6.96363C18.4105 7.28057 18.1758 7.53702 17.8857 7.53702C17.5956 7.53702 17.3608 7.28056 17.3608 6.96363V0.785052ZM17.3608 8.658C17.3608 8.34106 17.5956 8.08461 17.8857 8.08461C18.1758 8.08461 18.4105 8.34107 18.4105 8.658V8.77111C18.4105 9.08805 18.1758 9.3445 17.8857 9.3445C17.5956 9.3445 17.3608 9.08804 17.3608 8.77111V8.658ZM17.3608 10.4655C17.3608 10.1486 17.5956 9.89214 17.8857 9.89214C18.1758 9.89214 18.4105 10.1486 18.4105 10.4655V12.4142C18.4105 12.7311 18.1758 12.9876 17.8857 12.9876C17.5956 12.9876 17.3608 12.7311 17.3608 12.4142V10.4655ZM19.5903 2.07194C19.5903 1.755 19.8251 1.49855 20.1152 1.49855C20.4053 1.49855 20.64 1.75501 20.64 2.07194V11.1287C20.64 11.4456 20.4053 11.702 20.1152 11.702C19.8251 11.702 19.5903 11.4456 19.5903 11.1287V2.07194ZM21.8209 3.35872C21.8209 3.04178 22.0556 2.78533 22.3457 2.78533C22.6358 2.78533 22.8705 3.04179 22.8705 3.35872V9.84291C22.8705 10.1599 22.6358 10.4163 22.3457 10.4163C22.0556 10.4163 21.8209 10.1598 21.8209 9.84291V3.35872ZM10.7595 9.30307C11.1552 9.30307 11.5263 9.39826 11.8441 9.564V0.673001C11.8441 0.356059 12.0788 0.0996094 12.3689 0.0996094C12.5647 0.0996094 12.7369 0.2172 12.8261 0.390777C13.4349 1.36508 14.2324 1.91385 14.9008 2.37302C16.3994 3.40335 17.3906 4.0876 15.8623 6.95011C15.7177 7.22337 15.3969 7.31631 15.1468 7.15842C15.032 7.08562 14.951 6.97139 14.912 6.84259C14.4661 5.62861 14.05 5.43262 13.6174 5.22993C13.3816 5.11906 13.1407 5.00595 12.8947 4.81669V11.2003C12.8947 11.7557 12.6344 12.2485 12.2141 12.5945C11.8358 12.907 11.3202 13.0996 10.7605 13.0996C10.1998 13.0996 9.68626 12.907 9.30699 12.5945C8.8867 12.2474 8.62633 11.7546 8.62633 11.2003C8.62633 10.6448 8.8867 10.152 9.30699 9.80596C9.68523 9.49352 10.2008 9.30089 10.7605 9.30089L10.7595 9.30307ZM11.5816 10.7209C11.3787 10.5529 11.0876 10.4487 10.7595 10.4487C10.4315 10.4487 10.1404 10.5529 9.93745 10.7209C9.77651 10.8541 9.67503 11.0255 9.67503 11.2013C9.67503 11.3771 9.77549 11.5485 9.93745 11.6818C10.1404 11.8497 10.4315 11.9539 10.7595 11.9539C11.0876 11.9539 11.3787 11.8497 11.5816 11.6818C11.7436 11.5485 11.8441 11.3771 11.8441 11.2013C11.8441 11.0255 11.7436 10.8541 11.5816 10.7209ZM12.8937 2.19941V3.11325C13.2955 3.8367 13.6676 4.01141 14.0264 4.17941C14.4918 4.3978 14.9438 4.60946 15.3887 5.35309C15.688 4.26903 15.1191 3.87595 14.3421 3.34175C13.889 3.03042 13.3837 2.68212 12.8927 2.19832L12.8937 2.19941Z" fill="black"/>
<path d="M0.0999756 4.64418C0.0999756 4.32723 0.334714 4.07078 0.624806 4.07078C0.914906 4.07078 1.14964 4.32724 1.14964 4.64418V8.55499C1.14964 8.87193 0.914898 9.12838 0.624806 9.12838C0.334706 9.12838 0.0999756 8.87192 0.0999756 8.55499V4.64418ZM6.78946 0.784966C6.78946 0.468024 7.0242 0.211575 7.31429 0.211575C7.60438 0.211575 7.83912 0.468033 7.83912 0.784966V2.73361C7.83912 3.05055 7.60438 3.307 7.31429 3.307C7.0242 3.307 6.78946 3.05054 6.78946 2.73361V0.784966ZM6.78946 4.42801C6.78946 4.11106 7.0242 3.85462 7.31429 3.85462C7.60438 3.85462 7.83912 4.11107 7.83912 4.42801V4.54112C7.83912 4.85806 7.60438 5.11451 7.31429 5.11451C7.0242 5.11451 6.78946 4.85805 6.78946 4.54112V4.42801ZM6.78946 6.23554C6.78946 5.9186 7.0242 5.66215 7.31429 5.66215C7.60438 5.66215 7.83912 5.9186 7.83912 6.23554V12.4141C7.83912 12.7311 7.60438 12.9875 7.31429 12.9875C7.0242 12.9875 6.78946 12.731 6.78946 12.4141V6.23554ZM4.55996 2.07071C4.55996 1.75377 4.79469 1.49732 5.08479 1.49732C5.37488 1.49732 5.60962 1.75378 5.60962 2.07071V11.1274C5.60962 11.4444 5.37488 11.7008 5.08479 11.7008C4.79469 11.7008 4.55996 11.4444 4.55996 11.1274V2.07071ZM2.32943 3.35749C2.32943 3.04054 2.56417 2.7841 2.85426 2.7841C3.14435 2.7841 3.37909 3.04055 3.37909 3.35749V9.84168C3.37909 10.1586 3.14435 10.4151 2.85426 10.4151C2.56417 10.4151 2.32943 10.1586 2.32943 9.84168V3.35749ZM24.0503 4.64426C24.0503 4.32732 24.2851 4.07087 24.5751 4.07087C24.8652 4.07087 25.1 4.32733 25.1 4.64426V8.55508C25.1 8.87202 24.8652 9.12847 24.5751 9.12847C24.2851 9.12847 24.0503 8.87201 24.0503 8.55508V4.64426ZM17.3608 0.785052C17.3608 0.46811 17.5956 0.211661 17.8857 0.211661C18.1758 0.211661 18.4105 0.468119 18.4105 0.785052V6.96363C18.4105 7.28057 18.1758 7.53702 17.8857 7.53702C17.5956 7.53702 17.3608 7.28056 17.3608 6.96363V0.785052ZM17.3608 8.658C17.3608 8.34106 17.5956 8.08461 17.8857 8.08461C18.1758 8.08461 18.4105 8.34107 18.4105 8.658V8.77111C18.4105 9.08805 18.1758 9.3445 17.8857 9.3445C17.5956 9.3445 17.3608 9.08804 17.3608 8.77111V8.658ZM17.3608 10.4655C17.3608 10.1486 17.5956 9.89214 17.8857 9.89214C18.1758 9.89214 18.4105 10.1486 18.4105 10.4655V12.4142C18.4105 12.7311 18.1758 12.9876 17.8857 12.9876C17.5956 12.9876 17.3608 12.7311 17.3608 12.4142V10.4655ZM19.5903 2.07194C19.5903 1.755 19.8251 1.49855 20.1152 1.49855C20.4053 1.49855 20.64 1.75501 20.64 2.07194V11.1287C20.64 11.4456 20.4053 11.702 20.1152 11.702C19.8251 11.702 19.5903 11.4456 19.5903 11.1287V2.07194ZM21.8209 3.35872C21.8209 3.04178 22.0556 2.78533 22.3457 2.78533C22.6358 2.78533 22.8705 3.04179 22.8705 3.35872V9.84291C22.8705 10.1599 22.6358 10.4163 22.3457 10.4163C22.0556 10.4163 21.8209 10.1598 21.8209 9.84291V3.35872ZM10.7595 9.30307C11.1552 9.30307 11.5263 9.39826 11.8441 9.564V0.673001C11.8441 0.356059 12.0788 0.0996094 12.3689 0.0996094C12.5647 0.0996094 12.7369 0.2172 12.8261 0.390777C13.4349 1.36508 14.2324 1.91385 14.9008 2.37302C16.3994 3.40335 17.3906 4.0876 15.8623 6.95011C15.7177 7.22337 15.3969 7.31631 15.1468 7.15842C15.032 7.08562 14.951 6.97139 14.912 6.84259C14.4661 5.62861 14.05 5.43262 13.6174 5.22993C13.3816 5.11906 13.1407 5.00595 12.8947 4.81669V11.2003C12.8947 11.7557 12.6344 12.2485 12.2141 12.5945C11.8358 12.907 11.3202 13.0996 10.7605 13.0996C10.1998 13.0996 9.68626 12.907 9.30699 12.5945C8.8867 12.2474 8.62633 11.7546 8.62633 11.2003C8.62633 10.6448 8.8867 10.152 9.30699 9.80596C9.68523 9.49352 10.2008 9.30089 10.7605 9.30089L10.7595 9.30307ZM11.5816 10.7209C11.3787 10.5529 11.0876 10.4487 10.7595 10.4487C10.4315 10.4487 10.1404 10.5529 9.93745 10.7209C9.77651 10.8541 9.67503 11.0255 9.67503 11.2013C9.67503 11.3771 9.77549 11.5485 9.93745 11.6818C10.1404 11.8497 10.4315 11.9539 10.7595 11.9539C11.0876 11.9539 11.3787 11.8497 11.5816 11.6818C11.7436 11.5485 11.8441 11.3771 11.8441 11.2013C11.8441 11.0255 11.7436 10.8541 11.5816 10.7209ZM12.8937 2.19941V3.11325C13.2955 3.8367 13.6676 4.01141 14.0264 4.17941C14.4918 4.3978 14.9438 4.60946 15.3887 5.35309C15.688 4.26903 15.1191 3.87595 14.3421 3.34175C13.889 3.03042 13.3837 2.68212 12.8927 2.19832L12.8937 2.19941Z" stroke="black" stroke-width="0.2" mask="url(#path-1-outside-1_107_3949)"/>
</svg>
