<svg width="22" height="17" viewBox="0 0 22 17" fill="none" xmlns="http://www.w3.org/2000/svg">
<path d="M0.390894 0C0.175806 0.000965849 0.000980567 0.172899 0 0.384436V2.70069V2.70359V14.2925V14.2964V16.6156C0.000982076 16.8271 0.175803 16.999 0.390894 17H21.6091C21.8242 16.999 21.999 16.8271 22 16.6156V14.2964V14.2925V2.70359V2.70069V0.384436C21.999 0.172901 21.8242 0.000964366 21.6091 0H0.390894ZM0.785711 0.773694H2.74803V2.31626H0.785711V0.773694ZM3.53482 0.773694H6.67867V2.31626H3.53482V0.773694ZM7.46438 0.773694H10.6052V2.31626H7.46438V0.773694ZM11.3909 0.773694H14.5348V2.31626H11.3909V0.773694ZM15.3215 0.773694H18.4653V2.31626H15.3215V0.773694ZM19.251 0.773694H21.2143V2.31626H19.251V0.773694ZM0.785962 3.08899H21.2144V13.9082H0.785962V3.08899ZM8.62748 4.63734C8.4173 4.64603 8.25132 4.81603 8.25034 5.02274V11.9773C8.25034 12.1145 8.32498 12.241 8.44578 12.3106C8.56659 12.3801 8.71489 12.3811 8.83668 12.3134L15.1214 8.83629C15.2451 8.76868 15.3207 8.63924 15.3207 8.50015C15.3207 8.36105 15.2451 8.23163 15.1214 8.164L8.83668 4.68685C8.77284 4.65208 8.70016 4.63444 8.62748 4.63734ZM9.03703 5.68536L14.1264 8.50007L9.03703 11.3158V5.68536ZM0.786188 14.6809H2.74948V16.2273H0.786188V14.6809ZM3.5353 14.6809H6.67914V16.2273H3.5353V14.6809ZM7.46486 14.6809H10.6057V16.2273H7.46486V14.6809ZM11.3914 14.6809H14.5352V16.2273H11.3914V14.6809ZM15.322 14.6809H18.4658V16.2273H15.322V14.6809ZM19.2515 14.6809H21.2148V16.2273H19.2515V14.6809Z" fill="black"/>
</svg>
