<svg width="38" height="29" viewBox="0 0 38 29" fill="none" xmlns="http://www.w3.org/2000/svg">
<path d="M0.675181 0C0.303664 0.00164763 0.00169371 0.294945 0 0.655803V4.60707V4.61201V24.3814V24.388V28.3442C0.00169631 28.705 0.30366 28.9984 0.675181 29H37.3248C37.6963 28.9984 37.9983 28.7051 38 28.3442V24.388V24.3814V4.61201V4.60707V0.655803C37.9983 0.294949 37.6963 0.00164509 37.3248 0H0.675181ZM1.35714 1.31983H4.74659V3.95126H1.35714V1.31983ZM6.1056 1.31983H11.5359V3.95126H6.1056V1.31983ZM12.893 1.31983H18.3181V3.95126H12.893V1.31983ZM19.6752 1.31983H25.1055V3.95126H19.6752V1.31983ZM26.4644 1.31983H31.8947V3.95126H26.4644V1.31983ZM33.2518 1.31983H36.643V3.95126H33.2518V1.31983ZM1.35757 5.26945H36.6431V23.7257H1.35757V5.26945ZM14.902 7.91075C14.539 7.92558 14.2523 8.21559 14.2506 8.5682V20.4319C14.2506 20.6658 14.3795 20.8817 14.5882 21.0004C14.7968 21.119 15.053 21.1206 15.2634 21.0053L26.1187 15.0737C26.3325 14.9583 26.4631 14.7375 26.4631 14.5003C26.4631 14.263 26.3325 14.0422 26.1187 13.9268L15.2634 7.99521C15.1531 7.93589 15.0275 7.90581 14.902 7.91075ZM15.6094 9.69855L24.4002 14.5001L15.6094 19.3034V9.69855ZM1.35796 25.0439H4.74911V27.6819H1.35796V25.0439ZM6.10642 25.0439H11.5367V27.6819H6.10642V25.0439ZM12.8938 25.0439H18.3189V27.6819H12.8938V25.0439ZM19.6761 25.0439H25.1063V27.6819H19.6761V25.0439ZM26.4652 25.0439H31.8955V27.6819H26.4652V25.0439ZM33.2526 25.0439H36.6438V27.6819H33.2526V25.0439Z" fill="white"/>
</svg>
