<svg width="70" height="70" viewBox="0 0 70 70" fill="none" xmlns="http://www.w3.org/2000/svg">
<rect width="70" height="70" rx="5.52632" fill="#F1ECEC"/>
<path d="M36.2438 53.6573L17.0804 32.2732H27.4359L36.2438 53.6573ZM41.5636 32.2732H27.9549L36.9996 54.2306L45.2621 34.1704C44.4497 33.1549 43.2012 32.5005 41.8021 32.5005C41.6742 32.5005 41.5711 32.4011 41.5636 32.2732ZM51.3867 32.2732C51.3792 32.3992 51.2776 32.5007 51.1479 32.5007C48.7034 32.5007 46.7158 34.4902 46.7158 36.9347C46.7158 37.0682 46.6086 37.1754 46.4751 37.1754C46.3416 37.1754 46.2344 37.0682 46.2344 36.9347C46.2344 36.0961 45.9956 35.3119 45.5894 34.6425L37.7559 53.6572L56.9193 32.2731L51.3867 32.2732ZM27.6862 31.6226L36.5447 22.2375H23.8217L27.6862 31.6226ZM28.1883 31.7918H43.196C43.8409 31.5774 44.422 31.2202 44.8977 30.7539L41.1933 26.8614C40.0181 27.6587 39.2452 29.007 39.2452 30.5301C39.2452 30.6636 39.1381 30.7708 39.0045 30.7708C38.871 30.7708 38.7639 30.6636 38.7639 30.5301C38.7639 28.0856 36.7744 26.0961 34.3317 26.0961C34.1982 26.0961 34.0911 25.9889 34.0911 25.8554C34.0911 25.7219 34.1982 25.6147 34.3317 25.6147C35.8962 25.6147 37.2727 24.7968 38.0606 23.5689L37.0019 22.4557L28.1883 31.7918ZM17 31.7918H27.2371L23.4086 22.4987L17 31.7918ZM48.2789 18.9225C46.7896 18.4374 45.6125 17.2583 45.1254 15.769C44.6403 17.2583 43.4613 18.4355 41.972 18.9225C43.4613 19.4076 44.6384 20.5866 45.1254 22.0759C45.6106 20.5866 46.7896 19.4076 48.2789 18.9225ZM45.5805 22.2376C45.4413 22.6664 45.3661 23.1214 45.3661 23.5953C45.3661 23.7288 45.2589 23.836 45.1254 23.836C44.9919 23.836 44.8847 23.7288 44.8847 23.5953C44.8847 23.1214 44.8076 22.6645 44.6704 22.2376H39.3771C39.8528 24.1744 41.5978 25.6167 43.6776 25.6167C43.8111 25.6167 43.9183 25.7239 43.9183 25.8574C43.9183 25.9909 43.8111 26.0981 43.6776 26.0981C42.9329 26.0981 42.2334 26.2843 41.6167 26.6096L45.2252 30.4023C45.8551 29.637 46.235 28.6555 46.235 27.5892C46.235 27.4557 46.3422 27.3485 46.4757 27.3485C46.6092 27.3485 46.7164 27.4557 46.7164 27.5892C46.7164 28.2887 46.8837 28.9469 47.1733 29.5355L50.1782 22.2396L45.5805 22.2376ZM38.6303 22.2376H37.455L38.3049 23.1308C38.446 22.8488 38.5551 22.5498 38.6303 22.2376ZM47.4757 30.064C48.021 30.8688 48.824 31.4837 49.7642 31.794C49.7698 31.794 49.7736 31.7921 49.7773 31.7921H57L50.5918 22.499L47.4757 30.064Z" fill="black"/>
</svg>
