<svg width="18" height="17" viewBox="0 0 18 17" fill="none" xmlns="http://www.w3.org/2000/svg">
<path d="M16.5317 15.1717C14.4758 12.8702 12.4214 10.5679 10.3654 8.26646C12.3715 6.47498 14.3768 4.68417 16.3851 2.89128C16.9019 2.43113 16.7161 1.4466 15.9733 0.7038C15.2306 -0.0389255 14.2461 -0.222547 13.7859 0.292011C12.0284 2.26188 10.2716 4.22924 8.5157 6.1968C6.75974 4.22924 5.00305 2.26169 3.24478 0.292785C2.78464 -0.224036 1.80011 -0.0381516 1.0573 0.704574C0.314501 1.4473 0.130957 2.43183 0.645514 2.89205C2.65156 4.68353 4.65915 6.47435 6.6652 8.26723C4.60925 10.5686 2.55484 12.871 0.498896 15.1724C0.0387493 15.6892 -0.135781 16.3156 0.114302 16.5634C0.363651 16.8128 0.990765 16.639 1.50532 16.1789C3.84232 14.092 6.17932 12.0051 8.51555 9.92048C10.8518 12.0074 13.1888 14.0927 15.525 16.1796C16.0418 16.6398 16.6682 16.8143 16.916 16.5642C17.1654 16.3149 16.9916 15.6878 16.5314 15.1717L16.5317 15.1717Z" fill="#F00101"/>
</svg>
