<svg width="70" height="70" viewBox="0 0 70 70" fill="none" xmlns="http://www.w3.org/2000/svg">
<rect width="70" height="70" rx="5.52632" fill="#F1ECEC"/>
<path fill-rule="evenodd" clip-rule="evenodd" d="M41.3986 34.709C41.3986 33.625 43.0455 33.625 43.0455 34.709C43.0455 41.8465 34.3716 45.4584 29.3118 40.4007C24.2553 35.3443 27.8558 26.667 35 26.667C36.0874 26.667 37.1915 26.8965 38.18 27.3204C39.1718 27.7459 38.5218 29.2588 37.5299 28.8316C33.3497 27.0338 28.6017 30.0831 28.6017 34.7107C28.6017 40.4006 35.5128 43.2503 39.5239 39.2378C40.6816 38.0801 41.3986 36.4785 41.3986 34.709ZM18.6478 35.2569C18.6478 46.7538 26.7504 49.8583 35.0001 54.2512C43.2498 49.8583 51.3523 46.7521 51.3523 35.2569V22.185L35.0001 17.4468L18.6478 22.185V35.2569ZM20.2948 23.4168V35.2556C20.2948 45.4307 27.5275 48.4412 35 52.3919C42.4725 48.4395 49.7052 45.4289 49.7052 35.2556V23.4168L35 19.1562L20.2948 23.4168ZM35 15.9194L17.1869 21.0814V35.2573C17.1869 48.0509 26.9412 51.519 35 55.9222C43.0605 51.519 52.8131 48.0509 52.8131 35.2573V21.0814L35 15.9194ZM40.1787 30.0868L34.4385 35.8269L32.4129 33.8013C31.6472 33.0356 30.4812 34.2 31.2485 34.9657L33.8572 37.5743C34.1788 37.896 34.6999 37.896 35.0216 37.5743L41.3446 31.2513C42.1085 30.484 40.9444 29.3194 40.1787 30.0868Z" fill="black"/>
</svg>
