<svg width="70" height="70" viewBox="0 0 70 70" fill="none" xmlns="http://www.w3.org/2000/svg">
<rect width="70" height="70" rx="5.52632" fill="#F1ECEC"/>
<path d="M41.5593 37.1525C42.5439 36.683 42.0288 35.7438 42.4075 35.1531C43.2103 35.3349 43.8617 35.8044 44.4676 36.3649C44.7402 36.6224 45.0432 36.8647 45.331 37.1071C45.6945 37.4252 46.0126 37.3798 46.2701 36.9708C46.4367 36.6981 46.6336 36.4406 46.8457 36.1074C50.678 41.9997 55.1616 47.2709 60.145 52.2847C44.6796 52.2847 29.3203 52.2847 13.8549 52.2847C18.8232 47.3012 23.3068 42.03 27.1542 36.1074C27.3814 36.4558 27.5783 36.7436 27.7752 37.0314C28.0176 37.3798 28.3205 37.4252 28.6386 37.1525C29.093 36.7739 29.502 36.3649 29.9867 36.0165C30.4866 35.6681 31.0319 35.3803 31.5469 35.0622C31.971 35.7438 31.4712 36.6678 32.4255 37.1374C32.8193 36.7587 33.2283 36.3952 33.6069 36.0165C33.9856 35.6227 34.3492 35.2137 34.743 34.7744C35.2883 35.3955 35.7427 35.9105 36.2123 36.4255C36.6667 36.9253 37.3786 36.9253 37.833 36.4255C38.3026 35.9105 38.757 35.3803 39.2266 34.8199C40.0294 35.6227 40.8019 36.3952 41.5593 37.1525Z" fill="black"/>
<path d="M23.534 39.6066C18.9292 38.4856 14.7031 33.8506 15.309 27.8219C15.9149 21.8994 20.8226 17.5672 26.5937 17.7187C31.5166 17.855 36.7727 21.9448 37.0151 25.9134C36.2123 25.9134 35.3943 25.9285 34.5915 25.9134C32.4103 25.8528 30.9259 26.7919 30.0322 28.8368C28.366 32.6388 26.109 36.1075 23.6551 39.4551C23.6097 39.5005 23.5794 39.546 23.534 39.6066Z" fill="black"/>
<path d="M37 35.8196C36.2881 35.0168 35.6064 34.2594 34.8491 33.4112C34.0917 34.1382 33.4555 34.7593 32.7436 35.4561C32.683 35.0774 32.6527 34.7896 32.6073 34.5018C32.5315 33.9413 32.274 33.805 31.7439 33.9868C30.4866 34.4412 29.3354 35.0622 28.3963 36.1377C28.1691 35.8044 27.9873 35.5318 27.7753 35.2288C27.8662 35.0774 27.9419 34.9108 28.0328 34.7441C29.0779 32.7447 30.1382 30.7452 31.1834 28.7307C31.7893 27.5492 32.7739 26.9584 34.0463 26.9281C36.0305 26.8827 38.0148 26.8827 39.9991 26.9281C41.3927 26.9736 42.347 27.6855 42.968 29.0033C43.8769 30.9119 44.922 32.7447 45.9217 34.623C46.0278 34.8199 46.1489 35.0168 46.2701 35.2137C46.0732 35.5015 45.8914 35.7741 45.6945 36.0771C45.5582 35.9862 45.4219 35.9256 45.331 35.8196C44.513 34.9713 43.4982 34.4563 42.4076 34.0474C41.7411 33.7899 41.529 33.8959 41.423 34.6078C41.3775 34.8653 41.3473 35.1228 41.2867 35.4712C40.5899 34.7744 39.9537 34.1534 39.2115 33.4263C38.439 34.2443 37.7422 35.0016 37 35.8196Z" fill="black"/>
</svg>
