<svg width="70" height="70" viewBox="0 0 70 70" fill="none" xmlns="http://www.w3.org/2000/svg">
<rect width="70" height="70" rx="5.52632" fill="#F1ECEC"/>
<path d="M39.9169 32.2009H39.4482V29.5053C39.4482 27.4298 37.7591 25.7407 35.6835 25.7407H34.3103C32.2347 25.7407 30.5456 27.4298 30.5456 29.5053V32.2009H30.0769C29.1526 32.2009 28.401 32.9509 28.401 33.8769V40.8732C28.401 41.7991 29.1509 42.5491 30.0769 42.5491H39.9152C40.8411 42.5491 41.5911 41.7991 41.5911 40.8732V33.8769C41.5911 32.9509 40.8412 32.2009 39.9152 32.2009H39.9169ZM36.1062 39.5475C36.1539 39.7301 36.0158 39.9077 35.8266 39.9077H34.1688C33.9813 39.9077 33.8432 39.7301 33.8892 39.5475L34.4435 37.3914C33.9813 37.1809 33.659 36.7171 33.659 36.1776C33.659 35.4392 34.2576 34.8405 34.9961 34.8405C35.7345 34.8405 36.3332 35.4392 36.3332 36.1776C36.3332 36.7187 36.0108 37.1809 35.5487 37.3914L36.1029 39.5475H36.1062ZM37.1851 32.2009H32.8102V29.5053C32.8102 28.6781 33.4828 28.0038 34.3117 28.0038H35.685C36.5123 28.0038 37.1866 28.6765 37.1866 29.5053V32.2009H37.1851Z" fill="black"/>
<path d="M53.7188 30.7141L50.6778 30.2717L49.4279 27.2521L51.265 24.7917C51.7057 24.2012 51.6449 23.3641 51.1252 22.8427L47.1533 18.8709C46.6336 18.3512 45.7948 18.2887 45.206 18.7311L42.744 20.5682L39.7243 19.3182L39.2836 16.2756C39.1767 15.5486 38.5435 15.001 37.8083 15.001H32.19C31.4549 15.001 30.8184 15.5503 30.7131 16.2789L30.2724 19.3166L27.2528 20.5682L24.7907 18.7311C24.2019 18.2903 23.3631 18.3512 22.8434 18.8709L18.8715 22.8411C18.3518 23.3608 18.291 24.198 18.7317 24.7884L20.5688 27.2521L19.3189 30.2717L16.2762 30.7141C15.5493 30.821 15 31.4542 15 32.1894V37.8076C15 38.5428 15.5493 39.1776 16.2762 39.2829L19.3172 39.7253L20.5688 42.7466L18.7317 45.207C18.291 45.7974 18.3518 46.6362 18.8732 47.1559L22.8467 51.1261C23.3664 51.6459 24.2036 51.7051 24.7923 51.2676L27.2544 49.4305L30.274 50.6821L30.7148 53.7231C30.82 54.4501 31.4549 54.9993 32.19 54.9993H37.8083C38.5435 54.9993 39.1783 54.45 39.2852 53.7231L39.726 50.6821L42.7456 49.4321L45.206 51.2676C45.7948 51.7084 46.6336 51.6475 47.155 51.1278L51.1268 47.1592C51.6482 46.6379 51.709 45.8007 51.2666 45.2103L49.423 42.74L50.6696 39.7287L53.7221 39.2862C54.4507 39.181 55 38.5461 55 37.8093V32.1944C55 31.4593 54.4507 30.8228 53.7221 30.7175L53.7188 30.7141ZM46.8556 35.0002C46.8556 41.5393 41.5367 46.8582 34.9976 46.8582C28.4585 46.8582 23.1396 41.5393 23.1396 35.0002C23.1396 28.4612 28.4602 23.1423 34.9976 23.1423C41.5367 23.1423 46.8556 28.4612 46.8556 35.0002Z" fill="black"/>
</svg>
