<svg width="114" height="114" viewBox="0 0 114 114" fill="none" xmlns="http://www.w3.org/2000/svg">
<circle opacity="0.3" cx="57" cy="57" r="57" fill="white"/>
<circle cx="57" cy="57" r="44" fill="white"/>
<path d="M47.99 44.6191V69.3677C47.9899 69.7018 48.0767 70.0302 48.2416 70.3207C48.4066 70.6112 48.6442 70.8539 48.9312 71.025C49.2181 71.1961 49.5446 71.2898 49.8786 71.2969C50.2126 71.3039 50.5428 71.2241 50.8367 71.0653L72.9998 59.0615C73.3017 58.8979 73.5545 58.6567 73.732 58.3627C73.9096 58.0688 74.0055 57.7328 74.0098 57.3894C74.0142 57.0461 73.9268 56.7077 73.7567 56.4094C73.5866 56.1111 73.3399 55.8636 73.0422 55.6925L50.8824 42.9607C50.59 42.7923 50.2587 42.7035 49.9213 42.7031C49.5839 42.7028 49.2523 42.7909 48.9596 42.9587C48.6669 43.1265 48.4234 43.3682 48.2532 43.6595C48.0831 43.9509 47.9923 44.2817 47.99 44.6191Z" fill="#161616"/>
</svg>
