<svg width="70" height="49" viewBox="0 0 70 49" fill="none" xmlns="http://www.w3.org/2000/svg">
<path d="M3.8147e-06 32.7984C3.8147e-06 23.186 5.01714 6.60918 18.5826 0.137215C19.8563 -0.470387 20.6533 1.0861 19.5926 2.01236C10.3304 10.0997 7.20495 18.4782 15.5556 17.3742C24.1467 17.3742 31.1111 24.2798 31.1111 32.7984C31.1111 41.3169 24.1467 48.2225 15.5556 48.2225C6.96446 48.2225 3.8147e-06 41.3169 3.8147e-06 32.7984Z" fill="#161616"/>
<path d="M38.8889 32.7984C38.8889 23.186 43.9061 6.60918 57.4715 0.137215C58.7452 -0.470387 59.5423 1.0861 58.4815 2.01236C49.2193 10.0997 46.0939 18.4782 54.4445 17.3742C63.0356 17.3742 70 24.2798 70 32.7984C70 41.3169 63.0356 48.2225 54.4445 48.2225C45.8534 48.2225 38.8889 41.3169 38.8889 32.7984Z" fill="#161616"/>
</svg>
