<svg width="70" height="70" viewBox="0 0 70 70" fill="none" xmlns="http://www.w3.org/2000/svg">
<rect width="70" height="70" rx="5.52632" fill="#F1ECEC"/>
<path d="M32.3966 22.5004V47.4997C32.3966 48.363 31.6954 49.0622 30.8341 49.0622C29.9708 49.0622 29.2716 48.363 29.2716 47.4997V36.5625H20.0219L23.6058 40.1464H23.6039C24.2132 40.7558 24.2132 41.744 23.6039 42.3534C22.9945 42.9628 22.0062 42.9628 21.3969 42.3534L15.147 36.1036C14.5377 35.4942 14.5377 34.506 15.147 33.8966L21.3969 27.6468C22.0121 27.0726 22.971 27.0902 23.5667 27.6839C24.1604 28.2796 24.178 29.2386 23.6038 29.8537L20.0219 33.4376H29.2716V22.5004C29.2716 21.6372 29.9708 20.938 30.8341 20.938C31.6954 20.938 32.3966 21.6372 32.3966 22.5004ZM54.8549 33.8966L48.6051 27.6468H48.6031C47.9879 27.0726 47.029 27.0902 46.4333 27.6839C45.8396 28.2796 45.822 29.2386 46.3962 29.8537L49.9801 33.4376H40.7284V22.5004C40.7284 21.6372 40.0292 20.938 39.1659 20.938C38.3046 20.938 37.6034 21.6372 37.6034 22.5004V47.4997C37.6034 48.363 38.3046 49.0622 39.1659 49.0622C40.0292 49.0622 40.7284 48.363 40.7284 47.4997V36.5625H49.9781L46.3942 40.1464H46.3962C45.7868 40.7558 45.7868 41.7441 46.3962 42.3534C47.0055 42.9628 47.9938 42.9628 48.6031 42.3534L54.853 36.1036C55.4623 35.4942 55.4623 34.506 54.853 33.8966L54.8549 33.8966Z" fill="black"/>
</svg>
