<svg width="21" height="19" viewBox="0 0 21 19" fill="none" xmlns="http://www.w3.org/2000/svg">
<path d="M19.9208 14.7789L12.0254 1.11721C11.1742 -0.372403 9.04617 -0.372403 8.17325 1.11721L0.299584 14.7789C-0.551623 16.2469 0.512386 18.099 2.2148 18.099H17.9838C19.7079 18.099 20.7721 16.2478 19.9208 14.7789ZM10.1102 4.52204C10.791 4.52204 11.323 5.07567 11.323 5.73484V5.81963L10.919 11.9062C10.8974 12.3318 10.5358 12.6726 10.1102 12.6726C9.68457 12.6726 9.32298 12.3318 9.30136 11.9062L8.89738 5.81963C8.85498 5.11804 9.40776 4.52204 10.1102 4.52204ZM10.1102 15.8861C9.40776 15.8861 8.83337 15.3117 8.83337 14.6093C8.83337 13.9069 9.40776 13.3325 10.1102 13.3325C10.8126 13.3325 11.387 13.9069 11.387 14.6093C11.387 15.3109 10.8126 15.8861 10.1102 15.8861Z" fill="#FFB400"/>
</svg>
