<svg width="201" height="39" viewBox="0 0 201 39" fill="none" xmlns="http://www.w3.org/2000/svg">
<path d="M108.394 23.6686L120.928 14.6436L105.484 14.7099L100.773 0L96.0623 14.7082L80.6184 14.6419L93.152 23.6669L88.317 38.3352L100.773 29.2041L113.228 38.3352L108.393 23.6669L108.394 23.6686Z" fill="#FFD30B"/>
<path d="M148.703 23.6725L161.237 14.6475L145.793 14.7138L141.082 0.00390625L136.372 14.7121L120.928 14.6458L133.461 23.6708L128.626 38.3391L141.082 29.208L153.537 38.3391L148.702 23.6708L148.703 23.6725Z" fill="#FFD30B"/>
<path d="M27.7756 23.6686L40.3092 14.6436L24.8652 14.7099L20.1546 0L15.4439 14.7082L0 14.6419L12.5336 23.6669L7.69863 38.3352L20.1542 29.2041L32.6097 38.3352L27.7747 23.6669L27.7756 23.6686Z" fill="#FFD30B"/>
<path d="M68.0848 23.6686L80.6184 14.6436L65.1744 14.7099L60.4638 0L55.7531 14.7082L40.3092 14.6419L52.8428 23.6669L48.0078 38.3352L60.4634 29.2041L72.9189 38.3352L68.0839 23.6669L68.0848 23.6686Z" fill="#FFD30B"/>
<path d="M200.71 14.3786H186.35L181.529 0.00390625L176.728 14.3786H162.363L174.323 23.8287L169.546 38.3364L181.52 29.4085L181.547 29.3894L193.508 38.3364L188.754 23.7018L200.71 14.3786ZM188.852 31.9073L181.553 26.3527L181.537 26.3719V9.34865V9.31511L184.58 16.7744H193.508L185.886 22.5925L188.852 31.9073Z" fill="#FFD30B"/>
</svg>
