<svg xmlns="http://www.w3.org/2000/svg" viewBox="0 0 32 32" width="32" height="32">
  <path fill="#25D366" d="M16 0c-8.837 0-16 7.163-16 16 0 2.825 0.737 5.607 2.137 8.048l-2.137 7.952 7.933-2.127c2.42 1.396 5.184 2.127 8.067 2.127 8.837 0 16-7.163 16-16s-7.163-16-16-16zM16 29.467c-2.482 0-4.908-0.646-7.07-1.87l-0.507-0.292-5.247 1.408 1.408-5.234-0.321-0.525c-1.362-2.21-2.083-4.763-2.083-7.421 0-7.51 6.11-13.6 13.6-13.6s13.6 6.11 13.6 13.6-6.089 13.6-13.38 13.6zM21.305 18.421c-0.365-0.183-2.159-1.066-2.495-1.187-0.336-0.121-0.581-0.183-0.825 0.183s-0.947 1.187-1.162 1.432c-0.214 0.245-0.429 0.275-0.794 0.092s-1.549-0.571-2.95-1.82c-1.092-0.973-1.828-2.176-2.042-2.541s-0.023-0.563 0.161-0.745c0.165-0.164 0.365-0.429 0.548-0.643s0.244-0.365 0.365-0.61 0.061-0.458-0.030-0.643-0.825-1.985-1.130-2.717c-0.297-0.714-0.599-0.617-0.825-0.628-0.214-0.010-0.458-0.012-0.702-0.012s-0.641 0.091-0.977 0.458-1.283 1.254-1.283 3.059 1.314 3.548 1.497 3.793 2.589 3.951 6.272 5.542c0.876 0.378 1.56 0.604 2.093 0.773 0.88 0.279 1.681 0.24 2.314 0.146 0.706-0.106 2.159-0.883 2.465-1.735s0.305-1.584 0.214-1.735-0.336-0.245-0.702-0.428z"/>
</svg>