<svg xmlns="http://www.w3.org/2000/svg" width="773" height="369" fill="none"><g fill="#383838" clip-path="url(#a)"><path d="M32.6 39.3h2.58v9.8c0 4.47-2.97 7.44-8.26 7.44H9.98c-6.24 0-9.89-3.05-9.89-8.08 0-1.98.47-4.21 1.38-6.71l2.41.65c-.77 2.49-1.16 4.39-1.16 5.63 0 4.04 2.54 6.06 7.61 6.06h16.3c4.08 0 5.98-1.85 5.98-6.02V39.3h-.01Zm-19.83-3.1c0-1.03.77-1.76 1.76-1.76 2.28-.22 2.28 3.74 0 3.53-.99 0-1.76-.73-1.76-1.76v-.01Zm7.49-1.76c2.24-.22 2.24 3.74 0 3.53-2.37.22-2.37-3.74 0-3.53Zm20.16 14.83V24.03H43V49.1c0 3.31 1.98 4.99 5.93 4.99.56 0 .86.39.86 1.2 0 .81-.3 1.25-.86 1.25-5.85 0-8.51-2.32-8.51-7.27Z"/><path d="M48.94 56.54v-2.45h2.24c.56 0 .86.39.86 1.2 0 .81-.3 1.25-.86 1.25h-2.24Z"/><path d="M51.17 56.54v-2.45h2.24c.56 0 .86.39.86 1.2 0 .81-.3 1.25-.86 1.25h-2.24Z"/><path d="M53.41 56.54v-2.45h2.24c.56 0 .86.39.86 1.2 0 .81-.3 1.25-.86 1.25h-2.24Z"/><path d="M55.65 56.54v-2.45h2.24c.56 0 .86.39.86 1.2 0 .81-.3 1.25-.86 1.25h-2.24Z"/><path d="M57.88 56.54v-2.45h2.24c.56 0 .86.39.86 1.2 0 .81-.3 1.25-.86 1.25h-2.24Z"/><path d="M60.12 56.54v-2.45h2.24c.56 0 .86.39.86 1.2 0 .81-.3 1.25-.86 1.25h-2.24Z"/><path d="M62.35 56.54v-2.45h2.24c.56 0 .86.39.86 1.2 0 .81-.3 1.25-.86 1.25h-2.24Z"/><path d="M64.59 56.54v-2.45h.26c3.66 0 5.25-1.76 5.25-6.02V39.3h2.58v9.16c0 5.37-2.62 8.08-7.91 8.08h-.18Zm.39 5.63c0-1.03.77-1.76 1.76-1.76 2.28-.21 2.28 3.74 0 3.53-.99 0-1.76-.73-1.76-1.76v-.01Zm7.48-1.76c2.24-.21 2.24 3.74 0 3.53-2.37.22-2.37-3.74 0-3.53Zm27.99-6.32c.56 0 .86.39.86 1.2 0 .81-.3 1.25-.86 1.25H78.31v-2.45h14.71v-.95c0-4.86-2.97-9.2-8.86-13.03l1.55-2.06c3.65 2.41 6.23 4.86 7.7 7.31 1.46 2.45 2.19 5.33 2.19 8.56v.17h4.86-.01Z"/><path d="M100.45 56.54v-2.45h2.24c.56 0 .86.39.86 1.2 0 .81-.3 1.25-.86 1.25h-2.24Z"/><path d="M102.69 56.54v-2.45h2.24c.56 0 .86.39.86 1.2 0 .81-.3 1.25-.86 1.25h-2.24Z"/><path d="M104.92 56.54v-2.45h2.24c.56 0 .86.39.86 1.2 0 .81-.3 1.25-.86 1.25h-2.24Z"/><path d="M130.21 54.09c.56 0 .86.39.86 1.2 0 .81-.3 1.25-.86 1.25h-23.05v-2.45h15.18c1.38-5.42.17-12.73-8.17-12.73-1.46 0-3.1.3-4.9.86l-.65-2.32c1.85-.69 3.83-1.03 5.93-1.03 4.21 0 7.22 1.38 9.03 4.13 1.76 2.79 2.24 6.49 1.38 11.09h5.25Z"/><path d="M145 55.29c0 .82-.3 1.25-.86 1.25-3.4 0-5.72-1.07-6.88-3.27-1.2 2.19-3.48 3.27-6.88 3.27h-.17v-2.45h.26c3.66 0 5.25-1.76 5.25-6.02V39.3h2.58v9.33c0 3.66 1.93 5.46 5.85 5.46.56 0 .86.39.86 1.2H145Zm-12.68-22.87c0-1.03.77-1.76 1.76-1.76 2.28-.22 2.28 3.74 0 3.53-.99 0-1.76-.73-1.76-1.76v-.01Zm7.48-1.77c2.24-.22 2.24 3.74 0 3.53-2.37.22-2.37-3.74 0-3.53Z"/><path d="M144.14 54.09c3.96 0 5.33-1.68 5.33-6.02V24.03h2.58V49.1c0 4.95-2.62 7.44-7.91 7.44v-2.45Zm14.88 2.45V24.03h2.58v32.51h-2.58Zm16.21 4.99c4.51-.73 6.41-2.92 6.41-7.96V39.29h2.58v13.76c0 6.49-2.84 10.15-8.47 10.88l-.52-2.41v.01Zm7.74-30.88c2.24 0 2.24 3.53 0 3.53-2.36 0-2.36-3.53 0-3.53Zm8.21 25.89V24.03h2.58v32.51h-2.58Zm19.65-2.45c.56 0 .86.39.86 1.2 0 .81-.3 1.25-.86 1.25h-5.89v-.26c-.77 4.47-3.53 7.01-8.21 7.65l-.52-2.41c4.51-.73 6.41-2.92 6.41-7.96V39.28h2.58v13.76c0 .47 0 .82-.04 1.03h5.68l-.01.02Z"/><path d="M210.83 56.54v-2.45h2.24c.56 0 .86.39.86 1.2 0 .81-.3 1.25-.86 1.25h-2.24Z"/><path d="M213.07 56.54v-2.45h2.24c.56 0 .86.39.86 1.2 0 .81-.3 1.25-.86 1.25h-2.24Z"/><path d="M215.3 56.54v-2.45h2.24c.56 0 .86.39.86 1.2 0 .81-.3 1.25-.86 1.25h-2.24Z"/><path d="M217.54 56.54v-2.45h2.24c.56 0 .86.39.86 1.2 0 .81-.3 1.25-.86 1.25h-2.24Z"/><path d="M219.78 54.09c3.91 0 5.5-1.68 5.5-6.02V39.3h2.58v9.16c0 5.63-2.71 8.08-8.08 8.08v-2.45Zm5.16 6.32c2.24 0 2.24 3.53 0 3.53-2.37 0-2.37-3.53 0-3.53Zm13.76 5.5v1.38h-6.88v-1.38h1.63c-.43-.69-.64-1.42-.64-2.24 0-1.94 1.42-3.27 3.48-3.27.65 0 1.33.09 2.02.3l-.26 1.33c-.47-.13-.99-.22-1.51-.22-1.33 0-2.28.77-2.28 2.02 0 .73.21 1.42.69 2.06h3.74l.01.02Zm-2.15-41.88v32.51h-2.58V24.03h2.58Zm29.97 30.06c.56 0 .86.39.86 1.2 0 .81-.3 1.25-.86 1.25h-5.89v-.26c-.77 4.47-3.53 7.01-8.21 7.65l-.52-2.41c4.51-.73 6.41-2.92 6.41-7.96V39.28h2.58v13.76c0 .47 0 .82-.04 1.03h5.68l-.01.02Z"/><path d="M266.52 56.54v-2.45h2.24c.56 0 .86.39.86 1.2 0 .81-.3 1.25-.86 1.25h-2.24Z"/><path d="M268.75 56.54v-2.45h2.24c.56 0 .86.39.86 1.2 0 .81-.3 1.25-.86 1.25h-2.24Z"/><path d="M270.99 56.54v-2.45h2.24c.56 0 .86.39.86 1.2 0 .81-.3 1.25-.86 1.25h-2.24Z"/><path d="M273.23 56.54v-2.45h2.24c.56 0 .86.39.86 1.2 0 .81-.3 1.25-.86 1.25h-2.24Z"/><path d="M275.46 56.54v-2.45h2.24c.56 0 .86.39.86 1.2 0 .81-.3 1.25-.86 1.25h-2.24Z"/><path d="M292.49 55.29c0 .82-.3 1.25-.86 1.25-3.4 0-5.72-1.07-6.88-3.27-1.2 2.19-3.57 3.27-7.05 3.27v-2.45c3.91 0 5.5-1.68 5.5-6.02V39.3h2.58v9.33c0 3.66 1.93 5.46 5.85 5.46.56 0 .86.39.86 1.2Zm-8.43 8.65c-2.37 0-2.37-3.53 0-3.53 2.24 0 2.24 3.53 0 3.53Z"/><path d="M310.81 54.09v2.45h-19.18v-2.45h6.06c-1.46-2.19-2.19-4.43-2.19-6.71 0-5.12 3.48-8.51 9.67-8.51 1.5 0 3.1.21 4.69.65l-.52 2.41c-1.5-.39-2.88-.56-4.13-.56-4.47 0-7.09 2.41-7.09 6.06 0 2.24.86 4.47 2.62 6.67h10.06l.01-.01Zm27.95 0c.56 0 .86.39.86 1.2 0 .81-.3 1.25-.86 1.25h-5.89v-.26c-.77 4.47-3.53 7.01-8.21 7.65l-.52-2.41c4.51-.73 6.41-2.92 6.41-7.96V39.28h2.58v13.76c0 .47 0 .82-.04 1.03h5.68l-.01.02Z"/><path d="M338.76 56.54v-2.45H341c.56 0 .86.39.86 1.2 0 .81-.3 1.25-.86 1.25h-2.24Z"/><path d="M340.99 56.54v-2.45h2.24c.56 0 .86.39.86 1.2 0 .81-.3 1.25-.86 1.25h-2.24Z"/><path d="M343.23 56.54v-2.45h2.24c.56 0 .86.39.86 1.2 0 .81-.3 1.25-.86 1.25h-2.24Z"/><path d="M345.47 56.54v-2.45h2.24c.56 0 .86.39.86 1.2 0 .81-.3 1.25-.86 1.25h-2.24Z"/><path d="M347.7 56.54v-2.45h2.24c.56 0 .86.39.86 1.2 0 .81-.3 1.25-.86 1.25h-2.24Z"/><path d="M372.99 54.09c.56 0 .86.39.86 1.2 0 .81-.3 1.25-.86 1.25h-23.05v-2.45h15.18c1.38-5.42.17-12.73-8.17-12.73-1.46 0-3.1.3-4.9.86l-.65-2.32c1.85-.69 3.83-1.03 5.93-1.03 4.21 0 7.22 1.38 9.03 4.13 1.76 2.79 2.24 6.49 1.38 11.09h5.25Zm-15.66-23.87c2.24 0 2.24 3.53 0 3.53-2.36 0-2.36-3.53 0-3.53Z"/><path d="M397.71 54.09c.56 0 .86.39.86 1.2 0 .81-.3 1.25-.86 1.25h-4.82c-2.97 0-5.5-.3-7.65-.9-2.15.6-4.77.9-7.87.9h-4.39v-2.45h4.51c1.72 0 3.01-.09 3.83-.3-2.71-1.59-4.51-4.26-4.51-7.35 0-2.19.77-4 2.36-5.42 1.59-1.42 3.61-2.15 6.15-2.15 4.99 0 8.3 3.1 8.3 7.57 0 3.18-1.5 5.63-4.56 7.4 1.07.17 2.28.26 3.61.26h5.03l.01-.01Zm-12.47-.99c1.55-.47 2.88-1.29 4.04-2.49 1.12-1.2 1.68-2.62 1.68-4.21 0-3.05-2.28-5.03-5.68-5.03s-5.8 2.11-5.8 5.07c0 3.14 2.49 5.63 5.76 6.66Zm.09-22.88c2.24 0 2.24 3.53 0 3.53-2.37 0-2.37-3.53 0-3.53Z"/><path d="M397.71 54.09c3.96 0 5.33-1.68 5.33-6.02V24.03h2.58V49.1c0 4.95-2.62 7.44-7.91 7.44v-2.45Zm14.88 2.45V24.03h2.58v32.51h-2.58Zm16.21 4.99c4.51-.73 6.41-2.92 6.41-7.96V39.29h2.58v13.76c0 6.49-2.84 10.15-8.47 10.88l-.52-2.41v.01Zm35.39-7.44c.56 0 .86.39.86 1.2 0 .81-.3 1.25-.86 1.25h-4.43c-.64 4.94-4.51 7.44-11.7 7.44-.65 0-1.2 0-1.76-.04l-.13-2.36c6.92.39 10.62-1.29 11.01-5.03h-3.31c-6.88 0-10.23-3.18-10.23-8.56 0-2.54.77-4.73 2.36-6.49 1.55-1.76 3.57-2.67 6.06-2.67 4.77 0 7.78 3.1 7.78 8.21v7.05h4.35Zm-10.02 0h3.1V47.9c0-4.13-1.89-6.58-5.29-6.58-3.4 0-5.72 2.58-5.72 6.36 0 4.34 2.45 6.41 7.91 6.41Z"/><path d="M464.19 56.54v-2.45h2.24c.56 0 .86.39.86 1.2 0 .81-.3 1.25-.86 1.25h-2.24Z"/><path d="M466.42 56.54v-2.45h2.24c.56 0 .86.39.86 1.2 0 .81-.3 1.25-.86 1.25h-2.24Z"/><path d="M468.66 56.54v-2.45h2.24c.56 0 .86.39.86 1.2 0 .81-.3 1.25-.86 1.25h-2.24Z"/><path d="M495.92 54.09c.56 0 .86.39.86 1.2 0 .81-.3 1.25-.86 1.25h-3.05c-4.17 0-7.48-.6-10.02-1.81-2.88 1.2-6.41 1.81-10.62 1.81h-1.33v-2.45h1.55c3.31 0 6.11-.39 8.38-1.2-1.03-1.55-2.79-3.57-3.91-4.86-.56-.6-2.45-2.62-2.92-3.14.17-1.29.39-2.24.6-2.88 2.84-2.06 5.93-3.1 9.29-3.1 4.77 0 7.83 2.36 7.83 6.19 0 3.1-1.98 5.8-5.93 8.13 1.98.56 4.26.86 6.88.86h3.27-.02Zm-19.69-10.15c2.28 1.94 4.64 4.56 7.09 7.83 3.83-1.85 5.76-3.96 5.76-6.32 0-2.36-2.11-4-5.72-4-2.37 0-4.73.73-7.09 2.19l-.04.3Z"/><path d="M525.89 39.3h2.58v9.8c0 4.69-2.71 7.44-7.35 7.44-2.92 0-4.9-1.07-5.98-3.18-1.08 2.11-3.14 3.18-6.24 3.18s-4.9-.99-5.76-3.01c-1.03 1.76-3.44 3.01-6.71 3.01h-.52v-2.45h.56c3.48 0 5.25-1.59 5.25-5.76v-5.89h2.58v7.18c0 2.97 1.5 4.47 4.56 4.47 3.23 0 4.86-1.59 4.86-5.76v-5.89h2.58v7.14c0 3.01 1.59 4.51 4.82 4.51 3.23 0 4.77-1.85 4.77-6.02V39.3Zm-15.56-3.87c0-.99.77-1.76 1.76-1.76s1.76.77 1.76 1.76-.73 1.76-1.76 1.76-1.76-.73-1.76-1.76Zm2.96-4.3c0-.99.73-1.76 1.76-1.76s1.72.77 1.72 1.76-.73 1.81-1.72 1.81-1.76-.77-1.76-1.81Zm4.52 2.53c.99 0 1.72.77 1.72 1.76s-.73 1.76-1.72 1.76-1.81-.73-1.81-1.76.77-1.76 1.81-1.76Zm31.43-7.56 18.53 26.66h.09V26.1h2.84v30.44h-3.65l-18.53-26.66h-.09v26.66h-2.84V26.1h3.66-.01Zm32.17 1.33c.73.73.73 2.02 0 2.75s-2.02.73-2.75 0-.73-2.02 0-2.75 2.02-.73 2.75 0Zm-2.67 9.24h2.58v19.87h-2.58V36.67Zm9.89-12.64h2.58V45.7l9.85-9.03h3.78l-10.28 9.12L606 56.54h-3.91l-10.88-10.49v10.49h-2.58V24.03Zm36.21 14.71c1.76 1.76 2.62 4.08 2.62 6.97v1.55h-16.68c.21 4.34 3.05 7.48 7.52 7.48 2.71 0 5.42-1.42 6.67-3.53l1.89 1.59c-1.89 2.84-4.77 4.26-8.6 4.26-3.01 0-5.42-.99-7.27-2.92-1.85-1.94-2.79-4.43-2.79-7.57 0-2.92.95-5.38 2.79-7.4 1.85-2.02 4.21-3.01 7.14-3.01 2.71 0 4.94.86 6.71 2.58Zm.04 6.19c-.04-1.85-.69-3.35-2.02-4.6-1.33-1.25-2.97-1.85-4.9-1.85-1.93 0-3.48.65-4.82 1.89-1.34 1.24-2.15 2.79-2.36 4.56h14.1Zm59.86 10.36c0 .82-.3 1.25-.86 1.25-3.44 0-5.76-1.12-6.92-3.35-1.42 2.24-3.78 3.35-7.18 3.35h-16.94c-6.24 0-9.89-3.05-9.89-8.08 0-1.98.47-4.21 1.38-6.71l2.41.65c-.77 2.49-1.16 4.39-1.16 5.63 0 4.04 2.54 6.06 7.61 6.06h16.3c4.08 0 5.98-1.85 5.98-6.02V39.3h2.58v9.33c0 3.66 1.93 5.46 5.85 5.46.56 0 .86.39.86 1.2h-.02ZM655.63 36.2c0-1.03.77-1.76 1.76-1.76 2.28-.22 2.28 3.74 0 3.53-.99 0-1.76-.73-1.76-1.76v-.01Zm7.48-1.76c2.24-.22 2.24 3.74 0 3.53-2.37.22-2.37-3.74 0-3.53Z"/><path d="M683.88 56.54v-2.45h2.24c.56 0 .86.39.86 1.2 0 .81-.3 1.25-.86 1.25h-2.24Z"/><path d="M686.11 56.54v-2.45h2.24c.56 0 .86.39.86 1.2 0 .81-.3 1.25-.86 1.25h-2.24Z"/><path d="M688.35 56.54v-2.45h2.24c.56 0 .86.39.86 1.2 0 .81-.3 1.25-.86 1.25h-2.24Z"/><path d="M715.31 54.09c.56 0 .86.39.86 1.2 0 .81-.3 1.25-.86 1.25h-4.82c-2.97 0-5.5-.3-7.65-.9-2.15.6-4.77.9-7.87.9h-4.39v-2.45h4.51c1.72 0 3.01-.09 3.83-.3-2.71-1.59-4.51-4.26-4.51-7.35 0-2.19.77-4 2.36-5.42 1.59-1.42 3.61-2.15 6.15-2.15 4.99 0 8.3 3.1 8.3 7.57 0 3.18-1.5 5.63-4.56 7.4 1.07.17 2.28.26 3.61.26h5.03l.01-.01Zm-12.47-.99c1.55-.47 2.88-1.29 4.04-2.49 1.12-1.2 1.68-2.62 1.68-4.21 0-3.05-2.28-5.03-5.68-5.03s-5.8 2.11-5.8 5.07c0 3.14 2.49 5.63 5.76 6.66Zm.09-22.88c2.24 0 2.24 3.53 0 3.53-2.37 0-2.37-3.53 0-3.53Z"/><path d="M715.31 56.54v-2.45h2.24c.56 0 .86.39.86 1.2 0 .81-.3 1.25-.86 1.25h-2.24Z"/><path d="M717.55 56.54v-2.45h2.24c.56 0 .86.39.86 1.2 0 .81-.3 1.25-.86 1.25h-2.24Zm25.92-37.88c1.29 2.45.52 5.33-1.93 5.33-.9 0-1.59-.26-2.06-.73-.47.82-1.2 1.2-2.28 1.2-1.76 0-2.84-1.07-2.84-2.75 0-.65.13-1.33.43-2.02l1.03.3c-.13.39-.22.82-.22 1.29 0 1.12.52 1.68 1.59 1.68.95 0 1.42-.56 1.42-1.68 0-.3-.04-.65-.13-.99l1.08-.26c.17.6.26 1.16.26 1.63v.22c.39.47.95.69 1.63.69.9 0 1.38-.52 1.38-1.51 0-.64-.13-1.29-.39-1.98l1.03-.43v.01Z"/><path d="M751.26 49.23c0 2.36-.43 4.82-1.29 7.31h-30.19v-2.45h4.56V24.03h2.58v25.63c4.34-7.09 9.93-10.79 15.22-10.79 5.89 0 9.12 4.21 9.12 10.36Zm-3.36 4.86c.52-1.68.77-3.31.77-4.86 0-4.77-2.45-7.87-6.75-7.87-2.54 0-5.12 1.12-7.83 3.31s-5.12 5.33-7.14 9.42h20.95Zm-8.77-23.87c2.24 0 2.24 3.53 0 3.53-2.37 0-2.37-3.53 0-3.53Zm19.01 31.35c7.22.39 10.88-1.59 11.01-5.93-1.46.6-3.1.9-4.9.9-5.33 0-8.64-3.14-8.64-8.43 0-2.62.77-4.86 2.32-6.62 1.5-1.76 3.57-2.67 6.11-2.67 4.99 0 7.78 3.27 7.78 8.21v7.57c0 5.85-3.57 9.37-11.83 9.37-.65 0-1.2 0-1.72-.04l-.13-2.36Zm11.09-8.34V47.9c0-4.3-1.94-6.58-5.33-6.58s-5.68 2.54-5.68 6.54 2.41 6.15 6.36 6.15c1.72 0 3.27-.26 4.64-.77l.01-.01ZM1.1 102.87V77.63h2.58v25.07c0 3.31 1.98 4.99 5.93 4.99.56 0 .86.39.86 1.2 0 .81-.3 1.25-.86 1.25-5.85 0-8.51-2.32-8.51-7.27Z"/><path d="M13.31 91.95c12.68.99 20.51 4.51 20.51 13.42 0 1.55-.22 3.14-.6 4.77h-7.35c-2.37 0-4.43-.34-6.24-.99-1.68.65-3.78.99-6.28.99H9.61v-2.45h3.74c1.16 0 2.24-.13 3.27-.34-1.89-1.38-3.18-3.78-3.18-6.49 0-2.71 1.38-5.12 3.61-6.28-.9-.13-2.28-.22-4.13-.34l.39-2.28v-.01Zm6.24 14.75c2.45-.99 4.3-3.05 4.3-5.98 0-2.93-1.72-4.9-4-4.9-2.28 0-4.04 2.15-4.04 4.95 0 2.8 1.55 4.86 3.74 5.93Zm11.61.99c.17-.82.26-1.68.26-2.58 0-4.04-2.19-6.97-6.54-8.73.9 1.25 1.33 2.67 1.33 4.34 0 2.79-1.55 5.33-3.66 6.71.99.17 1.94.26 2.79.26h5.82Zm4.04 7.44c4.51-.73 6.41-2.92 6.41-7.96V92.89h2.58v13.76c0 6.49-2.84 10.15-8.47 10.88l-.52-2.41v.01Zm7.74-30.88c2.24 0 2.24 3.53 0 3.53-2.37 0-2.37-3.53 0-3.53Zm9.63 30.92c7.22.39 10.88-1.59 11.01-5.93-1.46.6-3.1.9-4.9.9-5.33 0-8.64-3.14-8.64-8.43 0-2.62.77-4.86 2.32-6.62 1.51-1.76 3.57-2.67 6.11-2.67 4.99 0 7.78 3.27 7.78 8.21v7.57c0 5.85-3.57 9.37-11.82 9.37-.65 0-1.2 0-1.72-.04l-.13-2.36h-.01Zm11.09-8.34v-5.33c0-4.3-1.94-6.58-5.33-6.58s-5.68 2.54-5.68 6.54 2.41 6.15 6.36 6.15c1.72 0 3.27-.26 4.64-.77l.01-.01Zm8.69-3.96V77.63h2.58v25.07c0 3.31 1.98 4.99 5.93 4.99.56 0 .86.39.86 1.2 0 .81-.3 1.25-.86 1.25-5.85 0-8.51-2.32-8.51-7.27Z"/><path d="M103.91 107.69c.56 0 .86.39.86 1.2 0 .81-.3 1.25-.86 1.25H80.86v-2.45h15.18c1.38-5.42.17-12.73-8.17-12.73-1.46 0-3.1.3-4.9.86l-.65-2.32c1.85-.69 3.83-1.03 5.93-1.03 4.21 0 7.22 1.38 9.03 4.13 1.76 2.79 2.24 6.49 1.38 11.09h5.25Zm-14.53 9.85c-2.37 0-2.37-3.53 0-3.53 2.24 0 2.24 3.53 0 3.53Z"/><path d="M103.91 110.14v-2.45h.26c3.66 0 5.25-1.76 5.25-6.02V92.9H112v9.16c0 5.37-2.62 8.08-7.91 8.08h-.18Zm2.11-24.12c0-1.03.77-1.76 1.76-1.76 2.28-.22 2.28 3.74 0 3.53-.99 0-1.76-.73-1.76-1.76v-.01Zm7.48-1.77c2.24-.22 2.24 3.74 0 3.53-2.37.22-2.37-3.74 0-3.53Zm6.45 30.92c7.22.39 10.88-1.59 11.01-5.93-1.46.6-3.1.9-4.9.9-5.33 0-8.64-3.14-8.64-8.43 0-2.62.77-4.86 2.32-6.62 1.51-1.76 3.57-2.67 6.11-2.67 4.99 0 7.78 3.27 7.78 8.21v7.57c0 5.85-3.57 9.37-11.82 9.37-.65 0-1.2 0-1.72-.04l-.13-2.36h-.01Zm11.09-8.34v-5.33c0-4.3-1.94-6.58-5.33-6.58s-5.68 2.54-5.68 6.54 2.41 6.15 6.36 6.15c1.72 0 3.27-.26 4.64-.77l.01-.01Zm40.86 2.06c0 .82-.3 1.25-.86 1.25-4.04 0-6.45-.82-7.22-2.45-2.02.95-4.04 1.42-6.02 1.42-5.33 0-8.64-2.75-8.64-7.52 0-5.29 3.7-8.69 9.85-8.69h6.84v10.75c0 3.14 1.29 4.04 5.2 4.04.56 0 .86.39.86 1.2h-.01Zm-8.73-13.54h-4.64c-4.13 0-6.75 2.06-6.75 5.98 0 3.44 2.24 5.25 6.24 5.25 1.98 0 3.7-.43 5.16-1.25v-9.98h-.01Zm-8.86-9.33c0-1.03.77-1.76 1.76-1.76 2.28-.22 2.28 3.74 0 3.53-.99 0-1.76-.73-1.76-1.76v-.01Zm7.48-1.77c2.24-.22 2.24 3.74 0 3.53-2.36.22-2.36-3.74 0-3.53Z"/><path d="M171.03 110.14v-2.45h2.24c.56 0 .86.39.86 1.2 0 .81-.3 1.25-.86 1.25h-2.24Z"/><path d="M173.27 110.14v-2.45h2.24c.56 0 .86.39.86 1.2 0 .81-.3 1.25-.86 1.25h-2.24Z"/><path d="M190.3 108.89c0 .82-.3 1.25-.86 1.25-3.4 0-5.72-1.07-6.88-3.27-1.2 2.19-3.48 3.27-6.88 3.27h-.17v-2.45h.26c3.66 0 5.25-1.76 5.25-6.02V92.9h2.58v9.33c0 3.66 1.93 5.46 5.85 5.46.56 0 .86.39.86 1.2h-.01Zm-11.4 8.65c-.99 0-1.76-.73-1.76-1.76s.77-1.76 1.76-1.76c2.28-.21 2.28 3.74 0 3.53v-.01Zm5.72 0c-2.37.22-2.37-3.74 0-3.53 2.24-.21 2.24 3.74 0 3.53Z"/><path d="M231.06 107.69c.56 0 .86.39.86 1.2 0 .81-.3 1.25-.86 1.25h-29.63c-2.97 0-4.9-.99-5.8-2.92-.9 1.94-2.97 2.92-6.19 2.92v-2.45c3.27 0 4.73-1.76 4.73-5.76v-6.15h2.58v7.44c0 2.19.9 3.61 2.75 4.21 3.1-5.8 6.58-9.98 9.67-12.08 3.1-2.06 5.63-2.88 8.17-2.88 5.89 0 9.16 4.13 9.16 10.36 0 1.46-.21 3.1-.6 4.86h5.16Zm-7.95 0c.52-1.55.77-3.14.77-4.73 0-4.77-2.49-8-6.79-8-4.86 0-10.1 4.08-14.92 12.73h20.94Z"/><path d="M254.11 107.69c.56 0 .86.39.86 1.2 0 .81-.3 1.25-.86 1.25h-23.05v-2.45h15.18c1.38-5.42.17-12.73-8.17-12.73-1.46 0-3.1.3-4.9.86l-.65-2.32c1.85-.69 3.83-1.03 5.93-1.03 4.21 0 7.22 1.38 9.03 4.13 1.76 2.79 2.24 6.49 1.38 11.09h5.25Zm-15.65-23.87c2.24 0 2.24 3.53 0 3.53-2.36 0-2.36-3.53 0-3.53Z"/><path d="M293.37 108.89c0 .82-.3 1.25-.86 1.25-3.4 0-5.68-1.07-6.84-3.22-1.16 2.15-3.31 3.22-6.36 3.22-3.05 0-4.9-1.07-5.98-3.18-1.08 2.11-3.14 3.18-6.24 3.18s-4.9-.99-5.76-3.01c-1.03 1.76-3.44 3.01-6.71 3.01h-.52v-2.45h.56c3.48 0 5.25-1.59 5.25-5.76v-5.89h2.58v7.18c0 2.97 1.5 4.47 4.56 4.47 3.23 0 4.86-1.59 4.86-5.76v-5.89h2.58v7.14c0 3.01 1.59 4.51 4.82 4.51 3.23 0 4.77-1.85 4.77-6.02V92.9h2.58v9.33c0 3.66 1.93 5.46 5.85 5.46.56 0 .86.39.86 1.2Zm-24.85-19.86c0-.99.77-1.76 1.76-1.76s1.76.77 1.76 1.76-.73 1.76-1.76 1.76-1.76-.73-1.76-1.76Zm2.96-4.3c0-.99.73-1.76 1.76-1.76s1.72.77 1.72 1.76-.73 1.81-1.72 1.81-1.76-.77-1.76-1.81Zm4.52 2.53c.99 0 1.72.77 1.72 1.76s-.73 1.76-1.72 1.76-1.81-.73-1.81-1.76.77-1.76 1.81-1.76Z"/><path d="M292.51 107.69c3.96 0 5.33-1.68 5.33-6.02V77.63h2.58v25.07c0 4.95-2.62 7.44-7.91 7.44v-2.45Zm14.88 2.45V77.63h2.58v32.51h-2.58Zm19.86-7.27V77.63h2.58v25.07c0 3.31 1.98 4.99 5.93 4.99.56 0 .86.39.86 1.2 0 .81-.3 1.25-.86 1.25-5.85 0-8.51-2.32-8.51-7.27Z"/><path d="M335.77 110.14v-2.45h2.24c.56 0 .86.39.86 1.2 0 .81-.3 1.25-.86 1.25h-2.24Z"/><path d="M338 110.14v-2.45h2.24c.56 0 .86.39.86 1.2 0 .81-.3 1.25-.86 1.25H338Z"/><path d="M340.24 110.14v-2.45h2.24c.56 0 .86.39.86 1.2 0 .81-.3 1.25-.86 1.25h-2.24Z"/><path d="M342.48 110.14v-2.45h2.24c.56 0 .86.39.86 1.2 0 .81-.3 1.25-.86 1.25h-2.24Z"/><path d="M344.71 110.14v-2.45h2.24c.56 0 .86.39.86 1.2 0 .81-.3 1.25-.86 1.25h-2.24Z"/><path d="M368.71 107.69c.56 0 .86.39.86 1.2 0 .81-.3 1.25-.86 1.25h-3.74c.73 1.42 1.12 2.71 1.12 3.91 0 3.91-3.01 6.41-7.65 6.41-5.16 0-7.7-2.79-7.7-7.83v-2.49h-3.78v-2.45h3.78v-5.68c0-5.8 2.62-9.42 7.74-9.42 2.32 0 4.13.77 5.42 2.28 1.25 1.55 1.89 3.44 1.89 5.72 0 3.01-.9 5.38-2.71 7.09h5.63v.01Zm-15.4 0h3.91c3.61 0 5.98-2.88 5.98-6.88 0-3.4-1.94-5.68-4.99-5.68-3.05 0-4.9 2.28-4.9 6.58v5.98Zm10.11 6.15c0-1.2-.43-2.45-1.25-3.7h-8.86v2.28c0 3.74 1.68 5.5 5.29 5.5 3.23 0 4.82-1.55 4.82-4.08Z"/><path d="M368.71 107.69c3.91 0 5.5-1.68 5.5-6.02V92.9h2.58v9.16c0 5.63-2.71 8.08-8.08 8.08v-2.45Zm5.16 6.32c2.24 0 2.24 3.53 0 3.53-2.37 0-2.37-3.53 0-3.53Zm51.21-21.11h2.58v9.8c0 4.47-2.97 7.44-8.26 7.44h-16.94c-6.24 0-9.89-3.05-9.89-8.08 0-1.98.47-4.21 1.38-6.71l2.41.65c-.77 2.49-1.16 4.39-1.16 5.63 0 4.04 2.54 6.06 7.61 6.06h16.3c4.08 0 5.98-1.85 5.98-6.02V92.9h-.01Zm-19.82-3.1c0-1.03.77-1.76 1.76-1.76 2.28-.22 2.28 3.74 0 3.53-.99 0-1.76-.73-1.76-1.76v-.01Zm7.48-1.76c2.24-.22 2.24 3.74 0 3.53-2.37.22-2.37-3.74 0-3.53Zm28.59-6.02c1.29 2.45.52 5.33-1.93 5.33-.9 0-1.59-.26-2.06-.73-.47.82-1.2 1.2-2.28 1.2-1.76 0-2.84-1.07-2.84-2.75 0-.65.13-1.33.43-2.02l1.03.3c-.13.39-.22.82-.22 1.29 0 1.12.52 1.68 1.59 1.68.95 0 1.42-.56 1.42-1.68 0-.3-.04-.65-.13-.99l1.08-.26c.17.6.26 1.16.26 1.63v.22c.39.47.95.69 1.63.69.9 0 1.38-.52 1.38-1.51 0-.65-.13-1.29-.39-1.98l1.03-.43v.01Zm2.54 25.67c.56 0 .86.39.86 1.2 0 .81-.3 1.25-.86 1.25h-5.89v-.26c-.77 4.47-3.53 7.01-8.21 7.65l-.52-2.41c4.51-.73 6.41-2.92 6.41-7.96V92.88h2.58v13.76c0 .47 0 .82-.04 1.03h5.68l-.01.02Z"/><path d="M443.87 110.14v-2.45h2.24c.56 0 .86.39.86 1.2 0 .81-.3 1.25-.86 1.25h-2.24Z"/><path d="M446.11 110.14v-2.45h2.24c.56 0 .86.39.86 1.2 0 .81-.3 1.25-.86 1.25h-2.24Z"/><path d="M448.34 110.14v-2.45h2.24c.56 0 .86.39.86 1.2 0 .81-.3 1.25-.86 1.25h-2.24Z"/><path d="M450.58 110.14v-2.45h2.24c.56 0 .86.39.86 1.2 0 .81-.3 1.25-.86 1.25h-2.24Z"/><path d="M471.52 94.96c1.42 1.68 2.15 3.83 2.15 6.45 0 5.16-3.14 8.73-9.5 8.73h-11.35v-2.45h6.02c-1.42-1.94-2.15-4-2.15-6.28 0-2.62.82-4.77 2.49-6.45 1.63-1.68 3.74-2.49 6.32-2.49s4.56.82 6.02 2.49Zm-7.14 12.73c4.43 0 6.67-2.54 6.67-6.32 0-3.78-2.32-6.41-5.8-6.41s-5.93 2.45-5.93 6.41c0 2.15.86 4.26 2.54 6.32h2.54-.02Zm55.08 0c.56 0 .86.39.86 1.2 0 .81-.3 1.25-.86 1.25h-4.21c1.25.82 1.89 2.02 1.89 3.57 0 2.11-1.33 3.91-4 5.42-2.67 1.46-6.19 2.19-10.53 2.19-9.42 0-14.02-3.53-14.02-9.76 0-1.63.34-3.48.99-5.55l2.41.65c-.52 1.89-.77 3.44-.77 4.6 0 5.03 3.53 7.52 11.57 7.52 3.57 0 6.45-.47 8.56-1.46 2.11-.99 3.18-2.24 3.18-3.74 0-1.89-1.85-3.31-5.5-4.21l-4.94-1.25.64-2.19 5.8 1.38c1.08.26 2.49.39 4.17.39h4.77l-.01-.01Zm-19.86 21.03c-.99 0-1.76-.73-1.76-1.76s.77-1.76 1.76-1.76c2.28-.22 2.28 3.74 0 3.53v-.01Zm5.72 0c-2.37.22-2.37-3.74 0-3.53 2.24-.22 2.24 3.74 0 3.53Z"/><path d="M534.26 108.89c0 .82-.3 1.25-.86 1.25-3.4 0-5.72-1.07-6.88-3.27-1.2 2.19-3.48 3.27-6.88 3.27h-.17v-2.45h.26c3.66 0 5.25-1.76 5.25-6.02V92.9h2.58v9.33c0 3.66 1.93 5.46 5.85 5.46.56 0 .86.39.86 1.2h-.01Zm-12.69-22.87c0-1.03.77-1.76 1.76-1.76 2.28-.22 2.28 3.74 0 3.53-.99 0-1.76-.73-1.76-1.76v-.01Zm7.48-1.77c2.24-.22 2.24 3.74 0 3.53-2.37.22-2.37-3.74 0-3.53Z"/><path d="M533.4 107.69c3.96 0 5.33-1.68 5.33-6.02V77.63h2.58v25.07c0 4.95-2.62 7.44-7.91 7.44v-2.45Zm14.87 2.45V77.63h2.58v32.51h-2.58Zm50.87-17.24h2.58v9.8c0 4.47-2.97 7.44-8.26 7.44h-16.94c-6.24 0-9.89-3.05-9.89-8.08 0-1.98.47-4.21 1.38-6.71l2.41.65c-.77 2.49-1.16 4.39-1.16 5.63 0 4.04 2.54 6.06 7.61 6.06h16.3c4.08 0 5.98-1.85 5.98-6.02V92.9h-.01Zm-19.82-3.1c0-1.03.77-1.76 1.76-1.76 2.28-.22 2.28 3.74 0 3.53-.99 0-1.76-.73-1.76-1.76v-.01Zm7.48-1.76c2.24-.22 2.24 3.74 0 3.53-2.37.22-2.37-3.74 0-3.53Zm20.17 14.83V77.63h2.58v25.07c0 3.31 1.98 4.99 5.93 4.99.56 0 .86.39.86 1.2 0 .81-.3 1.25-.86 1.25-5.85 0-8.51-2.32-8.51-7.27Z"/><path d="M615.48 110.14v-2.45h2.24c.56 0 .86.39.86 1.2 0 .81-.3 1.25-.86 1.25h-2.24Z"/><path d="M617.72 110.14v-2.45h2.24c.56 0 .86.39.86 1.2 0 .81-.3 1.25-.86 1.25h-2.24Z"/><path d="M619.95 110.14v-2.45h2.24c.56 0 .86.39.86 1.2 0 .81-.3 1.25-.86 1.25h-2.24Z"/><path d="M622.19 110.14v-2.45h2.24c.56 0 .86.39.86 1.2 0 .81-.3 1.25-.86 1.25h-2.24Z"/><path d="M624.43 110.14v-2.45h2.24c.56 0 .86.39.86 1.2 0 .81-.3 1.25-.86 1.25h-2.24Z"/><path d="M626.66 107.69c3.91 0 5.5-1.68 5.5-6.02V92.9h2.58v9.16c0 5.63-2.71 8.08-8.08 8.08v-2.45Zm5.16 6.32c2.24 0 2.24 3.53 0 3.53-2.37 0-2.37-3.53 0-3.53Zm28.47-6.32c.56 0 .86.39.86 1.2 0 .81-.3 1.25-.86 1.25h-4.43c-.64 4.94-4.51 7.44-11.7 7.44-.65 0-1.2 0-1.76-.04l-.13-2.36c6.92.39 10.62-1.29 11.01-5.03h-3.31c-6.88 0-10.23-3.18-10.23-8.56 0-2.54.77-4.73 2.36-6.49 1.55-1.76 3.57-2.67 6.06-2.67 4.77 0 7.78 3.1 7.78 8.21v7.05h4.35Zm-10.02 0h3.1v-6.19c0-4.13-1.89-6.58-5.29-6.58-3.4 0-5.72 2.58-5.72 6.36 0 4.34 2.45 6.41 7.91 6.41Z"/><path d="M660.29 110.14v-2.45h2.24c.56 0 .86.39.86 1.2 0 .81-.3 1.25-.86 1.25h-2.24Z"/><path d="M662.53 110.14v-2.45h2.24c.56 0 .86.39.86 1.2 0 .81-.3 1.25-.86 1.25h-2.24Z"/><path d="M664.76 110.14v-2.45H667c.56 0 .86.39.86 1.2 0 .81-.3 1.25-.86 1.25h-2.24Z"/><path d="M692.02 107.69c.56 0 .86.39.86 1.2 0 .81-.3 1.25-.86 1.25h-3.05c-4.17 0-7.48-.6-10.02-1.81-2.88 1.2-6.41 1.81-10.62 1.81H667v-2.45h1.55c3.31 0 6.11-.39 8.38-1.2-1.03-1.55-2.79-3.57-3.91-4.86-.56-.6-2.45-2.62-2.92-3.14.17-1.29.39-2.24.6-2.88 2.84-2.06 5.93-3.1 9.29-3.1 4.77 0 7.83 2.36 7.83 6.19 0 3.1-1.98 5.8-5.93 8.13 1.98.56 4.26.86 6.88.86h3.27-.02Zm-19.69-10.15c2.28 1.94 4.64 4.56 7.09 7.83 3.83-1.85 5.76-3.96 5.76-6.32 0-2.36-2.11-4-5.72-4-2.37 0-4.73.73-7.09 2.19l-.04.3Z"/><path d="M733.65 107.69c.56 0 .86.39.86 1.2 0 .81-.3 1.25-.86 1.25h-29.63c-2.97 0-4.9-.99-5.8-2.92-.9 1.94-2.97 2.92-6.19 2.92v-2.45c3.27 0 4.73-1.76 4.73-5.76v-6.15h2.58v7.44c0 2.19.9 3.61 2.75 4.21 3.1-5.8 6.58-9.98 9.67-12.08 3.1-2.06 5.63-2.88 8.17-2.88 5.89 0 9.16 4.13 9.16 10.36 0 1.46-.21 3.1-.6 4.86h5.16Zm-7.96 0c.52-1.55.77-3.14.77-4.73 0-4.77-2.49-8-6.79-8-4.86 0-10.1 4.08-14.92 12.73h20.94Z"/><path d="M733.65 107.69c3.96 0 5.33-1.68 5.33-6.02V77.63h2.58v25.07c0 4.95-2.62 7.44-7.91 7.44v-2.45Zm14.88 2.45V77.63h2.58v32.51h-2.58Zm10.1 5.03c7.22.39 10.88-1.59 11.01-5.93-1.46.6-3.1.9-4.9.9-5.33 0-8.64-3.14-8.64-8.43 0-2.62.77-4.86 2.32-6.62 1.51-1.76 3.57-2.67 6.11-2.67 4.99 0 7.78 3.27 7.78 8.21v7.57c0 5.85-3.57 9.37-11.82 9.37-.65 0-1.2 0-1.72-.04l-.13-2.36h-.01Zm11.09-8.34v-5.33c0-4.3-1.94-6.58-5.33-6.58s-5.68 2.54-5.68 6.54 2.41 6.15 6.36 6.15c1.72 0 3.27-.26 4.64-.77l.01-.01ZM28.79 162.49c0 .82-.3 1.25-.86 1.25-4.04 0-6.45-.82-7.22-2.45-2.02.95-4.04 1.42-6.02 1.42-5.33 0-8.64-2.75-8.64-7.52 0-5.29 3.7-8.69 9.85-8.69h6.84v10.75c0 3.14 1.29 4.04 5.2 4.04.56 0 .86.39.86 1.2h-.01Zm-8.73-13.54h-4.64c-4.13 0-6.75 2.06-6.75 5.98 0 3.44 2.24 5.25 6.24 5.25 1.98 0 3.7-.43 5.16-1.25v-9.98h-.01Zm-8.86-9.33c0-1.03.77-1.76 1.76-1.76 2.28-.22 2.28 3.74 0 3.53-.99 0-1.76-.73-1.76-1.76v-.01Zm7.49-1.77c2.24-.22 2.24 3.74 0 3.53-2.36.22-2.36-3.74 0-3.53Z"/><path d="M27.93 163.74v-2.45h2.24c.56 0 .86.39.86 1.2 0 .81-.3 1.25-.86 1.25h-2.24Z"/><path d="M30.17 163.74v-2.45h2.24c.56 0 .86.39.86 1.2 0 .81-.3 1.25-.86 1.25h-2.24Z"/><path d="M32.4 163.74v-2.45h2.24c.56 0 .86.39.86 1.2 0 .81-.3 1.25-.86 1.25H32.4Z"/><path d="M34.64 163.74v-2.45h2.24c.56 0 .86.39.86 1.2 0 .81-.3 1.25-.86 1.25h-2.24Z"/><path d="M36.88 161.29c3.91 0 5.5-1.68 5.5-6.02v-8.77h2.58v9.16c0 5.63-2.71 8.08-8.08 8.08v-2.45Zm5.16 6.32c2.24 0 2.24 3.53 0 3.53-2.37 0-2.37-3.53 0-3.53Zm19.99-6.32c.56 0 .86.39.86 1.2 0 .81-.3 1.25-.86 1.25h-5.89v-.26c-.77 4.47-3.53 7.01-8.21 7.65l-.52-2.41c4.51-.73 6.41-2.92 6.41-7.95v-14.28h2.58v13.76c0 .47 0 .82-.04 1.03h5.68l-.01.01Z"/><path d="M62.03 163.74v-2.45h2.24c.56 0 .86.39.86 1.2 0 .81-.3 1.25-.86 1.25h-2.24Z"/><path d="M64.27 163.74v-2.45h2.24c.56 0 .86.39.86 1.2 0 .81-.3 1.25-.86 1.25h-2.24Z"/><path d="M66.5 163.74v-2.45h2.24c.56 0 .86.39.86 1.2 0 .81-.3 1.25-.86 1.25H66.5Z"/><path d="M91.79 161.29c.56 0 .86.39.86 1.2 0 .81-.3 1.25-.86 1.25H68.74v-2.45h15.18c1.38-5.42.17-12.73-8.17-12.73-1.46 0-3.1.3-4.9.86l-.65-2.32c1.85-.69 3.83-1.03 5.93-1.03 4.21 0 7.22 1.38 9.03 4.13 1.76 2.79 2.24 6.49 1.38 11.09h5.25Zm-14.54 9.85c-2.37 0-2.37-3.53 0-3.53 2.24 0 2.24 3.53 0 3.53Z"/><path d="M91.79 163.74v-2.45h2.24c.56 0 .86.39.86 1.2 0 .81-.3 1.25-.86 1.25h-2.24Z"/><path d="M94.02 163.74v-2.45h2.24c.56 0 .86.39.86 1.2 0 .81-.3 1.25-.86 1.25h-2.24Z"/><path d="M96.26 163.74v-2.45h.26c3.66 0 5.25-1.76 5.25-6.02v-8.77h2.58v9.16c0 5.38-2.62 8.08-7.91 8.08h-.18Zm2.11-24.12c0-1.03.77-1.76 1.76-1.76 2.28-.22 2.28 3.74 0 3.53-.99 0-1.76-.73-1.76-1.76v-.01Zm7.48-1.77c2.24-.22 2.24 3.74 0 3.53-2.37.22-2.37-3.74 0-3.53Zm48.2 23.44c.56 0 .86.39.86 1.2 0 .81-.3 1.25-.86 1.25h-5.16c-.82 5.16-5.07 7.05-13.72 7.05-9.76 0-14.62-3.31-14.62-9.98 0-1.68.34-3.57.99-5.59l2.41.65c-.52 1.59-.77 3.1-.77 4.6 0 5.2 3.74 7.78 12 7.78 6.92 0 10.66-1.5 11.14-4.51h-3.48c-6.67 0-10.02-2.88-10.02-8.64 0-2.45.77-4.6 2.28-6.36 1.5-1.76 3.61-2.67 6.24-2.67 4.69 0 7.7 3.1 7.7 8.47v6.75h5.03-.02Zm-7.61 0v-6.19c0-4.17-1.85-6.54-5.33-6.54s-5.63 2.49-5.63 6.49c0 4.43 2.54 6.23 7.7 6.23h3.27l-.01.01Zm-9.81-22.1c0-1.03.77-1.76 1.76-1.76 2.28-.22 2.28 3.74 0 3.53-.99 0-1.76-.73-1.76-1.76v-.01Zm7.49-1.77c2.24-.22 2.24 3.74 0 3.53-2.37.21-2.37-3.74 0-3.53Z"/><path d="M154.05 163.74v-2.45h2.24c.56 0 .86.39.86 1.2 0 .81-.3 1.25-.86 1.25h-2.24Z"/><path d="M156.29 163.74v-2.45h2.24c.56 0 .86.39.86 1.2 0 .81-.3 1.25-.86 1.25h-2.24Z"/><path d="M158.52 163.74v-2.45h2.24c.56 0 .86.39.86 1.2 0 .81-.3 1.25-.86 1.25h-2.24Z"/><path d="M175.38 162.49c0 .82-.3 1.25-.86 1.25-3.35 0-5.63-1.07-6.79-3.18-1.25 2.11-3.57 3.18-6.97 3.18v-2.45c3.96 0 5.33-1.68 5.33-6.02v-24.04h2.58v24.6c0 3.66 1.93 5.46 5.85 5.46.56 0 .86.39.86 1.2Z"/><path d="M174.52 163.74v-2.45h2.24c.56 0 .86.39.86 1.2 0 .81-.3 1.25-.86 1.25h-2.24Z"/><path d="M199.8 161.29c.56 0 .86.39.86 1.2 0 .81-.3 1.25-.86 1.25h-23.05v-2.45h15.18c1.38-5.42.17-12.73-8.17-12.73-1.46 0-3.1.3-4.9.86l-.65-2.32c1.85-.69 3.83-1.03 5.93-1.03 4.21 0 7.22 1.38 9.03 4.13 1.76 2.79 2.24 6.49 1.38 11.09h5.25Zm-15.65-23.87c2.24 0 2.24 3.53 0 3.53-2.36 0-2.36-3.53 0-3.53Z"/><path d="M199.8 163.74v-2.45h2.24c.56 0 .86.39.86 1.2 0 .81-.3 1.25-.86 1.25h-2.24Z"/><path d="M216.83 162.49c0 .82-.3 1.25-.86 1.25-3.4 0-5.72-1.07-6.88-3.27-1.2 2.19-3.48 3.27-6.88 3.27h-.17v-2.45h.26c3.66 0 5.25-1.76 5.25-6.02v-8.77h2.58v9.33c0 3.66 1.93 5.46 5.85 5.46.56 0 .86.39.86 1.2h-.01Zm-12.68-22.87c0-1.03.77-1.76 1.76-1.76 2.28-.22 2.28 3.74 0 3.53-.99 0-1.76-.73-1.76-1.76v-.01Zm7.48-1.77c2.24-.22 2.24 3.74 0 3.53-2.37.22-2.37-3.74 0-3.53Z"/><path d="M215.97 163.74v-2.45h2.24c.56 0 .86.39.86 1.2 0 .81-.3 1.25-.86 1.25h-2.24Z"/><path d="M218.21 161.29c3.96 0 5.33-1.68 5.33-6.02v-24.04h2.58v25.07c0 4.95-2.62 7.44-7.91 7.44v-2.45Zm22.4 7.44c4.51-.73 6.41-2.92 6.41-7.95V146.5h2.58v13.76c0 6.49-2.84 10.15-8.47 10.88l-.52-2.41Zm7.74-30.88c2.24 0 2.24 3.53 0 3.53-2.36 0-2.36-3.53 0-3.53Zm8.21 18.62v-25.24h2.58v25.07c0 3.31 1.98 4.99 5.93 4.99.56 0 .86.39.86 1.2 0 .81-.3 1.25-.86 1.25-5.85 0-8.51-2.32-8.51-7.27Z"/><path d="M265.08 163.74v-2.45h2.24c.56 0 .86.39.86 1.2 0 .81-.3 1.25-.86 1.25h-2.24Z"/><path d="M267.31 163.74v-2.45h2.24c.56 0 .86.39.86 1.2 0 .81-.3 1.25-.86 1.25h-2.24Z"/><path d="M269.55 163.74v-2.45h2.24c.56 0 .86.39.86 1.2 0 .81-.3 1.25-.86 1.25h-2.24Z"/><path d="M271.78 163.74v-2.45h2.24c.56 0 .86.39.86 1.2 0 .81-.3 1.25-.86 1.25h-2.24Z"/><path d="M274.02 163.74v-2.45h2.24c.56 0 .86.39.86 1.2 0 .81-.3 1.25-.86 1.25h-2.24Z"/><path d="M276.26 163.74v-2.45h2.24c.56 0 .86.39.86 1.2 0 .81-.3 1.25-.86 1.25h-2.24Z"/><path d="M301.54 161.29c.56 0 .86.39.86 1.2 0 .81-.3 1.25-.86 1.25h-23.05v-2.45h15.18c1.38-5.42.17-12.73-8.17-12.73-1.46 0-3.1.3-4.9.86l-.65-2.32c1.85-.69 3.83-1.03 5.93-1.03 4.21 0 7.22 1.38 9.03 4.13 1.76 2.79 2.24 6.49 1.38 11.09h5.25Zm-14.53 9.85c-2.37 0-2.37-3.53 0-3.53 2.24 0 2.24 3.53 0 3.53Z"/><path d="M301.54 161.29c3.91 0 5.5-1.68 5.5-6.02v-8.77h2.58v9.16c0 5.63-2.71 8.08-8.08 8.08v-2.45Zm6.84-23.44c2.24 0 2.24 3.53 0 3.53-2.37 0-2.37-3.53 0-3.53Zm26.1-6.62h2.58v24.51c0 5.12-3.01 8-8.51 8h-15.01v-2.45h9.37v-21.2h2.58v21.2h2.79c4.17 0 6.19-1.89 6.19-6.19v-23.86l.01-.01Zm-10.58 41.88h3.74v1.38h-6.88v-1.38h1.63c-.43-.69-.64-1.42-.64-2.24 0-1.94 1.42-3.27 3.48-3.27.65 0 1.29.09 2.02.3l-.26 1.33c-.47-.13-.99-.22-1.5-.22-1.33 0-2.28.77-2.28 2.02 0 .73.21 1.42.69 2.06v.02Zm20.13-9.37v-32.51h2.58v32.51h-2.58Zm40.84-1.25c0 .82-.3 1.25-.86 1.25-4.04 0-6.45-.82-7.22-2.45-2.02.95-4.04 1.42-6.02 1.42-5.33 0-8.64-2.75-8.64-7.52 0-5.29 3.7-8.69 9.85-8.69h6.84v10.75c0 3.14 1.29 4.04 5.2 4.04.56 0 .86.39.86 1.2h-.01Zm-8.73-13.54h-4.64c-4.13 0-6.75 2.06-6.75 5.98 0 3.44 2.24 5.25 6.24 5.25 1.98 0 3.7-.43 5.16-1.25v-9.98h-.01Zm-8.85-9.33c0-1.03.77-1.76 1.76-1.76 2.28-.22 2.28 3.74 0 3.53-.99 0-1.76-.73-1.76-1.76v-.01Zm7.48-1.77c2.24-.22 2.24 3.74 0 3.53-2.36.22-2.36-3.74 0-3.53Z"/><path d="M384.01 163.74v-2.45h2.24c.56 0 .86.39.86 1.2 0 .81-.3 1.25-.86 1.25h-2.24Z"/><path d="M386.25 163.74v-2.45h2.24c.56 0 .86.39.86 1.2 0 .81-.3 1.25-.86 1.25h-2.24Z"/><path d="M388.49 163.74v-2.45h2.24c.56 0 .86.39.86 1.2 0 .81-.3 1.25-.86 1.25h-2.24Z"/><path d="M390.72 163.74v-2.45h2.24c.56 0 .86.39.86 1.2 0 .81-.3 1.25-.86 1.25h-2.24Z"/><path d="M392.96 163.74v-2.45h2.24c.56 0 .86.39.86 1.2 0 .81-.3 1.25-.86 1.25h-2.24Z"/><path d="M395.19 163.74v-2.45h2.24c.56 0 .86.39.86 1.2 0 .81-.3 1.25-.86 1.25h-2.24Z"/><path d="M433.33 161.29c.56 0 .86.39.86 1.2 0 .81-.3 1.25-.86 1.25h-35.9v-2.45h4.56v-30.06h2.58v25.63c4.34-7.09 9.93-10.79 15.22-10.79 5.89 0 9.12 4.21 9.12 10.36 0 1.63-.21 3.27-.6 4.86h5.03-.01Zm-7.78 0c.52-1.68.77-3.31.77-4.86 0-4.77-2.45-7.87-6.75-7.87-2.54 0-5.12 1.12-7.83 3.31s-5.12 5.33-7.14 9.42h20.95Zm-8.77-23.87c2.24 0 2.24 3.53 0 3.53-2.37 0-2.37-3.53 0-3.53Z"/><path d="M433.34 163.74v-2.45h2.24c.56 0 .86.39.86 1.2 0 .81-.3 1.25-.86 1.25h-2.24Z"/><path d="M435.57 163.74v-2.45h2.24c.56 0 .86.39.86 1.2 0 .81-.3 1.25-.86 1.25h-2.24Z"/><path d="M460.86 161.29c.56 0 .86.39.86 1.2 0 .81-.3 1.25-.86 1.25h-23.05v-2.45h15.18c1.38-5.42.17-12.73-8.17-12.73-1.46 0-3.1.3-4.9.86l-.65-2.32c1.85-.69 3.83-1.03 5.93-1.03 4.21 0 7.22 1.38 9.03 4.13 1.76 2.79 2.24 6.49 1.38 11.09h5.25Z"/><path d="M460.86 161.29c3.96 0 5.33-1.68 5.33-6.02v-24.04h2.58v25.07c0 4.95-2.62 7.44-7.91 7.44v-2.45Zm55.42 0c.56 0 .86.39.86 1.2 0 .81-.3 1.25-.86 1.25h-4.21c1.25.82 1.89 2.02 1.89 3.57 0 2.11-1.33 3.91-4 5.42-2.67 1.46-6.19 2.19-10.53 2.19-9.42 0-14.02-3.53-14.02-9.76 0-1.63.34-3.48.99-5.55l2.41.65c-.52 1.89-.77 3.44-.77 4.6 0 5.03 3.53 7.52 11.57 7.52 3.57 0 6.45-.47 8.56-1.46 2.11-.99 3.18-2.24 3.18-3.74 0-1.89-1.85-3.31-5.5-4.21l-4.94-1.25.64-2.19 5.8 1.38c1.08.26 2.49.39 4.17.39h4.77l-.01-.01Z"/><path d="M516.28 161.29c3.96 0 5.33-1.68 5.33-6.02v-24.04h2.58v25.07c0 4.95-2.62 7.44-7.91 7.44v-2.45Zm19.61 11.82v1.38h-6.88v-1.38h1.63c-.43-.69-.64-1.42-.64-2.24 0-1.94 1.42-3.27 3.48-3.27.65 0 1.33.09 2.02.3l-.26 1.33c-.47-.13-.99-.22-1.5-.22-1.33 0-2.28.77-2.28 2.02 0 .73.21 1.42.69 2.06h3.74v.02Zm-2.15-41.88v32.51h-2.58v-32.51h2.58Zm22.49 1.29-.13-.04.22-1.38 9.63-1.46.13.04-.22 1.38-9.63 1.46Zm0 3.92-.13-.04.22-1.38 9.63-1.46.13.04-.22 1.38-9.63 1.46Zm15.26-5.21h2.58v24.51c0 5.12-3.01 8-8.51 8h-15.01v-2.45h9.37v-21.2h2.58v21.2h2.79c4.17 0 6.19-1.89 6.19-6.19v-23.86l.01-.01Zm28.13 30.06c.56 0 .86.39.86 1.2 0 .81-.3 1.25-.86 1.25h-4.43c-.64 4.94-4.51 7.44-11.7 7.44-.65 0-1.2 0-1.76-.04l-.13-2.36c6.92.39 10.62-1.29 11.01-5.03h-3.31c-6.88 0-10.23-3.18-10.23-8.56 0-2.54.77-4.73 2.36-6.49 1.55-1.76 3.57-2.67 6.06-2.67 4.77 0 7.78 3.1 7.78 8.21v7.05h4.35Zm-10.02 0h3.1v-6.19c0-4.13-1.89-6.58-5.29-6.58-3.4 0-5.72 2.58-5.72 6.36 0 4.34 2.45 6.41 7.91 6.41Z"/><path d="M636.68 156.43c0 2.32-.43 4.77-1.33 7.31h-23.74c-2.97 0-4.9-.99-5.81-2.92-.9 1.93-2.97 2.92-6.19 2.92v-2.45c3.27 0 4.73-1.76 4.73-5.76v-6.15h2.58v7.44c0 2.19.9 3.61 2.75 4.21 3.1-5.8 6.58-9.98 9.67-12.08 3.1-2.06 5.63-2.88 8.17-2.88 5.89 0 9.16 4.13 9.16 10.36h.01Zm-3.4 4.86c.52-1.55.77-3.14.77-4.73 0-4.77-2.49-8-6.79-8-4.86 0-10.1 4.08-14.92 12.73h20.94Zm10.28 7.48c7.22.39 10.88-1.59 11.01-5.93-1.46.6-3.1.9-4.9.9-5.33 0-8.64-3.14-8.64-8.43 0-2.62.77-4.86 2.32-6.62 1.51-1.76 3.57-2.67 6.11-2.67 4.99 0 7.78 3.27 7.78 8.21v7.57c0 5.85-3.57 9.37-11.82 9.37-.65 0-1.2 0-1.72-.04l-.13-2.36h-.01Zm11.1-8.34v-5.33c0-4.3-1.94-6.58-5.33-6.58s-5.68 2.54-5.68 6.54 2.41 6.15 6.36 6.15c1.72 0 3.27-.26 4.64-.77l.01-.01Zm16.21 8.3c4.51-.73 6.41-2.92 6.41-7.95V146.5h2.58v13.76c0 6.49-2.84 10.15-8.47 10.88l-.52-2.41Zm15.95-4.99v-32.51h2.58v32.51h-2.58Zm19.65-2.45c.56 0 .86.39.86 1.2 0 .81-.3 1.25-.86 1.25h-5.89v-.26c-.77 4.47-3.53 7.01-8.21 7.65l-.52-2.41c4.51-.73 6.41-2.92 6.41-7.95v-14.28h2.58v13.76c0 .47 0 .82-.04 1.03h5.68l-.01.01Z"/><path d="M743.54 156.43c0 2.32-.43 4.77-1.33 7.31h-23.74c-2.97 0-4.9-.99-5.81-2.92-.9 1.93-2.97 2.92-6.19 2.92v-2.45c3.27 0 4.73-1.76 4.73-5.76v-6.15h2.58v7.44c0 2.19.9 3.61 2.75 4.21 3.1-5.8 6.58-9.98 9.67-12.08 3.1-2.06 5.63-2.88 8.17-2.88 5.89 0 9.16 4.13 9.16 10.36h.01Zm-3.4 4.86c.52-1.55.77-3.14.77-4.73 0-4.77-2.49-8-6.79-8-4.86 0-10.1 4.08-14.92 12.73h20.94Zm11.09 11.82h3.74v1.38h-6.88v-1.38h1.63c-.43-.69-.64-1.42-.64-2.24 0-1.94 1.42-3.27 3.48-3.27.65 0 1.29.09 2.02.3l-.26 1.33c-.47-.13-.99-.22-1.5-.22-1.33 0-2.28.77-2.28 2.02 0 .73.21 1.42.69 2.06v.02Zm7.14-10.62c0 .82-.3 1.25-.86 1.25-5.85 0-8.51-2.32-8.51-7.27v-25.24h2.58v25.07c0 3.31 1.98 4.99 5.93 4.99.56 0 .86.39.86 1.2Z"/><path d="M757.51 161.29c3.91 0 5.5-1.68 5.5-6.02v-8.77h2.58v9.16c0 5.63-2.71 8.08-8.08 8.08v-2.45Zm5.16 6.32c2.24 0 2.24 3.53 0 3.53-2.37 0-2.37-3.53 0-3.53ZM30.02 214.89c.56 0 .86.39.86 1.2 0 .81-.3 1.25-.86 1.25h-5.85c-1.2 4.64-5.16 7.05-10.96 7.05-7.1 0-11.14-3.87-11.14-9.72 0-2.28.6-4.82 1.76-7.61l2.28.82c-.95 2.36-1.42 4.56-1.42 6.49 0 4.99 3.14 7.48 8.6 7.48 5.8 0 8.69-2.79 8.69-8.38v-10.23h2.58v11.65h5.46Zm-16.3-18.79c2.24 0 2.24 3.53 0 3.53-2.37 0-2.37-3.53 0-3.53Z"/><path d="M48.72 202.16c1.42 1.68 2.15 3.83 2.15 6.45 0 5.16-3.14 8.73-9.5 8.73H30.02v-2.45h6.02c-1.42-1.94-2.15-4-2.15-6.28 0-2.62.82-4.77 2.49-6.45 1.63-1.68 3.74-2.49 6.32-2.49s4.56.82 6.02 2.49Zm-7.14 12.73c4.43 0 6.67-2.54 6.67-6.32 0-3.78-2.32-6.41-5.8-6.41s-5.93 2.45-5.93 6.41c0 2.15.86 4.26 2.54 6.32h2.54-.02Zm25.72 2.45v-32.51h2.58v32.51H67.3Zm12.21-24.6-.13-.04.22-1.38 9.63-1.46.13.04-.22 1.38-9.63 1.46Zm0 3.92-.13-.04.22-1.38 9.63-1.46.13.04-.22 1.38-9.63 1.46Zm11.14 18.4v2.28H74.91v-2.28h4.26c-1.38-1.59-2.06-3.44-2.06-5.63s.77-4 2.37-5.5 3.57-2.24 6.02-2.24c1.46 0 2.88.22 4.26.69l-.52 2.24c-1.2-.34-2.32-.52-3.4-.52-3.83 0-6.32 2.11-6.32 5.55 0 1.81.82 3.61 2.41 5.42h8.73l-.01-.01Zm16.59-.17c.56 0 .86.39.86 1.2 0 .81-.3 1.25-.86 1.25h-5.89v-.26c-.77 4.47-3.53 7.01-8.21 7.65l-.52-2.41c4.51-.73 6.41-2.92 6.41-7.95v-14.28h2.58v13.76c0 .47 0 .82-.04 1.03h5.68l-.01.01Zm-6.88-23.44c2.24 0 2.24 3.53 0 3.53-2.37 0-2.37-3.53 0-3.53Z"/><path d="M107.24 217.34v-2.45h15.18c1.38-5.42.17-12.73-8.17-12.73-1.46 0-3.1.3-4.9.86l-.65-2.32c1.85-.69 3.83-1.03 5.93-1.03 9.42 0 12.64 7.44 9.85 17.67h-17.24Zm8.52 3.87c2.24 0 2.24 3.53 0 3.53-2.37 0-2.37-3.53 0-3.53Zm22.7 1.12c4.51-.73 6.41-2.92 6.41-7.95V200.1h2.58v13.76c0 6.49-2.84 10.15-8.47 10.88l-.52-2.41Zm35.39-7.44c.56 0 .86.39.86 1.2 0 .81-.3 1.25-.86 1.25h-4.43c-.64 4.94-4.51 7.44-11.7 7.44-.65 0-1.2 0-1.76-.04l-.13-2.36c6.92.39 10.62-1.29 11.01-5.03h-3.31c-6.88 0-10.23-3.18-10.23-8.56 0-2.54.77-4.73 2.36-6.49 1.55-1.76 3.57-2.67 6.06-2.67 4.77 0 7.78 3.1 7.78 8.21v7.05h4.35Zm-10.02 0h3.1v-6.19c0-4.13-1.89-6.58-5.29-6.58-3.4 0-5.72 2.58-5.72 6.36 0 4.34 2.45 6.41 7.91 6.41Z"/><path d="M173.85 217.34v-2.45h2.24c.56 0 .86.39.86 1.2 0 .81-.3 1.25-.86 1.25h-2.24Z"/><path d="M197.84 214.89c.56 0 .86.39.86 1.2 0 .81-.3 1.25-.86 1.25h-3.74c.73 1.42 1.12 2.71 1.12 3.91 0 3.91-3.01 6.41-7.65 6.41-5.16 0-7.7-2.79-7.7-7.83v-2.49h-3.78v-2.45h3.78v-5.68c0-5.8 2.62-9.42 7.74-9.42 2.32 0 4.13.77 5.42 2.28 1.25 1.55 1.89 3.44 1.89 5.72 0 3.01-.9 5.38-2.71 7.09h5.63v.01Zm-15.39 0h3.91c3.61 0 5.98-2.88 5.98-6.88 0-3.4-1.94-5.68-4.99-5.68-3.05 0-4.9 2.28-4.9 6.58v5.98Zm10.11 6.15c0-1.2-.43-2.45-1.25-3.7h-8.86v2.28c0 3.74 1.68 5.5 5.29 5.5 3.23 0 4.82-1.55 4.82-4.08Z"/><path d="M222.27 214.89c.56 0 .86.39.86 1.2 0 .81-.3 1.25-.86 1.25h-6.62c-1.76 1.38-4.08 2.06-7.01 2.06h-2.28a12.38 12.38 0 0 1-2.11-2.06h-6.41v-2.45h4.9c-.69-1.51-1.03-3.05-1.03-4.64 0-2.54.86-4.64 2.54-6.32 1.68-1.63 3.78-2.45 6.32-2.45 2.71 0 4.73.82 6.11 2.49 1.33 1.68 2.02 3.74 2.02 6.19 0 1.76-.34 3.35-1.03 4.73h4.6Zm-13.07 2.06c4.69 0 6.92-2.84 6.92-6.97 0-3.66-2.15-6.06-5.72-6.06s-6.11 2.49-6.11 6.41c0 2.62.95 4.86 2.79 6.62h2.12Z"/><path d="M245.32 214.89c.56 0 .86.39.86 1.2 0 .81-.3 1.25-.86 1.25h-23.05v-2.45h15.18c1.38-5.42.17-12.73-8.17-12.73-1.46 0-3.1.3-4.9.86l-.65-2.32c1.85-.69 3.83-1.03 5.93-1.03 4.21 0 7.22 1.38 9.03 4.13 1.76 2.79 2.24 6.49 1.38 11.09h5.25Zm-14.54 9.85c-2.37 0-2.37-3.53 0-3.53 2.24 0 2.24 3.53 0 3.53Z"/><path d="M245.32 214.89c3.96 0 5.33-1.68 5.33-6.02v-24.04h2.58v25.07c0 4.95-2.62 7.44-7.91 7.44v-2.45Zm14.88 2.45v-32.51h2.58v32.51h-2.58Zm45.7-2.45c.56 0 .86.39.86 1.2 0 .81-.3 1.25-.86 1.25h-5.29c-1.33 4.47-5.33 7.05-11.05 7.05-6.75 0-11.01-3.74-11.01-9.72 0-2.28.6-4.82 1.76-7.61l2.28.82c-.95 2.71-1.42 4.86-1.42 6.54 0 4.94 3.05 7.44 8.56 7.44 5.8 0 8.73-2.84 8.73-8.51v-28.51h2.58v29.15c0 .39 0 .69-.04.9h4.9Z"/><path d="M305.9 217.34v-2.45h2.24c.56 0 .86.39.86 1.2 0 .81-.3 1.25-.86 1.25h-2.24Z"/><path d="M308.14 217.34v-2.45h2.24c.56 0 .86.39.86 1.2 0 .81-.3 1.25-.86 1.25h-2.24Z"/><path d="M310.38 217.34v-2.45h2.24c.56 0 .86.39.86 1.2 0 .81-.3 1.25-.86 1.25h-2.24Z"/><path d="M312.61 217.34v-2.45h2.24c.56 0 .86.39.86 1.2 0 .81-.3 1.25-.86 1.25h-2.24Z"/><path d="M339.87 214.89c.56 0 .86.39.86 1.2 0 .81-.3 1.25-.86 1.25h-3.05c-4.17 0-7.48-.6-10.02-1.81-2.88 1.2-6.41 1.81-10.62 1.81h-1.33v-2.45h1.55c3.31 0 6.11-.39 8.38-1.2-1.03-1.55-2.79-3.57-3.91-4.86-.56-.6-2.45-2.62-2.92-3.14.17-1.29.39-2.24.6-2.88 2.84-2.06 5.93-3.1 9.29-3.1 4.77 0 7.83 2.36 7.83 6.19 0 3.1-1.98 5.8-5.93 8.13 1.98.56 4.26.86 6.88.86h3.27-.02Zm-19.69-10.15c2.28 1.94 4.64 4.56 7.09 7.83 3.83-1.85 5.76-3.96 5.76-6.32 0-2.36-2.11-4-5.72-4-2.37 0-4.73.73-7.09 2.19l-.04.3Z"/><path d="M362.92 214.89c.56 0 .86.39.86 1.2 0 .81-.3 1.25-.86 1.25h-23.05v-2.45h15.18c1.38-5.42.17-12.73-8.17-12.73-1.46 0-3.1.3-4.9.86l-.65-2.32c1.85-.69 3.83-1.03 5.93-1.03 4.21 0 7.22 1.38 9.03 4.13 1.76 2.79 2.24 6.49 1.38 11.09h5.25Zm-14.53 9.85c-2.37 0-2.37-3.53 0-3.53 2.24 0 2.24 3.53 0 3.53Z"/><path d="M362.92 217.34v-2.45h.26c3.66 0 5.25-1.76 5.25-6.02v-8.77h2.58v9.16c0 5.38-2.62 8.08-7.91 8.08h-.18Zm.39 5.63c0-1.03.77-1.76 1.76-1.76 2.28-.21 2.28 3.74 0 3.53-.99 0-1.76-.73-1.76-1.76v-.01Zm7.48-1.76c2.24-.21 2.24 3.74 0 3.53-2.37.21-2.37-3.74 0-3.53Zm19.35-11.14v-25.24h2.58v25.07c0 3.31 1.98 4.99 5.93 4.99.56 0 .86.39.86 1.2 0 .81-.3 1.25-.86 1.25-5.85 0-8.51-2.32-8.51-7.27Zm10.32-18.7-.13-.04.22-1.38 9.63-1.46.13.04-.22 1.38-9.63 1.46Zm0 3.91-.13-.04.22-1.38 9.63-1.46.13.04-.22 1.38-9.63 1.46Z"/><path d="M413.45 216.09c0 .82-.3 1.25-.86 1.25-3.4 0-5.72-1.07-6.88-3.27-1.2 2.19-3.48 3.27-6.88 3.27h-.17v-2.45h.26c3.66 0 5.25-1.76 5.25-6.02v-8.77h2.58v9.33c0 3.66 1.93 5.46 5.85 5.46.56 0 .86.39.86 1.2h-.01Zm-11.4 8.65c-.99 0-1.76-.73-1.76-1.76s.77-1.76 1.76-1.76c2.28-.21 2.28 3.74 0 3.53v-.01Zm5.72 0c-2.37.21-2.37-3.74 0-3.53 2.24-.21 2.24 3.74 0 3.53Z"/><path d="M412.59 217.34v-2.45h2.24c.56 0 .86.39.86 1.2 0 .81-.3 1.25-.86 1.25h-2.24Z"/><path d="M439.55 214.89c.56 0 .86.39.86 1.2 0 .81-.3 1.25-.86 1.25h-4.82c-2.97 0-5.5-.3-7.65-.9-2.15.6-4.77.9-7.87.9h-4.39v-2.45h4.51c1.72 0 3.01-.09 3.83-.3-2.71-1.59-4.51-4.26-4.51-7.35 0-2.19.77-4 2.36-5.42 1.59-1.42 3.61-2.15 6.15-2.15 4.99 0 8.3 3.1 8.3 7.57 0 3.18-1.5 5.63-4.56 7.4 1.07.17 2.28.26 3.61.26h5.03l.01-.01Zm-12.47-.99c1.55-.47 2.88-1.29 4.04-2.49 1.12-1.2 1.68-2.62 1.68-4.21 0-3.05-2.28-5.03-5.68-5.03s-5.8 2.11-5.8 5.07c0 3.14 2.49 5.63 5.76 6.66Zm.08-22.87c2.24 0 2.24 3.53 0 3.53-2.37 0-2.37-3.53 0-3.53Z"/><path d="M471.02 210.03c0 2.36-.43 4.82-1.29 7.31h-30.19v-2.45h4.56v-30.06h2.58v25.63c4.34-7.09 9.93-10.79 15.22-10.79 5.89 0 9.12 4.21 9.12 10.36Zm-3.35 4.86c.52-1.68.77-3.31.77-4.86 0-4.77-2.45-7.87-6.75-7.87-2.54 0-5.12 1.12-7.83 3.31s-5.12 5.33-7.14 9.42h20.95Zm8.82-4.82v-25.24h2.58v25.07c0 3.31 1.98 4.99 5.93 4.99.56 0 .86.39.86 1.2 0 .81-.3 1.25-.86 1.25-5.85 0-8.51-2.32-8.51-7.27Z"/><path d="M504.18 214.89v2.45H485v-2.45h6.06c-1.46-2.19-2.19-4.43-2.19-6.71 0-5.12 3.48-8.51 9.67-8.51 1.5 0 3.1.21 4.69.64l-.52 2.41c-1.5-.39-2.88-.56-4.13-.56-4.47 0-7.09 2.41-7.09 6.06 0 2.24.86 4.47 2.62 6.66h10.06l.01.01Zm16.98-4.82v-25.24h2.58v25.07c0 3.31 1.98 4.99 5.93 4.99.56 0 .86.39.86 1.2 0 .81-.3 1.25-.86 1.25-5.85 0-8.51-2.32-8.51-7.27Zm22.88-19.13-.13-.04.22-1.38 9.63-1.46.13.04-.22 1.38-9.63 1.46Zm0 3.91-.13-.04.22-1.38 9.63-1.46.13.04-.22 1.38-9.63 1.46Z"/><path d="M561.15 210.03c0 2.36-.43 4.82-1.29 7.31h-30.19v-2.45h4.56v-30.06h2.58v25.63c4.34-7.09 9.93-10.79 15.22-10.79 5.89 0 9.12 4.21 9.12 10.36Zm-3.35 4.86c.52-1.68.77-3.31.77-4.86 0-4.77-2.45-7.87-6.75-7.87-2.54 0-5.12 1.12-7.83 3.31s-5.12 5.33-7.14 9.42h20.95Zm8.81-4.82v-25.24h2.58v25.07c0 3.31 1.98 4.99 5.93 4.99.56 0 .86.39.86 1.2 0 .81-.3 1.25-.86 1.25-5.85 0-8.51-2.32-8.51-7.27Z"/><path d="M589.92 216.09c0 .82-.3 1.25-.86 1.25-3.4 0-5.72-1.07-6.88-3.27-1.2 2.19-3.57 3.27-7.05 3.27v-2.45c3.91 0 5.5-1.68 5.5-6.02v-8.77h2.58v9.33c0 3.66 1.93 5.46 5.85 5.46.56 0 .86.39.86 1.2Zm-8.43 8.65c-2.37 0-2.37-3.53 0-3.53 2.24 0 2.24 3.53 0 3.53Z"/><path d="M589.06 217.34v-2.45h.26c3.66 0 5.25-1.76 5.25-6.02v-8.77h2.58v9.16c0 5.38-2.62 8.08-7.91 8.08h-.18Zm2.11-24.12c0-1.03.77-1.76 1.76-1.76 2.28-.22 2.28 3.74 0 3.53-.99 0-1.76-.73-1.76-1.76v-.01Zm7.48-1.77c2.24-.22 2.24 3.74 0 3.53-2.37.22-2.37-3.74 0-3.53Zm1.37 30.88c4.51-.73 6.41-2.92 6.41-7.95V200.1h2.58v13.76c0 6.49-2.84 10.15-8.47 10.88l-.52-2.41Zm15.96-4.99v-32.51h2.58v32.51h-2.58Zm10.1 5.03c7.22.39 10.88-1.59 11.01-5.93-1.46.6-3.1.9-4.9.9-5.33 0-8.64-3.14-8.64-8.43 0-2.62.77-4.86 2.32-6.62 1.51-1.76 3.57-2.67 6.11-2.67 4.99 0 7.78 3.27 7.78 8.21v7.57c0 5.85-3.57 9.37-11.82 9.37-.65 0-1.2 0-1.72-.04l-.13-2.36h-.01Zm11.1-8.34v-5.33c0-4.3-1.94-6.58-5.33-6.58s-5.68 2.54-5.68 6.54 2.41 6.15 6.36 6.15c1.72 0 3.27-.26 4.64-.77l.01-.01Zm40.85 2.06c0 .82-.3 1.25-.86 1.25-4.04 0-6.45-.82-7.22-2.45-2.02.95-4.04 1.42-6.02 1.42-5.33 0-8.64-2.75-8.64-7.52 0-5.29 3.7-8.69 9.85-8.69h6.84v10.75c0 3.14 1.29 4.04 5.2 4.04.56 0 .86.39.86 1.2h-.01Zm-8.73-13.54h-4.64c-4.13 0-6.75 2.06-6.75 5.98 0 3.44 2.24 5.25 6.24 5.25 1.98 0 3.7-.43 5.16-1.25v-9.98h-.01Zm-8.86-9.33c0-1.03.77-1.76 1.76-1.76 2.28-.22 2.28 3.74 0 3.53-.99 0-1.76-.73-1.76-1.76v-.01Zm7.48-1.77c2.24-.22 2.24 3.74 0 3.53-2.36.22-2.36-3.74 0-3.53Z"/><path d="M691.96 216.09c0 .82-.3 1.25-.86 1.25-3.4 0-5.72-1.07-6.88-3.27-1.2 2.19-3.48 3.27-6.88 3.27h-.17v-2.45h.26c3.66 0 5.25-1.76 5.25-6.02v-8.77h2.58v9.33c0 3.66 1.93 5.46 5.85 5.46.56 0 .86.39.86 1.2h-.01Zm-11.4 8.65c-.99 0-1.76-.73-1.76-1.76s.77-1.76 1.76-1.76c2.28-.21 2.28 3.74 0 3.53v-.01Zm5.72 0c-2.37.21-2.37-3.74 0-3.53 2.24-.21 2.24 3.74 0 3.53Z"/><path d="M691.1 214.89c3.91 0 5.5-1.68 5.5-6.02v-8.77h2.58v9.16c0 5.63-2.71 8.08-8.08 8.08v-2.45Zm6.84-23.44c2.24 0 2.24 3.53 0 3.53-2.37 0-2.37-3.53 0-3.53Zm7.35 18.62v-25.24h2.58v25.07c0 3.31 1.98 4.99 5.93 4.99.56 0 .86.39.86 1.2 0 .81-.3 1.25-.86 1.25-5.85 0-8.51-2.32-8.51-7.27Z"/><path d="M753.06 216.09c0 .82-.3 1.25-.86 1.25-3.4 0-5.68-1.07-6.84-3.22-1.16 2.15-3.31 3.22-6.36 3.22-3.05 0-4.9-1.07-5.98-3.18-1.08 2.11-3.14 3.18-6.24 3.18s-4.9-.99-5.76-3.01c-1.03 1.76-3.44 3.01-6.71 3.01h-.52v-2.45h.56c3.48 0 5.25-1.59 5.25-5.76v-5.89h2.58v7.18c0 2.97 1.5 4.47 4.56 4.47 3.23 0 4.86-1.59 4.86-5.76v-5.89h2.58v7.14c0 3.01 1.59 4.51 4.82 4.51 3.23 0 4.77-1.85 4.77-6.02v-8.77h2.58v9.33c0 3.66 1.93 5.46 5.85 5.46.56 0 .86.39.86 1.2Z"/><path d="M752.2 214.89c3.91 0 5.5-1.68 5.5-6.02v-8.77h2.58v9.16c0 5.63-2.71 8.08-8.08 8.08v-2.45Zm6.84-23.44c2.24 0 2.24 3.53 0 3.53-2.37 0-2.37-3.53 0-3.53Zm12.08 35.26v1.38h-6.88v-1.38h1.63c-.43-.69-.64-1.42-.64-2.24 0-1.94 1.42-3.27 3.48-3.27.65 0 1.33.09 2.02.3l-.26 1.33c-.47-.13-.99-.22-1.5-.22-1.33 0-2.28.77-2.28 2.02 0 .73.21 1.42.69 2.06h3.74v.02Zm-2.15-41.88v32.51h-2.58v-32.51h2.58Zm-440.23 82.84c.82.82.82 2.11 0 2.92-.82.82-2.11.82-2.92 0s-.82-2.11 0-2.92a2.04 2.04 0 0 1 2.92 0Zm29.88 2.02c0 .82-.3 1.25-.86 1.25-4.04 0-6.45-.82-7.22-2.45-2.02.95-4.04 1.42-6.02 1.42-5.33 0-8.64-2.75-8.64-7.52 0-5.29 3.7-8.69 9.85-8.69h6.84v10.75c0 3.14 1.29 4.04 5.2 4.04.56 0 .86.39.86 1.2h-.01Zm-8.73-13.54h-4.64c-4.13 0-6.75 2.06-6.75 5.98 0 3.44 2.24 5.25 6.24 5.25 1.98 0 3.7-.43 5.16-1.25v-9.98h-.01Zm-8.85-9.33c0-1.03.77-1.76 1.76-1.76 2.28-.22 2.28 3.74 0 3.53-.99 0-1.76-.73-1.76-1.76v-.01Zm7.48-1.76c2.24-.22 2.24 3.74 0 3.53-2.36.22-2.36-3.74 0-3.53Z"/><path d="M357.76 268.49c3.96 0 5.33-1.68 5.33-6.02v-24.04h2.58v25.07c0 4.95-2.62 7.44-7.91 7.44v-2.45Zm14.88-4.82v-25.24h2.58v25.07c0 3.31 1.98 4.99 5.93 4.99.56 0 .86.39.86 1.2 0 .81-.3 1.25-.86 1.25-5.85 0-8.51-2.32-8.51-7.27Z"/><path d="M411.13 253.7h2.58v9.8c0 4.69-2.71 7.44-7.35 7.44-2.92 0-4.9-1.07-5.98-3.18-1.08 2.11-3.14 3.18-6.24 3.18s-4.9-.99-5.76-3.01c-1.03 1.76-3.44 3.01-6.71 3.01h-.52v-2.45h.56c3.48 0 5.25-1.59 5.25-5.76v-5.89h2.58v7.18c0 2.97 1.5 4.47 4.56 4.47 3.23 0 4.86-1.59 4.86-5.76v-5.89h2.58v7.14c0 3.01 1.59 4.51 4.82 4.51 3.23 0 4.77-1.85 4.77-6.02v-8.77Zm18.79 14.79c.56 0 .86.39.86 1.2 0 .81-.3 1.25-.86 1.25h-5.89v-.26c-.77 4.47-3.53 7.01-8.21 7.65l-.52-2.41c4.51-.73 6.41-2.92 6.41-7.95v-14.28h2.58v13.76c0 .47 0 .82-.04 1.03h5.68l-.01.01Z"/><path d="M429.92 268.49c3.96 0 5.33-1.68 5.33-6.02v-24.04h2.58v25.07c0 4.95-2.62 7.44-7.91 7.44v-2.45Zm14.88 2.45v-32.51h2.58v32.51h-2.58Z"/></g><defs><clipPath id="a"><path fill="#fff" d="M0 0h772.52v368.53H0z"/></clipPath></defs></svg>