<svg width="34" height="48" viewBox="0 0 34 48" fill="none" xmlns="http://www.w3.org/2000/svg">
<path d="M14.9106 47.0298C2.33654 27.2786 0 25.2538 0 17.9982C0 8.06171 7.44231 0 16.6154 0C25.7885 0 33.2308 8.06171 33.2308 17.9982C33.2308 25.2538 30.8942 27.2786 18.3202 47.0298C17.4981 48.3234 15.7327 48.3234 14.9019 47.0298H14.9106ZM16.6154 25.4975C20.4404 25.4975 23.5385 22.1416 23.5385 17.9982C23.5385 13.8549 20.4404 10.499 16.6154 10.499C12.7904 10.499 9.69231 13.8549 9.69231 17.9982C9.69231 22.1416 12.7904 25.4975 16.6154 25.4975Z" fill="white"/>
</svg>
