<svg width="59" height="48" viewBox="0 0 59 48" fill="none" xmlns="http://www.w3.org/2000/svg">
<path d="M29.0393 38.6485C26.983 38.6194 25.002 38.2462 23.1032 37.4722C22.747 37.3267 22.4799 37.3644 22.158 37.551C20.9937 38.2222 19.814 38.8643 18.6395 39.5166C18.1378 39.7957 17.6156 40.0097 17.0814 39.6279C16.542 39.2409 16.4787 38.6674 16.6002 38.0732C16.8622 36.7994 17.1293 35.5255 17.4358 34.2636C17.5283 33.8835 17.4598 33.6369 17.2047 33.3493C10.7565 26.0502 12.3643 14.5545 20.6051 9.43848C29.6164 3.84474 42.1376 8.31014 44.509 19.561C46.3907 28.4832 40.5675 36.9774 31.5837 38.4174C30.7481 38.5509 29.8903 38.5749 29.0393 38.6485ZM37.0969 25.7951C38.7355 25.7882 40.0659 24.4544 40.0625 22.8227C40.059 21.1859 38.7287 19.8623 37.0867 19.8589C35.4173 19.8555 34.0578 21.2184 34.0886 22.8655C34.1177 24.5109 35.443 25.8019 37.0969 25.7951ZM20.9372 25.7951C22.6203 25.8327 23.9781 24.54 24.0106 22.8672C24.0414 21.2715 22.735 19.9034 21.1444 19.8606C19.4562 19.8161 18.0847 21.0968 18.0419 22.7576C17.9991 24.3877 19.3055 25.7574 20.9372 25.7951ZM29.0496 25.7951C30.7053 25.7951 32.01 24.4972 32.0168 22.845C32.0237 21.1876 30.7293 19.8709 29.0821 19.8589C27.3973 19.8469 26.0772 21.1636 26.0841 22.845C26.0892 24.4989 27.3922 25.7951 29.0496 25.7951Z" fill="white"/>
<path d="M34.4375 45.0502C34.4375 45.3344 34.4495 45.569 34.4358 45.8018C34.3673 46.9644 33.4444 47.913 32.2767 47.9284C30.1193 47.9575 27.962 47.9575 25.8063 47.9267C24.642 47.9095 23.714 46.9524 23.6609 45.7899C23.6387 45.3002 23.6387 44.807 23.6592 44.3174C23.7089 43.1171 24.6403 42.1874 25.8491 42.1617C27.0237 42.136 28.1983 42.1463 29.3728 42.1549C33.9684 42.1857 37.9732 40.5865 41.4866 37.7014C43.9042 35.7153 45.7414 33.2617 46.8903 30.3493C47.267 29.3939 47.4074 28.3357 47.5889 27.3136C47.8132 26.0534 47.8971 24.7658 48.171 23.5193C48.6179 21.4818 48.3131 19.5042 47.7104 17.5866C45.2466 9.75842 39.9473 4.99338 31.8572 3.65273C21.2348 1.8926 11.1208 9.68137 9.79045 20.3894C9.59698 21.9407 9.94798 23.4046 10.1552 24.8959C10.5216 27.5379 10.9547 30.1695 11.3349 32.8097C11.5609 34.3781 11.0729 35.1246 9.54732 35.5766C8.35735 35.9293 7.1571 36.2444 5.89864 35.9362C4.21897 35.5252 3.01016 34.4551 2.13694 33.0408C-0.308069 29.0805 -0.676191 24.8754 1.14216 20.612C2.16776 18.2064 4.0546 16.65 6.80781 16.3915C6.98417 16.3743 7.20846 16.0798 7.27866 15.8692C8.42583 12.4072 10.2476 9.35948 12.8142 6.76208C24.7773 -5.34657 45.4281 -0.482218 50.7325 15.6895C50.8318 15.9925 50.7735 16.4308 51.3283 16.4548C54.4085 16.5867 56.2337 18.4153 57.184 21.1274C58.7318 25.55 58.314 29.7945 55.5095 33.6521C54.5267 35.003 53.2049 36.0132 51.4601 36.0509C50.5047 36.0714 49.5356 35.7598 48.5836 35.5475C48.2121 35.4653 48.0084 35.5287 47.7875 35.842C44.5651 40.4136 40.2504 43.4356 34.8518 44.9081C34.732 44.9406 34.6156 44.9885 34.4375 45.0502Z" fill="white"/>
</svg>
